%TF.GenerationSoftware,KiCad,Pcbnew,(5.1.6)-1*%
%TF.CreationDate,2023-11-28T20:11:05+09:00*%
%TF.ProjectId,CMouse-3rd-MOD,434d6f75-7365-42d3-9372-642d4d4f442e,rev?*%
%TF.SameCoordinates,Original*%
%TF.FileFunction,Paste,Top*%
%TF.FilePolarity,Positive*%
%FSLAX46Y46*%
G04 Gerber Fmt 4.6, Leading zero omitted, Abs format (unit mm)*
G04 Created by KiCad (PCBNEW (5.1.6)-1) date 2023-11-28 20:11:05*
%MOMM*%
%LPD*%
G01*
G04 APERTURE LIST*
%ADD10R,0.600000X1.000000*%
G04 APERTURE END LIST*
%TO.C,R16*%
G36*
G01*
X112950000Y-141450001D02*
X112950000Y-140549999D01*
G75*
G02*
X113199999Y-140300000I249999J0D01*
G01*
X113850001Y-140300000D01*
G75*
G02*
X114100000Y-140549999I0J-249999D01*
G01*
X114100000Y-141450001D01*
G75*
G02*
X113850001Y-141700000I-249999J0D01*
G01*
X113199999Y-141700000D01*
G75*
G02*
X112950000Y-141450001I0J249999D01*
G01*
G37*
G36*
G01*
X110900000Y-141450001D02*
X110900000Y-140549999D01*
G75*
G02*
X111149999Y-140300000I249999J0D01*
G01*
X111800001Y-140300000D01*
G75*
G02*
X112050000Y-140549999I0J-249999D01*
G01*
X112050000Y-141450001D01*
G75*
G02*
X111800001Y-141700000I-249999J0D01*
G01*
X111149999Y-141700000D01*
G75*
G02*
X110900000Y-141450001I0J249999D01*
G01*
G37*
%TD*%
%TO.C,R17*%
G36*
G01*
X118100000Y-140549999D02*
X118100000Y-141450001D01*
G75*
G02*
X117850001Y-141700000I-249999J0D01*
G01*
X117199999Y-141700000D01*
G75*
G02*
X116950000Y-141450001I0J249999D01*
G01*
X116950000Y-140549999D01*
G75*
G02*
X117199999Y-140300000I249999J0D01*
G01*
X117850001Y-140300000D01*
G75*
G02*
X118100000Y-140549999I0J-249999D01*
G01*
G37*
G36*
G01*
X116050000Y-140549999D02*
X116050000Y-141450001D01*
G75*
G02*
X115800001Y-141700000I-249999J0D01*
G01*
X115149999Y-141700000D01*
G75*
G02*
X114900000Y-141450001I0J249999D01*
G01*
X114900000Y-140549999D01*
G75*
G02*
X115149999Y-140300000I249999J0D01*
G01*
X115800001Y-140300000D01*
G75*
G02*
X116050000Y-140549999I0J-249999D01*
G01*
G37*
%TD*%
D10*
%TO.C,TR5*%
X107050000Y-142150000D03*
X108950000Y-142150000D03*
X108000000Y-139850000D03*
%TD*%
%TO.C,TR6*%
X121000000Y-139850000D03*
X121950000Y-142150000D03*
X120050000Y-142150000D03*
%TD*%
M02*
