%TF.GenerationSoftware,KiCad,Pcbnew,(5.1.6)-1*%
%TF.CreationDate,2023-11-28T20:11:05+09:00*%
%TF.ProjectId,CMouse-3rd-MOD,434d6f75-7365-42d3-9372-642d4d4f442e,rev?*%
%TF.SameCoordinates,Original*%
%TF.FileFunction,Legend,Bot*%
%TF.FilePolarity,Positive*%
%FSLAX46Y46*%
G04 Gerber Fmt 4.6, Leading zero omitted, Abs format (unit mm)*
G04 Created by KiCad (PCBNEW (5.1.6)-1) date 2023-11-28 20:11:05*
%MOMM*%
%LPD*%
G01*
G04 APERTURE LIST*
%ADD10C,0.120000*%
%ADD11C,0.200000*%
%ADD12C,0.150000*%
%ADD13C,0.254000*%
G04 APERTURE END LIST*
D10*
%TO.C,IR5*%
X112898026Y-115601974D02*
G75*
G03*
X112898026Y-115601974I-2500000J0D01*
G01*
X109680312Y-118504648D02*
X107495352Y-116319688D01*
X112511950Y-113487398D02*
G75*
G02*
X109680192Y-118504528I-2113924J-2114576D01*
G01*
X112512602Y-113488050D02*
G75*
G03*
X107495472Y-116319808I-2114576J-2113924D01*
G01*
%TO.C,IR6*%
X121004648Y-116319688D02*
X118819688Y-118504648D01*
X120601974Y-115601974D02*
G75*
G03*
X120601974Y-115601974I-2500000J0D01*
G01*
X115988050Y-113487398D02*
G75*
G03*
X118819808Y-118504528I2113924J-2114576D01*
G01*
X115987398Y-113488050D02*
G75*
G02*
X121004528Y-116319808I2114576J-2113924D01*
G01*
%TO.C,J1*%
X123570000Y-144670000D02*
X123570000Y-147330000D01*
X108270000Y-144670000D02*
X123570000Y-144670000D01*
X108270000Y-147330000D02*
X123570000Y-147330000D01*
X108270000Y-144670000D02*
X108270000Y-147330000D01*
X107000000Y-144670000D02*
X105670000Y-144670000D01*
X105670000Y-144670000D02*
X105670000Y-146000000D01*
D11*
%TO.C,S5*%
X109988837Y-109511163D02*
X109988837Y-109511163D01*
X113807214Y-105692786D02*
X113807214Y-105692786D01*
X109515076Y-109984924D02*
X109515076Y-109984924D01*
X109585786Y-109914214D02*
X109585786Y-109914214D01*
X109515076Y-109984924D02*
X109515076Y-109984924D01*
X113807215Y-105692785D02*
G75*
G03*
X109988837Y-109511163I-1909189J-1909189D01*
G01*
X109988838Y-109511162D02*
G75*
G03*
X113807214Y-105692786I1909188J1909188D01*
G01*
X109585786Y-109914214D02*
G75*
G03*
X109515076Y-109984924I-35355J-35355D01*
G01*
X109515076Y-109984924D02*
G75*
G03*
X109585786Y-109914214I35355J35355D01*
G01*
X109585786Y-109914214D02*
G75*
G03*
X109515076Y-109984924I-35355J-35355D01*
G01*
%TO.C,S6*%
X119484924Y-109984924D02*
X119484924Y-109984924D01*
X119414214Y-109914214D02*
X119414214Y-109914214D01*
X119484924Y-109984924D02*
X119484924Y-109984924D01*
X115192786Y-105692786D02*
X115192786Y-105692786D01*
X119011163Y-109511163D02*
X119011163Y-109511163D01*
X119414214Y-109914214D02*
G75*
G03*
X119484924Y-109984924I35355J-35355D01*
G01*
X119484924Y-109984924D02*
G75*
G03*
X119414214Y-109914214I-35355J35355D01*
G01*
X119414214Y-109914214D02*
G75*
G03*
X119484924Y-109984924I35355J-35355D01*
G01*
X119011162Y-109511162D02*
G75*
G03*
X115192786Y-105692786I-1909188J1909188D01*
G01*
X115192785Y-105692785D02*
G75*
G03*
X119011163Y-109511163I1909189J-1909189D01*
G01*
%TO.C,IR5*%
D12*
X114208320Y-118031727D02*
X113501213Y-117324620D01*
X113467542Y-118772506D02*
X113366526Y-118200086D01*
X113871603Y-118368445D02*
X113164496Y-117661338D01*
X112895122Y-117930712D01*
X112861450Y-118031727D01*
X112861450Y-118099071D01*
X112895122Y-118200086D01*
X112996137Y-118301101D01*
X113097152Y-118334773D01*
X113164496Y-118334773D01*
X113265511Y-118301101D01*
X113534885Y-118031727D01*
X112120671Y-118705162D02*
X112457389Y-118368445D01*
X112827778Y-118671491D01*
X112760435Y-118671491D01*
X112659419Y-118705162D01*
X112491061Y-118873521D01*
X112457389Y-118974536D01*
X112457389Y-119041880D01*
X112491061Y-119142895D01*
X112659419Y-119311254D01*
X112760435Y-119344926D01*
X112827778Y-119344926D01*
X112928793Y-119311254D01*
X113097152Y-119142895D01*
X113130824Y-119041880D01*
X113130824Y-118974536D01*
%TO.C,IR6*%
X121272506Y-113811984D02*
X121979613Y-113104877D01*
X120531727Y-113071206D02*
X121104147Y-112970190D01*
X120935788Y-113475267D02*
X121642895Y-112768160D01*
X121373521Y-112498786D01*
X121272506Y-112465114D01*
X121205162Y-112465114D01*
X121104147Y-112498786D01*
X121003132Y-112599801D01*
X120969460Y-112700816D01*
X120969460Y-112768160D01*
X121003132Y-112869175D01*
X121272506Y-113138549D01*
X120632742Y-111758007D02*
X120767429Y-111892694D01*
X120801101Y-111993709D01*
X120801101Y-112061053D01*
X120767429Y-112229412D01*
X120666414Y-112397770D01*
X120397040Y-112667144D01*
X120296025Y-112700816D01*
X120228681Y-112700816D01*
X120127666Y-112667144D01*
X119992979Y-112532457D01*
X119959307Y-112431442D01*
X119959307Y-112364099D01*
X119992979Y-112263083D01*
X120161338Y-112094725D01*
X120262353Y-112061053D01*
X120329697Y-112061053D01*
X120430712Y-112094725D01*
X120565399Y-112229412D01*
X120599071Y-112330427D01*
X120599071Y-112397770D01*
X120565399Y-112498786D01*
%TO.C,J1*%
X104122380Y-145666666D02*
X104836666Y-145666666D01*
X104979523Y-145619047D01*
X105074761Y-145523809D01*
X105122380Y-145380952D01*
X105122380Y-145285714D01*
X105122380Y-146666666D02*
X105122380Y-146095238D01*
X105122380Y-146380952D02*
X104122380Y-146380952D01*
X104265238Y-146285714D01*
X104360476Y-146190476D01*
X104408095Y-146095238D01*
%TO.C,R16*%
X113142857Y-139802380D02*
X113476190Y-139326190D01*
X113714285Y-139802380D02*
X113714285Y-138802380D01*
X113333333Y-138802380D01*
X113238095Y-138850000D01*
X113190476Y-138897619D01*
X113142857Y-138992857D01*
X113142857Y-139135714D01*
X113190476Y-139230952D01*
X113238095Y-139278571D01*
X113333333Y-139326190D01*
X113714285Y-139326190D01*
X112190476Y-139802380D02*
X112761904Y-139802380D01*
X112476190Y-139802380D02*
X112476190Y-138802380D01*
X112571428Y-138945238D01*
X112666666Y-139040476D01*
X112761904Y-139088095D01*
X111333333Y-138802380D02*
X111523809Y-138802380D01*
X111619047Y-138850000D01*
X111666666Y-138897619D01*
X111761904Y-139040476D01*
X111809523Y-139230952D01*
X111809523Y-139611904D01*
X111761904Y-139707142D01*
X111714285Y-139754761D01*
X111619047Y-139802380D01*
X111428571Y-139802380D01*
X111333333Y-139754761D01*
X111285714Y-139707142D01*
X111238095Y-139611904D01*
X111238095Y-139373809D01*
X111285714Y-139278571D01*
X111333333Y-139230952D01*
X111428571Y-139183333D01*
X111619047Y-139183333D01*
X111714285Y-139230952D01*
X111761904Y-139278571D01*
X111809523Y-139373809D01*
%TO.C,R17*%
X117142857Y-143102380D02*
X117476190Y-142626190D01*
X117714285Y-143102380D02*
X117714285Y-142102380D01*
X117333333Y-142102380D01*
X117238095Y-142150000D01*
X117190476Y-142197619D01*
X117142857Y-142292857D01*
X117142857Y-142435714D01*
X117190476Y-142530952D01*
X117238095Y-142578571D01*
X117333333Y-142626190D01*
X117714285Y-142626190D01*
X116190476Y-143102380D02*
X116761904Y-143102380D01*
X116476190Y-143102380D02*
X116476190Y-142102380D01*
X116571428Y-142245238D01*
X116666666Y-142340476D01*
X116761904Y-142388095D01*
X115857142Y-142102380D02*
X115190476Y-142102380D01*
X115619047Y-143102380D01*
%TO.C,S5*%
D13*
X112945722Y-107281250D02*
X112860196Y-107452303D01*
X112646380Y-107666118D01*
X112518091Y-107708881D01*
X112432565Y-107708881D01*
X112304275Y-107666118D01*
X112218749Y-107580592D01*
X112175986Y-107452303D01*
X112175986Y-107366776D01*
X112218749Y-107238487D01*
X112347038Y-107024671D01*
X112389801Y-106896382D01*
X112389801Y-106810856D01*
X112347038Y-106682566D01*
X112261512Y-106597040D01*
X112133223Y-106554277D01*
X112047696Y-106554277D01*
X111919407Y-106597040D01*
X111705591Y-106810856D01*
X111620065Y-106981908D01*
X110764803Y-107751644D02*
X111192434Y-107324013D01*
X111662828Y-107708881D01*
X111577302Y-107708881D01*
X111449013Y-107751644D01*
X111235197Y-107965460D01*
X111192434Y-108093749D01*
X111192434Y-108179276D01*
X111235197Y-108307565D01*
X111449013Y-108521381D01*
X111577302Y-108564144D01*
X111662828Y-108564144D01*
X111791118Y-108521381D01*
X112004933Y-108307565D01*
X112047696Y-108179276D01*
X112047696Y-108093749D01*
%TO.C,S6*%
X117422697Y-108649670D02*
X117251644Y-108564144D01*
X117037829Y-108350328D01*
X116995066Y-108222039D01*
X116995066Y-108136513D01*
X117037829Y-108008223D01*
X117123355Y-107922697D01*
X117251644Y-107879934D01*
X117337171Y-107879934D01*
X117465460Y-107922697D01*
X117679276Y-108050986D01*
X117807565Y-108093749D01*
X117893091Y-108093749D01*
X118021381Y-108050986D01*
X118106907Y-107965460D01*
X118149670Y-107837171D01*
X118149670Y-107751644D01*
X118106907Y-107623355D01*
X117893091Y-107409539D01*
X117722039Y-107324013D01*
X116995066Y-106511514D02*
X117166118Y-106682566D01*
X117208881Y-106810856D01*
X117208881Y-106896382D01*
X117166118Y-107110198D01*
X117037829Y-107324013D01*
X116695724Y-107666118D01*
X116567434Y-107708881D01*
X116481908Y-107708881D01*
X116353619Y-107666118D01*
X116182566Y-107495066D01*
X116139803Y-107366776D01*
X116139803Y-107281250D01*
X116182566Y-107152961D01*
X116396382Y-106939145D01*
X116524671Y-106896382D01*
X116610198Y-106896382D01*
X116738487Y-106939145D01*
X116909539Y-107110198D01*
X116952303Y-107238487D01*
X116952303Y-107324013D01*
X116909539Y-107452303D01*
%TO.C,TR5*%
X107304523Y-139397380D02*
X107304523Y-140123095D01*
X108574523Y-139760238D02*
X107304523Y-139760238D01*
X108574523Y-141272142D02*
X107969761Y-140848809D01*
X108574523Y-140546428D02*
X107304523Y-140546428D01*
X107304523Y-141030238D01*
X107365000Y-141151190D01*
X107425476Y-141211666D01*
X107546428Y-141272142D01*
X107727857Y-141272142D01*
X107848809Y-141211666D01*
X107909285Y-141151190D01*
X107969761Y-141030238D01*
X107969761Y-140546428D01*
X107304523Y-142421190D02*
X107304523Y-141816428D01*
X107909285Y-141755952D01*
X107848809Y-141816428D01*
X107788333Y-141937380D01*
X107788333Y-142239761D01*
X107848809Y-142360714D01*
X107909285Y-142421190D01*
X108030238Y-142481666D01*
X108332619Y-142481666D01*
X108453571Y-142421190D01*
X108514047Y-142360714D01*
X108574523Y-142239761D01*
X108574523Y-141937380D01*
X108514047Y-141816428D01*
X108453571Y-141755952D01*
%TO.C,TR6*%
X120304523Y-139397380D02*
X120304523Y-140123095D01*
X121574523Y-139760238D02*
X120304523Y-139760238D01*
X121574523Y-141272142D02*
X120969761Y-140848809D01*
X121574523Y-140546428D02*
X120304523Y-140546428D01*
X120304523Y-141030238D01*
X120365000Y-141151190D01*
X120425476Y-141211666D01*
X120546428Y-141272142D01*
X120727857Y-141272142D01*
X120848809Y-141211666D01*
X120909285Y-141151190D01*
X120969761Y-141030238D01*
X120969761Y-140546428D01*
X120304523Y-142360714D02*
X120304523Y-142118809D01*
X120365000Y-141997857D01*
X120425476Y-141937380D01*
X120606904Y-141816428D01*
X120848809Y-141755952D01*
X121332619Y-141755952D01*
X121453571Y-141816428D01*
X121514047Y-141876904D01*
X121574523Y-141997857D01*
X121574523Y-142239761D01*
X121514047Y-142360714D01*
X121453571Y-142421190D01*
X121332619Y-142481666D01*
X121030238Y-142481666D01*
X120909285Y-142421190D01*
X120848809Y-142360714D01*
X120788333Y-142239761D01*
X120788333Y-141997857D01*
X120848809Y-141876904D01*
X120909285Y-141816428D01*
X121030238Y-141755952D01*
%TD*%
M02*
