%TF.GenerationSoftware,KiCad,Pcbnew,(5.1.6)-1*%
%TF.CreationDate,2023-11-28T20:11:05+09:00*%
%TF.ProjectId,CMouse-3rd-MOD,434d6f75-7365-42d3-9372-642d4d4f442e,rev?*%
%TF.SameCoordinates,Original*%
%TF.FileFunction,Soldermask,Top*%
%TF.FilePolarity,Negative*%
%FSLAX46Y46*%
G04 Gerber Fmt 4.6, Leading zero omitted, Abs format (unit mm)*
G04 Created by KiCad (PCBNEW (5.1.6)-1) date 2023-11-28 20:11:05*
%MOMM*%
%LPD*%
G01*
G04 APERTURE LIST*
%ADD10C,0.300000*%
%ADD11C,0.100000*%
%ADD12C,1.900000*%
%ADD13R,1.800000X1.800000*%
%ADD14O,1.800000X1.800000*%
%ADD15C,1.292000*%
%ADD16R,0.700000X1.100000*%
G04 APERTURE END LIST*
D10*
X117800000Y-148900000D02*
X117400000Y-148900000D01*
X117800000Y-149100000D02*
X117800000Y-148900000D01*
X117000000Y-149200000D02*
X117800000Y-149200000D01*
X117000000Y-149100000D02*
X117000000Y-149200000D01*
X117000000Y-149500000D02*
X117000000Y-149100000D01*
X115500000Y-149300000D02*
X115500000Y-149000000D01*
X116300000Y-149300000D02*
X115500000Y-149300000D01*
X115600000Y-149200000D02*
X116200000Y-149200000D01*
X116100000Y-149200000D02*
X115600000Y-149200000D01*
X116500000Y-149500000D02*
X116000000Y-149000000D01*
X113000000Y-149500000D02*
X113500000Y-149000000D01*
X113300000Y-149300000D02*
X114100000Y-149300000D01*
X114100000Y-149200000D02*
X114100000Y-149000000D01*
X113400000Y-149200000D02*
X114100000Y-149200000D01*
X112500000Y-149100000D02*
X112500000Y-149500000D01*
X112500000Y-148900000D02*
X112500000Y-149100000D01*
X111800000Y-149200000D02*
X111800000Y-148900000D01*
X112500000Y-149200000D02*
X111800000Y-149200000D01*
X114000000Y-148900000D02*
X113500000Y-148900000D01*
X115500000Y-148900000D02*
X115900000Y-148900000D01*
X117000000Y-148900000D02*
X117500000Y-148900000D01*
X112500000Y-148900000D02*
X112000000Y-148900000D01*
X117000000Y-149000000D02*
X117500000Y-149000000D01*
X112000000Y-149000000D02*
X112500000Y-149000000D01*
X115500000Y-149000000D02*
X116000000Y-149000000D01*
X113500000Y-149000000D02*
X114000000Y-149000000D01*
X117000000Y-151000000D02*
X117000000Y-149500000D01*
X116500000Y-151000000D02*
X116500000Y-149500000D01*
X113000000Y-151000000D02*
X113000000Y-149500000D01*
X112500000Y-151000000D02*
X112500000Y-149500000D01*
D11*
%TO.C,IR5*%
G36*
X109500000Y-117843503D02*
G01*
X108156497Y-116500000D01*
X109500000Y-115156497D01*
X110843503Y-116500000D01*
X109500000Y-117843503D01*
G37*
D12*
X111296051Y-114703949D03*
%TD*%
%TO.C,IR6*%
X117203949Y-114703949D03*
D11*
G36*
X120343503Y-116500000D02*
G01*
X119000000Y-117843503D01*
X117656497Y-116500000D01*
X119000000Y-115156497D01*
X120343503Y-116500000D01*
G37*
%TD*%
D13*
%TO.C,J1*%
X107000000Y-146000000D03*
D14*
X109540000Y-146000000D03*
X112080000Y-146000000D03*
X114620000Y-146000000D03*
X117160000Y-146000000D03*
X119700000Y-146000000D03*
X122240000Y-146000000D03*
%TD*%
%TO.C,R16*%
G36*
G01*
X112900000Y-141478262D02*
X112900000Y-140521738D01*
G75*
G02*
X113171738Y-140250000I271738J0D01*
G01*
X113878262Y-140250000D01*
G75*
G02*
X114150000Y-140521738I0J-271738D01*
G01*
X114150000Y-141478262D01*
G75*
G02*
X113878262Y-141750000I-271738J0D01*
G01*
X113171738Y-141750000D01*
G75*
G02*
X112900000Y-141478262I0J271738D01*
G01*
G37*
G36*
G01*
X110850000Y-141478262D02*
X110850000Y-140521738D01*
G75*
G02*
X111121738Y-140250000I271738J0D01*
G01*
X111828262Y-140250000D01*
G75*
G02*
X112100000Y-140521738I0J-271738D01*
G01*
X112100000Y-141478262D01*
G75*
G02*
X111828262Y-141750000I-271738J0D01*
G01*
X111121738Y-141750000D01*
G75*
G02*
X110850000Y-141478262I0J271738D01*
G01*
G37*
%TD*%
%TO.C,R17*%
G36*
G01*
X118150000Y-140521738D02*
X118150000Y-141478262D01*
G75*
G02*
X117878262Y-141750000I-271738J0D01*
G01*
X117171738Y-141750000D01*
G75*
G02*
X116900000Y-141478262I0J271738D01*
G01*
X116900000Y-140521738D01*
G75*
G02*
X117171738Y-140250000I271738J0D01*
G01*
X117878262Y-140250000D01*
G75*
G02*
X118150000Y-140521738I0J-271738D01*
G01*
G37*
G36*
G01*
X116100000Y-140521738D02*
X116100000Y-141478262D01*
G75*
G02*
X115828262Y-141750000I-271738J0D01*
G01*
X115121738Y-141750000D01*
G75*
G02*
X114850000Y-141478262I0J271738D01*
G01*
X114850000Y-140521738D01*
G75*
G02*
X115121738Y-140250000I271738J0D01*
G01*
X115828262Y-140250000D01*
G75*
G02*
X116100000Y-140521738I0J-271738D01*
G01*
G37*
%TD*%
D15*
%TO.C,S5*%
X111000000Y-108500000D03*
X112796051Y-106703949D03*
%TD*%
%TO.C,S6*%
X116203949Y-106703949D03*
X118000000Y-108500000D03*
%TD*%
D16*
%TO.C,TR5*%
X107050000Y-142150000D03*
X108950000Y-142150000D03*
X108000000Y-139850000D03*
%TD*%
%TO.C,TR6*%
X121000000Y-139850000D03*
X121950000Y-142150000D03*
X120050000Y-142150000D03*
%TD*%
M02*
