M48
; DRILL file {KiCad (5.1.6)-1} date 11/28/23 20:11:14
; FORMAT={-:-/ absolute / metric / decimal}
; #@! TF.CreationDate,2023-11-28T20:11:14+09:00
; #@! TF.GenerationSoftware,Kicad,Pcbnew,(5.1.6)-1
; #@! TF.FileFunction,Plated,1,2,PTH
FMAT,2
METRIC
T1C0.400
T2C0.650
T3C0.900
T4C1.000
%
G90
G05
T1
X102.65Y-143.85
X106.5Y-139.5
X108.0Y-139.0
X111.5Y-139.0
X111.7Y-149.8
X113.8Y-149.9
X115.5Y-150.0
X117.0Y-139.0
X117.8Y-149.8
X120.5Y-138.5
X124.5Y-136.5
X127.0Y-143.5
T2
X116.204Y-106.704
X118.0Y-108.5
X111.0Y-108.5
X112.796Y-106.704
T3
X117.204Y-114.704
X119.0Y-116.5
X109.5Y-116.5
X111.296Y-114.704
T4
X107.0Y-146.0
X109.54Y-146.0
X112.08Y-146.0
X114.62Y-146.0
X117.16Y-146.0
X119.7Y-146.0
X122.24Y-146.0
T0
M30
