%TF.GenerationSoftware,KiCad,Pcbnew,(5.1.6)-1*%
%TF.CreationDate,2022-04-30T17:28:47+09:00*%
%TF.ProjectId,RX621,52583632-312e-46b6-9963-61645f706362,rev?*%
%TF.SameCoordinates,Original*%
%TF.FileFunction,Profile,NP*%
%FSLAX46Y46*%
G04 Gerber Fmt 4.6, Leading zero omitted, Abs format (unit mm)*
G04 Created by KiCad (PCBNEW (5.1.6)-1) date 2022-04-30 17:28:47*
%MOMM*%
%LPD*%
G01*
G04 APERTURE LIST*
%TA.AperFunction,Profile*%
%ADD10C,0.050000*%
%TD*%
G04 APERTURE END LIST*
D10*
X214500000Y-157500000D02*
X202000000Y-157500000D01*
X252000000Y-157500000D02*
X240000000Y-157500000D01*
X216500000Y-147000000D02*
G75*
G03*
X216500000Y-147000000I-1500000J0D01*
G01*
X240500000Y-147000000D02*
G75*
G03*
X240500000Y-147000000I-1500000J0D01*
G01*
X214500000Y-157500000D02*
X240000000Y-157500000D01*
X192000000Y-157500000D02*
X202000000Y-157500000D01*
X192000000Y-156000000D02*
X192000000Y-157500000D01*
X262000000Y-156000000D02*
X262000000Y-157500000D01*
X262000000Y-157500000D02*
X252000000Y-157500000D01*
X245500000Y-135000000D02*
G75*
G03*
X245500000Y-135000000I-1500000J0D01*
G01*
X211500000Y-135000000D02*
G75*
G03*
X211500000Y-135000000I-1500000J0D01*
G01*
X245500000Y-100000000D02*
G75*
G03*
X245500000Y-100000000I-1500000J0D01*
G01*
X211500000Y-100000000D02*
G75*
G03*
X211500000Y-100000000I-1500000J0D01*
G01*
X192000000Y-156000000D02*
X192000000Y-124000000D01*
X249000000Y-124000000D02*
X262000000Y-124000000D01*
X249000000Y-98000000D02*
X262000000Y-98000000D01*
X238000000Y-68000000D02*
X216000000Y-68000000D01*
X212000000Y-66000000D02*
X216000000Y-68000000D01*
X242000000Y-66000000D02*
X238000000Y-68000000D01*
X249000000Y-124000000D02*
G75*
G02*
X247000000Y-122000000I0J2000000D01*
G01*
X247000000Y-100000000D02*
G75*
G02*
X249000000Y-98000000I2000000J0D01*
G01*
X205000000Y-98000000D02*
G75*
G02*
X207000000Y-100000000I0J-2000000D01*
G01*
X262000000Y-156000000D02*
X262000000Y-124000000D01*
X207000000Y-122000000D02*
G75*
G02*
X205000000Y-124000000I-2000000J0D01*
G01*
X207000000Y-100000000D02*
X207000000Y-122000000D01*
X212000000Y-66000000D02*
X192000000Y-86000000D01*
X192000000Y-98000000D02*
X192000000Y-86000000D01*
X205000000Y-124000000D02*
X192000000Y-124000000D01*
X262000000Y-86000000D02*
X242000000Y-66000000D01*
X205000000Y-98000000D02*
X192000000Y-98000000D01*
X247000000Y-122000000D02*
X247000000Y-100000000D01*
X262000000Y-98000000D02*
X262000000Y-86000000D01*
M02*
