%TF.GenerationSoftware,KiCad,Pcbnew,(5.1.6)-1*%
%TF.CreationDate,2022-04-30T17:28:47+09:00*%
%TF.ProjectId,RX621,52583632-312e-46b6-9963-61645f706362,rev?*%
%TF.SameCoordinates,Original*%
%TF.FileFunction,Soldermask,Bot*%
%TF.FilePolarity,Negative*%
%FSLAX46Y46*%
G04 Gerber Fmt 4.6, Leading zero omitted, Abs format (unit mm)*
G04 Created by KiCad (PCBNEW (5.1.6)-1) date 2022-04-30 17:28:47*
%MOMM*%
%LPD*%
G01*
G04 APERTURE LIST*
%ADD10R,1.800000X1.800000*%
%ADD11O,1.800000X1.800000*%
%ADD12C,1.900000*%
%ADD13C,0.100000*%
%ADD14C,1.292000*%
%ADD15C,0.850000*%
G04 APERTURE END LIST*
D10*
%TO.C,BAT1*%
X198000000Y-146500000D03*
D11*
X198000000Y-143960000D03*
%TD*%
%TO.C,CN1*%
X230080000Y-88500000D03*
X227540000Y-88500000D03*
D10*
X225000000Y-88500000D03*
%TD*%
%TO.C,ENC_L1*%
X215000000Y-123000000D03*
D11*
X217540000Y-123000000D03*
X220080000Y-123000000D03*
X222620000Y-123000000D03*
%TD*%
%TO.C,ENC_R1*%
X231880000Y-123000000D03*
X234420000Y-123000000D03*
X236960000Y-123000000D03*
D10*
X239500000Y-123000000D03*
%TD*%
%TO.C,G1*%
X223500000Y-73750000D03*
D11*
X223500000Y-76290000D03*
X223500000Y-78830000D03*
X223500000Y-81370000D03*
X223500000Y-83910000D03*
%TD*%
%TO.C,G2*%
X231100000Y-74090000D03*
X231100000Y-76630000D03*
X231100000Y-79170000D03*
X231100000Y-81710000D03*
D10*
X231100000Y-84250000D03*
%TD*%
D12*
%TO.C,IR1*%
X204501412Y-93558934D03*
D13*
G36*
X201229398Y-95100533D02*
G01*
X200899467Y-93229398D01*
X202770602Y-92899467D01*
X203100533Y-94770602D01*
X201229398Y-95100533D01*
G37*
%TD*%
%TO.C,IR2*%
G36*
X216770602Y-82100533D02*
G01*
X214899467Y-81770602D01*
X215229398Y-79899467D01*
X217100533Y-80229398D01*
X216770602Y-82100533D01*
G37*
D12*
X216441066Y-78498588D03*
%TD*%
%TO.C,IR3*%
X237558934Y-78498588D03*
D13*
G36*
X239100533Y-81770602D02*
G01*
X237229398Y-82100533D01*
X236899467Y-80229398D01*
X238770602Y-79899467D01*
X239100533Y-81770602D01*
G37*
%TD*%
%TO.C,IR4*%
G36*
X253100533Y-93229398D02*
G01*
X252770602Y-95100533D01*
X250899467Y-94770602D01*
X251229398Y-92899467D01*
X253100533Y-93229398D01*
G37*
D12*
X249498588Y-93558934D03*
%TD*%
D11*
%TO.C,M_L1*%
X237040000Y-135000000D03*
D10*
X234500000Y-135000000D03*
%TD*%
%TO.C,M_R1*%
X217500000Y-135000000D03*
D11*
X220040000Y-135000000D03*
%TD*%
D10*
%TO.C,MD1*%
X245094000Y-140334000D03*
D11*
X245094000Y-142874000D03*
X245094000Y-145414000D03*
X245094000Y-147954000D03*
X245094000Y-150494000D03*
X245094000Y-153034000D03*
%TD*%
%TO.C,MD2*%
X260334000Y-140334000D03*
X260334000Y-142874000D03*
X260334000Y-145414000D03*
X260334000Y-147954000D03*
X260334000Y-150494000D03*
D10*
X260334000Y-153034000D03*
%TD*%
D14*
%TO.C,S1*%
X195000000Y-93000000D03*
X197501412Y-92558934D03*
%TD*%
%TO.C,S2*%
X215441066Y-71498588D03*
X215000000Y-74000000D03*
%TD*%
%TO.C,S3*%
X239000000Y-74000000D03*
X238558934Y-71498588D03*
%TD*%
%TO.C,S4*%
X256498588Y-92558934D03*
X259000000Y-93000000D03*
%TD*%
D10*
%TO.C,SW1*%
X255000000Y-135000000D03*
D11*
X252460000Y-135000000D03*
X249920000Y-135000000D03*
%TD*%
D15*
%TO.C,SW3*%
X227500000Y-155100000D03*
X227500000Y-156900000D03*
%TD*%
D10*
%TO.C,SW4*%
X199000000Y-150500000D03*
D11*
X196460000Y-150500000D03*
X193920000Y-150500000D03*
%TD*%
M02*
