%TF.GenerationSoftware,KiCad,Pcbnew,(5.1.6)-1*%
%TF.CreationDate,2022-04-30T17:28:47+09:00*%
%TF.ProjectId,RX621,52583632-312e-46b6-9963-61645f706362,rev?*%
%TF.SameCoordinates,Original*%
%TF.FileFunction,Paste,Top*%
%TF.FilePolarity,Positive*%
%FSLAX46Y46*%
G04 Gerber Fmt 4.6, Leading zero omitted, Abs format (unit mm)*
G04 Created by KiCad (PCBNEW (5.1.6)-1) date 2022-04-30 17:28:47*
%MOMM*%
%LPD*%
G01*
G04 APERTURE LIST*
%ADD10R,1.475000X0.300000*%
%ADD11R,0.300000X1.475000*%
%ADD12R,2.000000X2.500000*%
%ADD13R,6.000000X6.000000*%
%ADD14R,0.600000X1.350000*%
%ADD15R,1.050000X1.600000*%
%ADD16R,1.000000X0.600000*%
%ADD17R,2.200000X1.300000*%
%ADD18R,1.900000X0.400000*%
G04 APERTURE END LIST*
%TO.C,R10*%
G36*
G01*
X232550000Y-146549999D02*
X232550000Y-147450001D01*
G75*
G02*
X232300001Y-147700000I-249999J0D01*
G01*
X231649999Y-147700000D01*
G75*
G02*
X231400000Y-147450001I0J249999D01*
G01*
X231400000Y-146549999D01*
G75*
G02*
X231649999Y-146300000I249999J0D01*
G01*
X232300001Y-146300000D01*
G75*
G02*
X232550000Y-146549999I0J-249999D01*
G01*
G37*
G36*
G01*
X234600000Y-146549999D02*
X234600000Y-147450001D01*
G75*
G02*
X234350001Y-147700000I-249999J0D01*
G01*
X233699999Y-147700000D01*
G75*
G02*
X233450000Y-147450001I0J249999D01*
G01*
X233450000Y-146549999D01*
G75*
G02*
X233699999Y-146300000I249999J0D01*
G01*
X234350001Y-146300000D01*
G75*
G02*
X234600000Y-146549999I0J-249999D01*
G01*
G37*
%TD*%
%TO.C,C1*%
G36*
G01*
X216400000Y-139950001D02*
X216400000Y-139049999D01*
G75*
G02*
X216649999Y-138800000I249999J0D01*
G01*
X217300001Y-138800000D01*
G75*
G02*
X217550000Y-139049999I0J-249999D01*
G01*
X217550000Y-139950001D01*
G75*
G02*
X217300001Y-140200000I-249999J0D01*
G01*
X216649999Y-140200000D01*
G75*
G02*
X216400000Y-139950001I0J249999D01*
G01*
G37*
G36*
G01*
X218450000Y-139950001D02*
X218450000Y-139049999D01*
G75*
G02*
X218699999Y-138800000I249999J0D01*
G01*
X219350001Y-138800000D01*
G75*
G02*
X219600000Y-139049999I0J-249999D01*
G01*
X219600000Y-139950001D01*
G75*
G02*
X219350001Y-140200000I-249999J0D01*
G01*
X218699999Y-140200000D01*
G75*
G02*
X218450000Y-139950001I0J249999D01*
G01*
G37*
%TD*%
%TO.C,C2*%
G36*
G01*
X209049999Y-147450000D02*
X209950001Y-147450000D01*
G75*
G02*
X210200000Y-147699999I0J-249999D01*
G01*
X210200000Y-148350001D01*
G75*
G02*
X209950001Y-148600000I-249999J0D01*
G01*
X209049999Y-148600000D01*
G75*
G02*
X208800000Y-148350001I0J249999D01*
G01*
X208800000Y-147699999D01*
G75*
G02*
X209049999Y-147450000I249999J0D01*
G01*
G37*
G36*
G01*
X209049999Y-145400000D02*
X209950001Y-145400000D01*
G75*
G02*
X210200000Y-145649999I0J-249999D01*
G01*
X210200000Y-146300001D01*
G75*
G02*
X209950001Y-146550000I-249999J0D01*
G01*
X209049999Y-146550000D01*
G75*
G02*
X208800000Y-146300001I0J249999D01*
G01*
X208800000Y-145649999D01*
G75*
G02*
X209049999Y-145400000I249999J0D01*
G01*
G37*
%TD*%
%TO.C,C3*%
G36*
G01*
X231950001Y-145600000D02*
X231049999Y-145600000D01*
G75*
G02*
X230800000Y-145350001I0J249999D01*
G01*
X230800000Y-144699999D01*
G75*
G02*
X231049999Y-144450000I249999J0D01*
G01*
X231950001Y-144450000D01*
G75*
G02*
X232200000Y-144699999I0J-249999D01*
G01*
X232200000Y-145350001D01*
G75*
G02*
X231950001Y-145600000I-249999J0D01*
G01*
G37*
G36*
G01*
X231950001Y-143550000D02*
X231049999Y-143550000D01*
G75*
G02*
X230800000Y-143300001I0J249999D01*
G01*
X230800000Y-142649999D01*
G75*
G02*
X231049999Y-142400000I249999J0D01*
G01*
X231950001Y-142400000D01*
G75*
G02*
X232200000Y-142649999I0J-249999D01*
G01*
X232200000Y-143300001D01*
G75*
G02*
X231950001Y-143550000I-249999J0D01*
G01*
G37*
%TD*%
%TO.C,C4*%
G36*
G01*
X228600000Y-138549999D02*
X228600000Y-139450001D01*
G75*
G02*
X228350001Y-139700000I-249999J0D01*
G01*
X227699999Y-139700000D01*
G75*
G02*
X227450000Y-139450001I0J249999D01*
G01*
X227450000Y-138549999D01*
G75*
G02*
X227699999Y-138300000I249999J0D01*
G01*
X228350001Y-138300000D01*
G75*
G02*
X228600000Y-138549999I0J-249999D01*
G01*
G37*
G36*
G01*
X226550000Y-138549999D02*
X226550000Y-139450001D01*
G75*
G02*
X226300001Y-139700000I-249999J0D01*
G01*
X225649999Y-139700000D01*
G75*
G02*
X225400000Y-139450001I0J249999D01*
G01*
X225400000Y-138549999D01*
G75*
G02*
X225649999Y-138300000I249999J0D01*
G01*
X226300001Y-138300000D01*
G75*
G02*
X226550000Y-138549999I0J-249999D01*
G01*
G37*
%TD*%
%TO.C,C5*%
G36*
G01*
X222950001Y-143550000D02*
X222049999Y-143550000D01*
G75*
G02*
X221800000Y-143300001I0J249999D01*
G01*
X221800000Y-142649999D01*
G75*
G02*
X222049999Y-142400000I249999J0D01*
G01*
X222950001Y-142400000D01*
G75*
G02*
X223200000Y-142649999I0J-249999D01*
G01*
X223200000Y-143300001D01*
G75*
G02*
X222950001Y-143550000I-249999J0D01*
G01*
G37*
G36*
G01*
X222950001Y-145600000D02*
X222049999Y-145600000D01*
G75*
G02*
X221800000Y-145350001I0J249999D01*
G01*
X221800000Y-144699999D01*
G75*
G02*
X222049999Y-144450000I249999J0D01*
G01*
X222950001Y-144450000D01*
G75*
G02*
X223200000Y-144699999I0J-249999D01*
G01*
X223200000Y-145350001D01*
G75*
G02*
X222950001Y-145600000I-249999J0D01*
G01*
G37*
%TD*%
%TO.C,C6*%
G36*
G01*
X219400000Y-119950001D02*
X219400000Y-119049999D01*
G75*
G02*
X219649999Y-118800000I249999J0D01*
G01*
X220300001Y-118800000D01*
G75*
G02*
X220550000Y-119049999I0J-249999D01*
G01*
X220550000Y-119950001D01*
G75*
G02*
X220300001Y-120200000I-249999J0D01*
G01*
X219649999Y-120200000D01*
G75*
G02*
X219400000Y-119950001I0J249999D01*
G01*
G37*
G36*
G01*
X221450000Y-119950001D02*
X221450000Y-119049999D01*
G75*
G02*
X221699999Y-118800000I249999J0D01*
G01*
X222350001Y-118800000D01*
G75*
G02*
X222600000Y-119049999I0J-249999D01*
G01*
X222600000Y-119950001D01*
G75*
G02*
X222350001Y-120200000I-249999J0D01*
G01*
X221699999Y-120200000D01*
G75*
G02*
X221450000Y-119950001I0J249999D01*
G01*
G37*
%TD*%
%TO.C,C7*%
G36*
G01*
X202950001Y-146050000D02*
X202049999Y-146050000D01*
G75*
G02*
X201800000Y-145800001I0J249999D01*
G01*
X201800000Y-145149999D01*
G75*
G02*
X202049999Y-144900000I249999J0D01*
G01*
X202950001Y-144900000D01*
G75*
G02*
X203200000Y-145149999I0J-249999D01*
G01*
X203200000Y-145800001D01*
G75*
G02*
X202950001Y-146050000I-249999J0D01*
G01*
G37*
G36*
G01*
X202950001Y-148100000D02*
X202049999Y-148100000D01*
G75*
G02*
X201800000Y-147850001I0J249999D01*
G01*
X201800000Y-147199999D01*
G75*
G02*
X202049999Y-146950000I249999J0D01*
G01*
X202950001Y-146950000D01*
G75*
G02*
X203200000Y-147199999I0J-249999D01*
G01*
X203200000Y-147850001D01*
G75*
G02*
X202950001Y-148100000I-249999J0D01*
G01*
G37*
%TD*%
%TO.C,C8*%
G36*
G01*
X215550000Y-119049999D02*
X215550000Y-119950001D01*
G75*
G02*
X215300001Y-120200000I-249999J0D01*
G01*
X214649999Y-120200000D01*
G75*
G02*
X214400000Y-119950001I0J249999D01*
G01*
X214400000Y-119049999D01*
G75*
G02*
X214649999Y-118800000I249999J0D01*
G01*
X215300001Y-118800000D01*
G75*
G02*
X215550000Y-119049999I0J-249999D01*
G01*
G37*
G36*
G01*
X217600000Y-119049999D02*
X217600000Y-119950001D01*
G75*
G02*
X217350001Y-120200000I-249999J0D01*
G01*
X216699999Y-120200000D01*
G75*
G02*
X216450000Y-119950001I0J249999D01*
G01*
X216450000Y-119049999D01*
G75*
G02*
X216699999Y-118800000I249999J0D01*
G01*
X217350001Y-118800000D01*
G75*
G02*
X217600000Y-119049999I0J-249999D01*
G01*
G37*
%TD*%
%TO.C,C9*%
G36*
G01*
X214917999Y-107332000D02*
X215818001Y-107332000D01*
G75*
G02*
X216068000Y-107581999I0J-249999D01*
G01*
X216068000Y-108232001D01*
G75*
G02*
X215818001Y-108482000I-249999J0D01*
G01*
X214917999Y-108482000D01*
G75*
G02*
X214668000Y-108232001I0J249999D01*
G01*
X214668000Y-107581999D01*
G75*
G02*
X214917999Y-107332000I249999J0D01*
G01*
G37*
G36*
G01*
X214917999Y-105282000D02*
X215818001Y-105282000D01*
G75*
G02*
X216068000Y-105531999I0J-249999D01*
G01*
X216068000Y-106182001D01*
G75*
G02*
X215818001Y-106432000I-249999J0D01*
G01*
X214917999Y-106432000D01*
G75*
G02*
X214668000Y-106182001I0J249999D01*
G01*
X214668000Y-105531999D01*
G75*
G02*
X214917999Y-105282000I249999J0D01*
G01*
G37*
%TD*%
%TO.C,C10*%
G36*
G01*
X215818001Y-112546000D02*
X214917999Y-112546000D01*
G75*
G02*
X214668000Y-112296001I0J249999D01*
G01*
X214668000Y-111645999D01*
G75*
G02*
X214917999Y-111396000I249999J0D01*
G01*
X215818001Y-111396000D01*
G75*
G02*
X216068000Y-111645999I0J-249999D01*
G01*
X216068000Y-112296001D01*
G75*
G02*
X215818001Y-112546000I-249999J0D01*
G01*
G37*
G36*
G01*
X215818001Y-110496000D02*
X214917999Y-110496000D01*
G75*
G02*
X214668000Y-110246001I0J249999D01*
G01*
X214668000Y-109595999D01*
G75*
G02*
X214917999Y-109346000I249999J0D01*
G01*
X215818001Y-109346000D01*
G75*
G02*
X216068000Y-109595999I0J-249999D01*
G01*
X216068000Y-110246001D01*
G75*
G02*
X215818001Y-110496000I-249999J0D01*
G01*
G37*
%TD*%
%TO.C,C11*%
G36*
G01*
X198550000Y-139549999D02*
X198550000Y-140450001D01*
G75*
G02*
X198300001Y-140700000I-249999J0D01*
G01*
X197649999Y-140700000D01*
G75*
G02*
X197400000Y-140450001I0J249999D01*
G01*
X197400000Y-139549999D01*
G75*
G02*
X197649999Y-139300000I249999J0D01*
G01*
X198300001Y-139300000D01*
G75*
G02*
X198550000Y-139549999I0J-249999D01*
G01*
G37*
G36*
G01*
X200600000Y-139549999D02*
X200600000Y-140450001D01*
G75*
G02*
X200350001Y-140700000I-249999J0D01*
G01*
X199699999Y-140700000D01*
G75*
G02*
X199450000Y-140450001I0J249999D01*
G01*
X199450000Y-139549999D01*
G75*
G02*
X199699999Y-139300000I249999J0D01*
G01*
X200350001Y-139300000D01*
G75*
G02*
X200600000Y-139549999I0J-249999D01*
G01*
G37*
%TD*%
%TO.C,C12*%
G36*
G01*
X201900000Y-140450001D02*
X201900000Y-139549999D01*
G75*
G02*
X202149999Y-139300000I249999J0D01*
G01*
X202800001Y-139300000D01*
G75*
G02*
X203050000Y-139549999I0J-249999D01*
G01*
X203050000Y-140450001D01*
G75*
G02*
X202800001Y-140700000I-249999J0D01*
G01*
X202149999Y-140700000D01*
G75*
G02*
X201900000Y-140450001I0J249999D01*
G01*
G37*
G36*
G01*
X203950000Y-140450001D02*
X203950000Y-139549999D01*
G75*
G02*
X204199999Y-139300000I249999J0D01*
G01*
X204850001Y-139300000D01*
G75*
G02*
X205100000Y-139549999I0J-249999D01*
G01*
X205100000Y-140450001D01*
G75*
G02*
X204850001Y-140700000I-249999J0D01*
G01*
X204199999Y-140700000D01*
G75*
G02*
X203950000Y-140450001I0J249999D01*
G01*
G37*
%TD*%
%TO.C,C13*%
G36*
G01*
X203950000Y-142950001D02*
X203950000Y-142049999D01*
G75*
G02*
X204199999Y-141800000I249999J0D01*
G01*
X204850001Y-141800000D01*
G75*
G02*
X205100000Y-142049999I0J-249999D01*
G01*
X205100000Y-142950001D01*
G75*
G02*
X204850001Y-143200000I-249999J0D01*
G01*
X204199999Y-143200000D01*
G75*
G02*
X203950000Y-142950001I0J249999D01*
G01*
G37*
G36*
G01*
X201900000Y-142950001D02*
X201900000Y-142049999D01*
G75*
G02*
X202149999Y-141800000I249999J0D01*
G01*
X202800001Y-141800000D01*
G75*
G02*
X203050000Y-142049999I0J-249999D01*
G01*
X203050000Y-142950001D01*
G75*
G02*
X202800001Y-143200000I-249999J0D01*
G01*
X202149999Y-143200000D01*
G75*
G02*
X201900000Y-142950001I0J249999D01*
G01*
G37*
%TD*%
%TO.C,C14*%
G36*
G01*
X223460000Y-98339001D02*
X223460000Y-97438999D01*
G75*
G02*
X223709999Y-97189000I249999J0D01*
G01*
X224360001Y-97189000D01*
G75*
G02*
X224610000Y-97438999I0J-249999D01*
G01*
X224610000Y-98339001D01*
G75*
G02*
X224360001Y-98589000I-249999J0D01*
G01*
X223709999Y-98589000D01*
G75*
G02*
X223460000Y-98339001I0J249999D01*
G01*
G37*
G36*
G01*
X225510000Y-98339001D02*
X225510000Y-97438999D01*
G75*
G02*
X225759999Y-97189000I249999J0D01*
G01*
X226410001Y-97189000D01*
G75*
G02*
X226660000Y-97438999I0J-249999D01*
G01*
X226660000Y-98339001D01*
G75*
G02*
X226410001Y-98589000I-249999J0D01*
G01*
X225759999Y-98589000D01*
G75*
G02*
X225510000Y-98339001I0J249999D01*
G01*
G37*
%TD*%
%TO.C,C15*%
G36*
G01*
X215080000Y-93160001D02*
X215080000Y-92259999D01*
G75*
G02*
X215329999Y-92010000I249999J0D01*
G01*
X215980001Y-92010000D01*
G75*
G02*
X216230000Y-92259999I0J-249999D01*
G01*
X216230000Y-93160001D01*
G75*
G02*
X215980001Y-93410000I-249999J0D01*
G01*
X215329999Y-93410000D01*
G75*
G02*
X215080000Y-93160001I0J249999D01*
G01*
G37*
G36*
G01*
X213030000Y-93160001D02*
X213030000Y-92259999D01*
G75*
G02*
X213279999Y-92010000I249999J0D01*
G01*
X213930001Y-92010000D01*
G75*
G02*
X214180000Y-92259999I0J-249999D01*
G01*
X214180000Y-93160001D01*
G75*
G02*
X213930001Y-93410000I-249999J0D01*
G01*
X213279999Y-93410000D01*
G75*
G02*
X213030000Y-93160001I0J249999D01*
G01*
G37*
%TD*%
%TO.C,C16*%
G36*
G01*
X223190000Y-93160001D02*
X223190000Y-92259999D01*
G75*
G02*
X223439999Y-92010000I249999J0D01*
G01*
X224090001Y-92010000D01*
G75*
G02*
X224340000Y-92259999I0J-249999D01*
G01*
X224340000Y-93160001D01*
G75*
G02*
X224090001Y-93410000I-249999J0D01*
G01*
X223439999Y-93410000D01*
G75*
G02*
X223190000Y-93160001I0J249999D01*
G01*
G37*
G36*
G01*
X225240000Y-93160001D02*
X225240000Y-92259999D01*
G75*
G02*
X225489999Y-92010000I249999J0D01*
G01*
X226140001Y-92010000D01*
G75*
G02*
X226390000Y-92259999I0J-249999D01*
G01*
X226390000Y-93160001D01*
G75*
G02*
X226140001Y-93410000I-249999J0D01*
G01*
X225489999Y-93410000D01*
G75*
G02*
X225240000Y-93160001I0J249999D01*
G01*
G37*
%TD*%
%TO.C,C17*%
G36*
G01*
X229050000Y-93160001D02*
X229050000Y-92259999D01*
G75*
G02*
X229299999Y-92010000I249999J0D01*
G01*
X229950001Y-92010000D01*
G75*
G02*
X230200000Y-92259999I0J-249999D01*
G01*
X230200000Y-93160001D01*
G75*
G02*
X229950001Y-93410000I-249999J0D01*
G01*
X229299999Y-93410000D01*
G75*
G02*
X229050000Y-93160001I0J249999D01*
G01*
G37*
G36*
G01*
X227000000Y-93160001D02*
X227000000Y-92259999D01*
G75*
G02*
X227249999Y-92010000I249999J0D01*
G01*
X227900001Y-92010000D01*
G75*
G02*
X228150000Y-92259999I0J-249999D01*
G01*
X228150000Y-93160001D01*
G75*
G02*
X227900001Y-93410000I-249999J0D01*
G01*
X227249999Y-93410000D01*
G75*
G02*
X227000000Y-93160001I0J249999D01*
G01*
G37*
%TD*%
%TO.C,C18*%
G36*
G01*
X234620000Y-93160001D02*
X234620000Y-92259999D01*
G75*
G02*
X234869999Y-92010000I249999J0D01*
G01*
X235520001Y-92010000D01*
G75*
G02*
X235770000Y-92259999I0J-249999D01*
G01*
X235770000Y-93160001D01*
G75*
G02*
X235520001Y-93410000I-249999J0D01*
G01*
X234869999Y-93410000D01*
G75*
G02*
X234620000Y-93160001I0J249999D01*
G01*
G37*
G36*
G01*
X236670000Y-93160001D02*
X236670000Y-92259999D01*
G75*
G02*
X236919999Y-92010000I249999J0D01*
G01*
X237570001Y-92010000D01*
G75*
G02*
X237820000Y-92259999I0J-249999D01*
G01*
X237820000Y-93160001D01*
G75*
G02*
X237570001Y-93410000I-249999J0D01*
G01*
X236919999Y-93410000D01*
G75*
G02*
X236670000Y-93160001I0J249999D01*
G01*
G37*
%TD*%
D10*
%TO.C,IC1*%
X224262000Y-104000000D03*
X224262000Y-104500000D03*
X224262000Y-105000000D03*
X224262000Y-105500000D03*
X224262000Y-106000000D03*
X224262000Y-106500000D03*
X224262000Y-107000000D03*
X224262000Y-107500000D03*
X224262000Y-108000000D03*
X224262000Y-108500000D03*
X224262000Y-109000000D03*
X224262000Y-109500000D03*
X224262000Y-110000000D03*
X224262000Y-110500000D03*
X224262000Y-111000000D03*
X224262000Y-111500000D03*
X224262000Y-112000000D03*
X224262000Y-112500000D03*
X224262000Y-113000000D03*
X224262000Y-113500000D03*
X224262000Y-114000000D03*
X224262000Y-114500000D03*
X224262000Y-115000000D03*
X224262000Y-115500000D03*
X224262000Y-116000000D03*
D11*
X226000000Y-117738000D03*
X226500000Y-117738000D03*
X227000000Y-117738000D03*
X227500000Y-117738000D03*
X228000000Y-117738000D03*
X228500000Y-117738000D03*
X229000000Y-117738000D03*
X229500000Y-117738000D03*
X230000000Y-117738000D03*
X230500000Y-117738000D03*
X231000000Y-117738000D03*
X231500000Y-117738000D03*
X232000000Y-117738000D03*
X232500000Y-117738000D03*
X233000000Y-117738000D03*
X233500000Y-117738000D03*
X234000000Y-117738000D03*
X234500000Y-117738000D03*
X235000000Y-117738000D03*
X235500000Y-117738000D03*
X236000000Y-117738000D03*
X236500000Y-117738000D03*
X237000000Y-117738000D03*
X237500000Y-117738000D03*
X238000000Y-117738000D03*
D10*
X239738000Y-116000000D03*
X239738000Y-115500000D03*
X239738000Y-115000000D03*
X239738000Y-114500000D03*
X239738000Y-114000000D03*
X239738000Y-113500000D03*
X239738000Y-113000000D03*
X239738000Y-112500000D03*
X239738000Y-112000000D03*
X239738000Y-111500000D03*
X239738000Y-111000000D03*
X239738000Y-110500000D03*
X239738000Y-110000000D03*
X239738000Y-109500000D03*
X239738000Y-109000000D03*
X239738000Y-108500000D03*
X239738000Y-108000000D03*
X239738000Y-107500000D03*
X239738000Y-107000000D03*
X239738000Y-106500000D03*
X239738000Y-106000000D03*
X239738000Y-105500000D03*
X239738000Y-105000000D03*
X239738000Y-104500000D03*
X239738000Y-104000000D03*
D11*
X238000000Y-102262000D03*
X237500000Y-102262000D03*
X237000000Y-102262000D03*
X236500000Y-102262000D03*
X236000000Y-102262000D03*
X235500000Y-102262000D03*
X235000000Y-102262000D03*
X234500000Y-102262000D03*
X234000000Y-102262000D03*
X233500000Y-102262000D03*
X233000000Y-102262000D03*
X232500000Y-102262000D03*
X232000000Y-102262000D03*
X231500000Y-102262000D03*
X231000000Y-102262000D03*
X230500000Y-102262000D03*
X230000000Y-102262000D03*
X229500000Y-102262000D03*
X229000000Y-102262000D03*
X228500000Y-102262000D03*
X228000000Y-102262000D03*
X227500000Y-102262000D03*
X227000000Y-102262000D03*
X226500000Y-102262000D03*
X226000000Y-102262000D03*
%TD*%
D12*
%TO.C,IC2*%
X199200000Y-136055000D03*
D13*
X201500000Y-129805000D03*
D12*
X203800000Y-136055000D03*
%TD*%
D14*
%TO.C,IC3*%
X227950000Y-142800000D03*
X227000000Y-142800000D03*
X226050000Y-142800000D03*
X226050000Y-145200000D03*
X227950000Y-145200000D03*
%TD*%
%TO.C,L1*%
G36*
G01*
X195400000Y-156950001D02*
X195400000Y-156049999D01*
G75*
G02*
X195649999Y-155800000I249999J0D01*
G01*
X196300001Y-155800000D01*
G75*
G02*
X196550000Y-156049999I0J-249999D01*
G01*
X196550000Y-156950001D01*
G75*
G02*
X196300001Y-157200000I-249999J0D01*
G01*
X195649999Y-157200000D01*
G75*
G02*
X195400000Y-156950001I0J249999D01*
G01*
G37*
G36*
G01*
X197450000Y-156950001D02*
X197450000Y-156049999D01*
G75*
G02*
X197699999Y-155800000I249999J0D01*
G01*
X198350001Y-155800000D01*
G75*
G02*
X198600000Y-156049999I0J-249999D01*
G01*
X198600000Y-156950001D01*
G75*
G02*
X198350001Y-157200000I-249999J0D01*
G01*
X197699999Y-157200000D01*
G75*
G02*
X197450000Y-156950001I0J249999D01*
G01*
G37*
%TD*%
%TO.C,L2*%
G36*
G01*
X210450000Y-156950001D02*
X210450000Y-156049999D01*
G75*
G02*
X210699999Y-155800000I249999J0D01*
G01*
X211350001Y-155800000D01*
G75*
G02*
X211600000Y-156049999I0J-249999D01*
G01*
X211600000Y-156950001D01*
G75*
G02*
X211350001Y-157200000I-249999J0D01*
G01*
X210699999Y-157200000D01*
G75*
G02*
X210450000Y-156950001I0J249999D01*
G01*
G37*
G36*
G01*
X208400000Y-156950001D02*
X208400000Y-156049999D01*
G75*
G02*
X208649999Y-155800000I249999J0D01*
G01*
X209300001Y-155800000D01*
G75*
G02*
X209550000Y-156049999I0J-249999D01*
G01*
X209550000Y-156950001D01*
G75*
G02*
X209300001Y-157200000I-249999J0D01*
G01*
X208649999Y-157200000D01*
G75*
G02*
X208400000Y-156950001I0J249999D01*
G01*
G37*
%TD*%
%TO.C,L3*%
G36*
G01*
X242425000Y-156950001D02*
X242425000Y-156049999D01*
G75*
G02*
X242674999Y-155800000I249999J0D01*
G01*
X243325001Y-155800000D01*
G75*
G02*
X243575000Y-156049999I0J-249999D01*
G01*
X243575000Y-156950001D01*
G75*
G02*
X243325001Y-157200000I-249999J0D01*
G01*
X242674999Y-157200000D01*
G75*
G02*
X242425000Y-156950001I0J249999D01*
G01*
G37*
G36*
G01*
X244475000Y-156950001D02*
X244475000Y-156049999D01*
G75*
G02*
X244724999Y-155800000I249999J0D01*
G01*
X245375001Y-155800000D01*
G75*
G02*
X245625000Y-156049999I0J-249999D01*
G01*
X245625000Y-156950001D01*
G75*
G02*
X245375001Y-157200000I-249999J0D01*
G01*
X244724999Y-157200000D01*
G75*
G02*
X244475000Y-156950001I0J249999D01*
G01*
G37*
%TD*%
%TO.C,L4*%
G36*
G01*
X255050000Y-156049999D02*
X255050000Y-156950001D01*
G75*
G02*
X254800001Y-157200000I-249999J0D01*
G01*
X254149999Y-157200000D01*
G75*
G02*
X253900000Y-156950001I0J249999D01*
G01*
X253900000Y-156049999D01*
G75*
G02*
X254149999Y-155800000I249999J0D01*
G01*
X254800001Y-155800000D01*
G75*
G02*
X255050000Y-156049999I0J-249999D01*
G01*
G37*
G36*
G01*
X257100000Y-156049999D02*
X257100000Y-156950001D01*
G75*
G02*
X256850001Y-157200000I-249999J0D01*
G01*
X256199999Y-157200000D01*
G75*
G02*
X255950000Y-156950001I0J249999D01*
G01*
X255950000Y-156049999D01*
G75*
G02*
X256199999Y-155800000I249999J0D01*
G01*
X256850001Y-155800000D01*
G75*
G02*
X257100000Y-156049999I0J-249999D01*
G01*
G37*
%TD*%
%TO.C,R1*%
G36*
G01*
X220950000Y-88950001D02*
X220950000Y-88049999D01*
G75*
G02*
X221199999Y-87800000I249999J0D01*
G01*
X221850001Y-87800000D01*
G75*
G02*
X222100000Y-88049999I0J-249999D01*
G01*
X222100000Y-88950001D01*
G75*
G02*
X221850001Y-89200000I-249999J0D01*
G01*
X221199999Y-89200000D01*
G75*
G02*
X220950000Y-88950001I0J249999D01*
G01*
G37*
G36*
G01*
X218900000Y-88950001D02*
X218900000Y-88049999D01*
G75*
G02*
X219149999Y-87800000I249999J0D01*
G01*
X219800001Y-87800000D01*
G75*
G02*
X220050000Y-88049999I0J-249999D01*
G01*
X220050000Y-88950001D01*
G75*
G02*
X219800001Y-89200000I-249999J0D01*
G01*
X219149999Y-89200000D01*
G75*
G02*
X218900000Y-88950001I0J249999D01*
G01*
G37*
%TD*%
%TO.C,R2*%
G36*
G01*
X233550000Y-88049999D02*
X233550000Y-88950001D01*
G75*
G02*
X233300001Y-89200000I-249999J0D01*
G01*
X232649999Y-89200000D01*
G75*
G02*
X232400000Y-88950001I0J249999D01*
G01*
X232400000Y-88049999D01*
G75*
G02*
X232649999Y-87800000I249999J0D01*
G01*
X233300001Y-87800000D01*
G75*
G02*
X233550000Y-88049999I0J-249999D01*
G01*
G37*
G36*
G01*
X235600000Y-88049999D02*
X235600000Y-88950001D01*
G75*
G02*
X235350001Y-89200000I-249999J0D01*
G01*
X234699999Y-89200000D01*
G75*
G02*
X234450000Y-88950001I0J249999D01*
G01*
X234450000Y-88049999D01*
G75*
G02*
X234699999Y-87800000I249999J0D01*
G01*
X235350001Y-87800000D01*
G75*
G02*
X235600000Y-88049999I0J-249999D01*
G01*
G37*
%TD*%
%TO.C,R3*%
G36*
G01*
X215950001Y-117100000D02*
X215049999Y-117100000D01*
G75*
G02*
X214800000Y-116850001I0J249999D01*
G01*
X214800000Y-116199999D01*
G75*
G02*
X215049999Y-115950000I249999J0D01*
G01*
X215950001Y-115950000D01*
G75*
G02*
X216200000Y-116199999I0J-249999D01*
G01*
X216200000Y-116850001D01*
G75*
G02*
X215950001Y-117100000I-249999J0D01*
G01*
G37*
G36*
G01*
X215950001Y-115050000D02*
X215049999Y-115050000D01*
G75*
G02*
X214800000Y-114800001I0J249999D01*
G01*
X214800000Y-114149999D01*
G75*
G02*
X215049999Y-113900000I249999J0D01*
G01*
X215950001Y-113900000D01*
G75*
G02*
X216200000Y-114149999I0J-249999D01*
G01*
X216200000Y-114800001D01*
G75*
G02*
X215950001Y-115050000I-249999J0D01*
G01*
G37*
%TD*%
%TO.C,R4*%
G36*
G01*
X221413000Y-102240999D02*
X221413000Y-103141001D01*
G75*
G02*
X221163001Y-103391000I-249999J0D01*
G01*
X220512999Y-103391000D01*
G75*
G02*
X220263000Y-103141001I0J249999D01*
G01*
X220263000Y-102240999D01*
G75*
G02*
X220512999Y-101991000I249999J0D01*
G01*
X221163001Y-101991000D01*
G75*
G02*
X221413000Y-102240999I0J-249999D01*
G01*
G37*
G36*
G01*
X219363000Y-102240999D02*
X219363000Y-103141001D01*
G75*
G02*
X219113001Y-103391000I-249999J0D01*
G01*
X218462999Y-103391000D01*
G75*
G02*
X218213000Y-103141001I0J249999D01*
G01*
X218213000Y-102240999D01*
G75*
G02*
X218462999Y-101991000I249999J0D01*
G01*
X219113001Y-101991000D01*
G75*
G02*
X219363000Y-102240999I0J-249999D01*
G01*
G37*
%TD*%
%TO.C,R5*%
G36*
G01*
X216968000Y-102240999D02*
X216968000Y-103141001D01*
G75*
G02*
X216718001Y-103391000I-249999J0D01*
G01*
X216067999Y-103391000D01*
G75*
G02*
X215818000Y-103141001I0J249999D01*
G01*
X215818000Y-102240999D01*
G75*
G02*
X216067999Y-101991000I249999J0D01*
G01*
X216718001Y-101991000D01*
G75*
G02*
X216968000Y-102240999I0J-249999D01*
G01*
G37*
G36*
G01*
X214918000Y-102240999D02*
X214918000Y-103141001D01*
G75*
G02*
X214668001Y-103391000I-249999J0D01*
G01*
X214017999Y-103391000D01*
G75*
G02*
X213768000Y-103141001I0J249999D01*
G01*
X213768000Y-102240999D01*
G75*
G02*
X214017999Y-101991000I249999J0D01*
G01*
X214668001Y-101991000D01*
G75*
G02*
X214918000Y-102240999I0J-249999D01*
G01*
G37*
%TD*%
%TO.C,R6*%
G36*
G01*
X227950000Y-151950001D02*
X227950000Y-151049999D01*
G75*
G02*
X228199999Y-150800000I249999J0D01*
G01*
X228850001Y-150800000D01*
G75*
G02*
X229100000Y-151049999I0J-249999D01*
G01*
X229100000Y-151950001D01*
G75*
G02*
X228850001Y-152200000I-249999J0D01*
G01*
X228199999Y-152200000D01*
G75*
G02*
X227950000Y-151950001I0J249999D01*
G01*
G37*
G36*
G01*
X225900000Y-151950001D02*
X225900000Y-151049999D01*
G75*
G02*
X226149999Y-150800000I249999J0D01*
G01*
X226800001Y-150800000D01*
G75*
G02*
X227050000Y-151049999I0J-249999D01*
G01*
X227050000Y-151950001D01*
G75*
G02*
X226800001Y-152200000I-249999J0D01*
G01*
X226149999Y-152200000D01*
G75*
G02*
X225900000Y-151950001I0J249999D01*
G01*
G37*
%TD*%
%TO.C,R7*%
G36*
G01*
X201400000Y-151950001D02*
X201400000Y-151049999D01*
G75*
G02*
X201649999Y-150800000I249999J0D01*
G01*
X202300001Y-150800000D01*
G75*
G02*
X202550000Y-151049999I0J-249999D01*
G01*
X202550000Y-151950001D01*
G75*
G02*
X202300001Y-152200000I-249999J0D01*
G01*
X201649999Y-152200000D01*
G75*
G02*
X201400000Y-151950001I0J249999D01*
G01*
G37*
G36*
G01*
X203450000Y-151950001D02*
X203450000Y-151049999D01*
G75*
G02*
X203699999Y-150800000I249999J0D01*
G01*
X204350001Y-150800000D01*
G75*
G02*
X204600000Y-151049999I0J-249999D01*
G01*
X204600000Y-151950001D01*
G75*
G02*
X204350001Y-152200000I-249999J0D01*
G01*
X203699999Y-152200000D01*
G75*
G02*
X203450000Y-151950001I0J249999D01*
G01*
G37*
%TD*%
%TO.C,R8*%
G36*
G01*
X210450000Y-151950001D02*
X210450000Y-151049999D01*
G75*
G02*
X210699999Y-150800000I249999J0D01*
G01*
X211350001Y-150800000D01*
G75*
G02*
X211600000Y-151049999I0J-249999D01*
G01*
X211600000Y-151950001D01*
G75*
G02*
X211350001Y-152200000I-249999J0D01*
G01*
X210699999Y-152200000D01*
G75*
G02*
X210450000Y-151950001I0J249999D01*
G01*
G37*
G36*
G01*
X208400000Y-151950001D02*
X208400000Y-151049999D01*
G75*
G02*
X208649999Y-150800000I249999J0D01*
G01*
X209300001Y-150800000D01*
G75*
G02*
X209550000Y-151049999I0J-249999D01*
G01*
X209550000Y-151950001D01*
G75*
G02*
X209300001Y-152200000I-249999J0D01*
G01*
X208649999Y-152200000D01*
G75*
G02*
X208400000Y-151950001I0J249999D01*
G01*
G37*
%TD*%
%TO.C,R9*%
G36*
G01*
X231400000Y-151950001D02*
X231400000Y-151049999D01*
G75*
G02*
X231649999Y-150800000I249999J0D01*
G01*
X232300001Y-150800000D01*
G75*
G02*
X232550000Y-151049999I0J-249999D01*
G01*
X232550000Y-151950001D01*
G75*
G02*
X232300001Y-152200000I-249999J0D01*
G01*
X231649999Y-152200000D01*
G75*
G02*
X231400000Y-151950001I0J249999D01*
G01*
G37*
G36*
G01*
X233450000Y-151950001D02*
X233450000Y-151049999D01*
G75*
G02*
X233699999Y-150800000I249999J0D01*
G01*
X234350001Y-150800000D01*
G75*
G02*
X234600000Y-151049999I0J-249999D01*
G01*
X234600000Y-151950001D01*
G75*
G02*
X234350001Y-152200000I-249999J0D01*
G01*
X233699999Y-152200000D01*
G75*
G02*
X233450000Y-151950001I0J249999D01*
G01*
G37*
%TD*%
%TO.C,R11*%
G36*
G01*
X207705000Y-89350001D02*
X207705000Y-88449999D01*
G75*
G02*
X207954999Y-88200000I249999J0D01*
G01*
X208605001Y-88200000D01*
G75*
G02*
X208855000Y-88449999I0J-249999D01*
G01*
X208855000Y-89350001D01*
G75*
G02*
X208605001Y-89600000I-249999J0D01*
G01*
X207954999Y-89600000D01*
G75*
G02*
X207705000Y-89350001I0J249999D01*
G01*
G37*
G36*
G01*
X209755000Y-89350001D02*
X209755000Y-88449999D01*
G75*
G02*
X210004999Y-88200000I249999J0D01*
G01*
X210655001Y-88200000D01*
G75*
G02*
X210905000Y-88449999I0J-249999D01*
G01*
X210905000Y-89350001D01*
G75*
G02*
X210655001Y-89600000I-249999J0D01*
G01*
X210004999Y-89600000D01*
G75*
G02*
X209755000Y-89350001I0J249999D01*
G01*
G37*
%TD*%
%TO.C,R12*%
G36*
G01*
X209755000Y-85540001D02*
X209755000Y-84639999D01*
G75*
G02*
X210004999Y-84390000I249999J0D01*
G01*
X210655001Y-84390000D01*
G75*
G02*
X210905000Y-84639999I0J-249999D01*
G01*
X210905000Y-85540001D01*
G75*
G02*
X210655001Y-85790000I-249999J0D01*
G01*
X210004999Y-85790000D01*
G75*
G02*
X209755000Y-85540001I0J249999D01*
G01*
G37*
G36*
G01*
X207705000Y-85540001D02*
X207705000Y-84639999D01*
G75*
G02*
X207954999Y-84390000I249999J0D01*
G01*
X208605001Y-84390000D01*
G75*
G02*
X208855000Y-84639999I0J-249999D01*
G01*
X208855000Y-85540001D01*
G75*
G02*
X208605001Y-85790000I-249999J0D01*
G01*
X207954999Y-85790000D01*
G75*
G02*
X207705000Y-85540001I0J249999D01*
G01*
G37*
%TD*%
%TO.C,R13*%
G36*
G01*
X244660000Y-84639999D02*
X244660000Y-85540001D01*
G75*
G02*
X244410001Y-85790000I-249999J0D01*
G01*
X243759999Y-85790000D01*
G75*
G02*
X243510000Y-85540001I0J249999D01*
G01*
X243510000Y-84639999D01*
G75*
G02*
X243759999Y-84390000I249999J0D01*
G01*
X244410001Y-84390000D01*
G75*
G02*
X244660000Y-84639999I0J-249999D01*
G01*
G37*
G36*
G01*
X246710000Y-84639999D02*
X246710000Y-85540001D01*
G75*
G02*
X246460001Y-85790000I-249999J0D01*
G01*
X245809999Y-85790000D01*
G75*
G02*
X245560000Y-85540001I0J249999D01*
G01*
X245560000Y-84639999D01*
G75*
G02*
X245809999Y-84390000I249999J0D01*
G01*
X246460001Y-84390000D01*
G75*
G02*
X246710000Y-84639999I0J-249999D01*
G01*
G37*
%TD*%
%TO.C,R14*%
G36*
G01*
X246710000Y-88449999D02*
X246710000Y-89350001D01*
G75*
G02*
X246460001Y-89600000I-249999J0D01*
G01*
X245809999Y-89600000D01*
G75*
G02*
X245560000Y-89350001I0J249999D01*
G01*
X245560000Y-88449999D01*
G75*
G02*
X245809999Y-88200000I249999J0D01*
G01*
X246460001Y-88200000D01*
G75*
G02*
X246710000Y-88449999I0J-249999D01*
G01*
G37*
G36*
G01*
X244660000Y-88449999D02*
X244660000Y-89350001D01*
G75*
G02*
X244410001Y-89600000I-249999J0D01*
G01*
X243759999Y-89600000D01*
G75*
G02*
X243510000Y-89350001I0J249999D01*
G01*
X243510000Y-88449999D01*
G75*
G02*
X243759999Y-88200000I249999J0D01*
G01*
X244410001Y-88200000D01*
G75*
G02*
X244660000Y-88449999I0J-249999D01*
G01*
G37*
%TD*%
%TO.C,R15*%
G36*
G01*
X210000000Y-93160001D02*
X210000000Y-92259999D01*
G75*
G02*
X210249999Y-92010000I249999J0D01*
G01*
X210900001Y-92010000D01*
G75*
G02*
X211150000Y-92259999I0J-249999D01*
G01*
X211150000Y-93160001D01*
G75*
G02*
X210900001Y-93410000I-249999J0D01*
G01*
X210249999Y-93410000D01*
G75*
G02*
X210000000Y-93160001I0J249999D01*
G01*
G37*
G36*
G01*
X207950000Y-93160001D02*
X207950000Y-92259999D01*
G75*
G02*
X208199999Y-92010000I249999J0D01*
G01*
X208850001Y-92010000D01*
G75*
G02*
X209100000Y-92259999I0J-249999D01*
G01*
X209100000Y-93160001D01*
G75*
G02*
X208850001Y-93410000I-249999J0D01*
G01*
X208199999Y-93410000D01*
G75*
G02*
X207950000Y-93160001I0J249999D01*
G01*
G37*
%TD*%
%TO.C,R16*%
G36*
G01*
X207950000Y-95700001D02*
X207950000Y-94799999D01*
G75*
G02*
X208199999Y-94550000I249999J0D01*
G01*
X208850001Y-94550000D01*
G75*
G02*
X209100000Y-94799999I0J-249999D01*
G01*
X209100000Y-95700001D01*
G75*
G02*
X208850001Y-95950000I-249999J0D01*
G01*
X208199999Y-95950000D01*
G75*
G02*
X207950000Y-95700001I0J249999D01*
G01*
G37*
G36*
G01*
X210000000Y-95700001D02*
X210000000Y-94799999D01*
G75*
G02*
X210249999Y-94550000I249999J0D01*
G01*
X210900001Y-94550000D01*
G75*
G02*
X211150000Y-94799999I0J-249999D01*
G01*
X211150000Y-95700001D01*
G75*
G02*
X210900001Y-95950000I-249999J0D01*
G01*
X210249999Y-95950000D01*
G75*
G02*
X210000000Y-95700001I0J249999D01*
G01*
G37*
%TD*%
%TO.C,R17*%
G36*
G01*
X219915000Y-93160001D02*
X219915000Y-92259999D01*
G75*
G02*
X220164999Y-92010000I249999J0D01*
G01*
X220815001Y-92010000D01*
G75*
G02*
X221065000Y-92259999I0J-249999D01*
G01*
X221065000Y-93160001D01*
G75*
G02*
X220815001Y-93410000I-249999J0D01*
G01*
X220164999Y-93410000D01*
G75*
G02*
X219915000Y-93160001I0J249999D01*
G01*
G37*
G36*
G01*
X217865000Y-93160001D02*
X217865000Y-92259999D01*
G75*
G02*
X218114999Y-92010000I249999J0D01*
G01*
X218765001Y-92010000D01*
G75*
G02*
X219015000Y-92259999I0J-249999D01*
G01*
X219015000Y-93160001D01*
G75*
G02*
X218765001Y-93410000I-249999J0D01*
G01*
X218114999Y-93410000D01*
G75*
G02*
X217865000Y-93160001I0J249999D01*
G01*
G37*
%TD*%
%TO.C,R18*%
G36*
G01*
X218110000Y-95700001D02*
X218110000Y-94799999D01*
G75*
G02*
X218359999Y-94550000I249999J0D01*
G01*
X219010001Y-94550000D01*
G75*
G02*
X219260000Y-94799999I0J-249999D01*
G01*
X219260000Y-95700001D01*
G75*
G02*
X219010001Y-95950000I-249999J0D01*
G01*
X218359999Y-95950000D01*
G75*
G02*
X218110000Y-95700001I0J249999D01*
G01*
G37*
G36*
G01*
X220160000Y-95700001D02*
X220160000Y-94799999D01*
G75*
G02*
X220409999Y-94550000I249999J0D01*
G01*
X221060001Y-94550000D01*
G75*
G02*
X221310000Y-94799999I0J-249999D01*
G01*
X221310000Y-95700001D01*
G75*
G02*
X221060001Y-95950000I-249999J0D01*
G01*
X220409999Y-95950000D01*
G75*
G02*
X220160000Y-95700001I0J249999D01*
G01*
G37*
%TD*%
%TO.C,R19*%
G36*
G01*
X232860000Y-93160001D02*
X232860000Y-92259999D01*
G75*
G02*
X233109999Y-92010000I249999J0D01*
G01*
X233760001Y-92010000D01*
G75*
G02*
X234010000Y-92259999I0J-249999D01*
G01*
X234010000Y-93160001D01*
G75*
G02*
X233760001Y-93410000I-249999J0D01*
G01*
X233109999Y-93410000D01*
G75*
G02*
X232860000Y-93160001I0J249999D01*
G01*
G37*
G36*
G01*
X230810000Y-93160001D02*
X230810000Y-92259999D01*
G75*
G02*
X231059999Y-92010000I249999J0D01*
G01*
X231710001Y-92010000D01*
G75*
G02*
X231960000Y-92259999I0J-249999D01*
G01*
X231960000Y-93160001D01*
G75*
G02*
X231710001Y-93410000I-249999J0D01*
G01*
X231059999Y-93410000D01*
G75*
G02*
X230810000Y-93160001I0J249999D01*
G01*
G37*
%TD*%
%TO.C,R20*%
G36*
G01*
X230565000Y-95700001D02*
X230565000Y-94799999D01*
G75*
G02*
X230814999Y-94550000I249999J0D01*
G01*
X231465001Y-94550000D01*
G75*
G02*
X231715000Y-94799999I0J-249999D01*
G01*
X231715000Y-95700001D01*
G75*
G02*
X231465001Y-95950000I-249999J0D01*
G01*
X230814999Y-95950000D01*
G75*
G02*
X230565000Y-95700001I0J249999D01*
G01*
G37*
G36*
G01*
X232615000Y-95700001D02*
X232615000Y-94799999D01*
G75*
G02*
X232864999Y-94550000I249999J0D01*
G01*
X233515001Y-94550000D01*
G75*
G02*
X233765000Y-94799999I0J-249999D01*
G01*
X233765000Y-95700001D01*
G75*
G02*
X233515001Y-95950000I-249999J0D01*
G01*
X232864999Y-95950000D01*
G75*
G02*
X232615000Y-95700001I0J249999D01*
G01*
G37*
%TD*%
%TO.C,R21*%
G36*
G01*
X239700000Y-93160001D02*
X239700000Y-92259999D01*
G75*
G02*
X239949999Y-92010000I249999J0D01*
G01*
X240600001Y-92010000D01*
G75*
G02*
X240850000Y-92259999I0J-249999D01*
G01*
X240850000Y-93160001D01*
G75*
G02*
X240600001Y-93410000I-249999J0D01*
G01*
X239949999Y-93410000D01*
G75*
G02*
X239700000Y-93160001I0J249999D01*
G01*
G37*
G36*
G01*
X241750000Y-93160001D02*
X241750000Y-92259999D01*
G75*
G02*
X241999999Y-92010000I249999J0D01*
G01*
X242650001Y-92010000D01*
G75*
G02*
X242900000Y-92259999I0J-249999D01*
G01*
X242900000Y-93160001D01*
G75*
G02*
X242650001Y-93410000I-249999J0D01*
G01*
X241999999Y-93410000D01*
G75*
G02*
X241750000Y-93160001I0J249999D01*
G01*
G37*
%TD*%
%TO.C,R22*%
G36*
G01*
X241505000Y-95700001D02*
X241505000Y-94799999D01*
G75*
G02*
X241754999Y-94550000I249999J0D01*
G01*
X242405001Y-94550000D01*
G75*
G02*
X242655000Y-94799999I0J-249999D01*
G01*
X242655000Y-95700001D01*
G75*
G02*
X242405001Y-95950000I-249999J0D01*
G01*
X241754999Y-95950000D01*
G75*
G02*
X241505000Y-95700001I0J249999D01*
G01*
G37*
G36*
G01*
X239455000Y-95700001D02*
X239455000Y-94799999D01*
G75*
G02*
X239704999Y-94550000I249999J0D01*
G01*
X240355001Y-94550000D01*
G75*
G02*
X240605000Y-94799999I0J-249999D01*
G01*
X240605000Y-95700001D01*
G75*
G02*
X240355001Y-95950000I-249999J0D01*
G01*
X239704999Y-95950000D01*
G75*
G02*
X239455000Y-95700001I0J249999D01*
G01*
G37*
%TD*%
%TO.C,R23*%
G36*
G01*
X215818000Y-100093001D02*
X215818000Y-99192999D01*
G75*
G02*
X216067999Y-98943000I249999J0D01*
G01*
X216718001Y-98943000D01*
G75*
G02*
X216968000Y-99192999I0J-249999D01*
G01*
X216968000Y-100093001D01*
G75*
G02*
X216718001Y-100343000I-249999J0D01*
G01*
X216067999Y-100343000D01*
G75*
G02*
X215818000Y-100093001I0J249999D01*
G01*
G37*
G36*
G01*
X213768000Y-100093001D02*
X213768000Y-99192999D01*
G75*
G02*
X214017999Y-98943000I249999J0D01*
G01*
X214668001Y-98943000D01*
G75*
G02*
X214918000Y-99192999I0J-249999D01*
G01*
X214918000Y-100093001D01*
G75*
G02*
X214668001Y-100343000I-249999J0D01*
G01*
X214017999Y-100343000D01*
G75*
G02*
X213768000Y-100093001I0J249999D01*
G01*
G37*
%TD*%
%TO.C,R24*%
G36*
G01*
X223460000Y-96307001D02*
X223460000Y-95406999D01*
G75*
G02*
X223709999Y-95157000I249999J0D01*
G01*
X224360001Y-95157000D01*
G75*
G02*
X224610000Y-95406999I0J-249999D01*
G01*
X224610000Y-96307001D01*
G75*
G02*
X224360001Y-96557000I-249999J0D01*
G01*
X223709999Y-96557000D01*
G75*
G02*
X223460000Y-96307001I0J249999D01*
G01*
G37*
G36*
G01*
X225510000Y-96307001D02*
X225510000Y-95406999D01*
G75*
G02*
X225759999Y-95157000I249999J0D01*
G01*
X226410001Y-95157000D01*
G75*
G02*
X226660000Y-95406999I0J-249999D01*
G01*
X226660000Y-96307001D01*
G75*
G02*
X226410001Y-96557000I-249999J0D01*
G01*
X225759999Y-96557000D01*
G75*
G02*
X225510000Y-96307001I0J249999D01*
G01*
G37*
%TD*%
D15*
%TO.C,SW3*%
X225275000Y-156000000D03*
X229725000Y-156000000D03*
%TD*%
D16*
%TO.C,TR1*%
X214510000Y-89850000D03*
X214510000Y-87950000D03*
X212210000Y-88900000D03*
%TD*%
%TO.C,TR2*%
X212210000Y-85090000D03*
X214510000Y-84140000D03*
X214510000Y-86040000D03*
%TD*%
%TO.C,TR3*%
X242450000Y-85090000D03*
X240150000Y-86040000D03*
X240150000Y-84140000D03*
%TD*%
%TO.C,TR4*%
X240150000Y-87950000D03*
X240150000Y-89850000D03*
X242450000Y-88900000D03*
%TD*%
D17*
%TO.C,X1*%
X219559000Y-106814000D03*
X219559000Y-111014000D03*
%TD*%
D18*
%TO.C,X2*%
X219559000Y-114191000D03*
X219559000Y-115391000D03*
X219559000Y-116591000D03*
%TD*%
M02*
