%TF.GenerationSoftware,KiCad,Pcbnew,(5.1.6)-1*%
%TF.CreationDate,2022-04-30T17:28:47+09:00*%
%TF.ProjectId,RX621,52583632-312e-46b6-9963-61645f706362,rev?*%
%TF.SameCoordinates,Original*%
%TF.FileFunction,Legend,Top*%
%TF.FilePolarity,Positive*%
%FSLAX46Y46*%
G04 Gerber Fmt 4.6, Leading zero omitted, Abs format (unit mm)*
G04 Created by KiCad (PCBNEW (5.1.6)-1) date 2022-04-30 17:28:47*
%MOMM*%
%LPD*%
G01*
G04 APERTURE LIST*
%ADD10C,2.000000*%
%ADD11C,0.500000*%
%ADD12C,0.120000*%
%ADD13C,0.250000*%
%ADD14C,0.200000*%
%ADD15C,0.100000*%
%ADD16C,0.254000*%
G04 APERTURE END LIST*
D10*
X195000000Y-127500000D02*
X195000000Y-125500000D01*
X259000000Y-154500000D02*
X259000000Y-125500000D01*
X195000000Y-154500000D02*
X195000000Y-127500000D01*
X242000000Y-154500000D02*
X259000000Y-154500000D01*
X239000000Y-153000000D02*
X242000000Y-154500000D01*
X215000000Y-153000000D02*
X239000000Y-153000000D01*
X212000000Y-154500000D02*
X215000000Y-153000000D01*
X195000000Y-154500000D02*
X212000000Y-154500000D01*
D11*
X254000000Y-131500000D02*
X255500000Y-131500000D01*
X253500000Y-129500000D02*
X253500000Y-131000000D01*
X254000000Y-129000000D02*
X255500000Y-129000000D01*
X256000000Y-127000000D02*
X256000000Y-128500000D01*
X254000000Y-126500000D02*
X255500000Y-126500000D01*
X250500000Y-131500000D02*
X252000000Y-131500000D01*
X252500000Y-129500000D02*
X252500000Y-131000000D01*
X250000000Y-129500000D02*
X250000000Y-131000000D01*
X250500000Y-126500000D02*
X252000000Y-126500000D01*
X252500000Y-128500000D02*
X252500000Y-127000000D01*
X250000000Y-127000000D02*
X250000000Y-128500000D01*
D10*
X241000000Y-69000000D02*
X238000000Y-71000000D01*
X259000000Y-87000000D02*
X241000000Y-69000000D01*
X259000000Y-87000000D02*
X259000000Y-97000000D01*
X216000000Y-71000000D02*
X238000000Y-71000000D01*
X213000000Y-69000000D02*
X216000000Y-71000000D01*
X195000000Y-87000000D02*
X213000000Y-69000000D01*
X195000000Y-97000000D02*
X195000000Y-87000000D01*
D12*
%TO.C,R10*%
X233261252Y-147710000D02*
X232738748Y-147710000D01*
X233261252Y-146290000D02*
X232738748Y-146290000D01*
%TO.C,BAT1*%
X199330000Y-147830000D02*
X198000000Y-147830000D01*
X199330000Y-146500000D02*
X199330000Y-147830000D01*
X199330000Y-145230000D02*
X196670000Y-145230000D01*
X196670000Y-145230000D02*
X196670000Y-142630000D01*
X199330000Y-145230000D02*
X199330000Y-142630000D01*
X199330000Y-142630000D02*
X196670000Y-142630000D01*
%TO.C,C1*%
X217738748Y-140210000D02*
X218261252Y-140210000D01*
X217738748Y-138790000D02*
X218261252Y-138790000D01*
%TO.C,C2*%
X210210000Y-146738748D02*
X210210000Y-147261252D01*
X208790000Y-146738748D02*
X208790000Y-147261252D01*
%TO.C,C3*%
X232210000Y-144261252D02*
X232210000Y-143738748D01*
X230790000Y-144261252D02*
X230790000Y-143738748D01*
%TO.C,C4*%
X227261252Y-138290000D02*
X226738748Y-138290000D01*
X227261252Y-139710000D02*
X226738748Y-139710000D01*
%TO.C,C5*%
X221790000Y-144261252D02*
X221790000Y-143738748D01*
X223210000Y-144261252D02*
X223210000Y-143738748D01*
%TO.C,C6*%
X220738748Y-120210000D02*
X221261252Y-120210000D01*
X220738748Y-118790000D02*
X221261252Y-118790000D01*
%TO.C,C7*%
X201790000Y-146761252D02*
X201790000Y-146238748D01*
X203210000Y-146761252D02*
X203210000Y-146238748D01*
%TO.C,C8*%
X216261252Y-120210000D02*
X215738748Y-120210000D01*
X216261252Y-118790000D02*
X215738748Y-118790000D01*
%TO.C,C9*%
X216078000Y-106620748D02*
X216078000Y-107143252D01*
X214658000Y-106620748D02*
X214658000Y-107143252D01*
%TO.C,C10*%
X216078000Y-111207252D02*
X216078000Y-110684748D01*
X214658000Y-111207252D02*
X214658000Y-110684748D01*
%TO.C,C11*%
X199261252Y-140710000D02*
X198738748Y-140710000D01*
X199261252Y-139290000D02*
X198738748Y-139290000D01*
%TO.C,C12*%
X203238748Y-140710000D02*
X203761252Y-140710000D01*
X203238748Y-139290000D02*
X203761252Y-139290000D01*
%TO.C,C13*%
X203238748Y-141790000D02*
X203761252Y-141790000D01*
X203238748Y-143210000D02*
X203761252Y-143210000D01*
%TO.C,C14*%
X224798748Y-98599000D02*
X225321252Y-98599000D01*
X224798748Y-97179000D02*
X225321252Y-97179000D01*
%TO.C,C15*%
X214368748Y-92000000D02*
X214891252Y-92000000D01*
X214368748Y-93420000D02*
X214891252Y-93420000D01*
%TO.C,C16*%
X224528748Y-93420000D02*
X225051252Y-93420000D01*
X224528748Y-92000000D02*
X225051252Y-92000000D01*
%TO.C,C17*%
X228338748Y-92000000D02*
X228861252Y-92000000D01*
X228338748Y-93420000D02*
X228861252Y-93420000D01*
%TO.C,C18*%
X235958748Y-93420000D02*
X236481252Y-93420000D01*
X235958748Y-92000000D02*
X236481252Y-92000000D01*
%TO.C,CN1*%
X231410000Y-89830000D02*
X231410000Y-87170000D01*
X226270000Y-89830000D02*
X231410000Y-89830000D01*
X226270000Y-87170000D02*
X231410000Y-87170000D01*
X226270000Y-89830000D02*
X226270000Y-87170000D01*
X225000000Y-89830000D02*
X223670000Y-89830000D01*
X223670000Y-89830000D02*
X223670000Y-88500000D01*
%TO.C,ENC_L1*%
X213670000Y-124330000D02*
X213670000Y-123000000D01*
X215000000Y-124330000D02*
X213670000Y-124330000D01*
X216270000Y-124330000D02*
X216270000Y-121670000D01*
X216270000Y-121670000D02*
X223950000Y-121670000D01*
X216270000Y-124330000D02*
X223950000Y-124330000D01*
X223950000Y-124330000D02*
X223950000Y-121670000D01*
%TO.C,ENC_R1*%
X230550000Y-121670000D02*
X230550000Y-124330000D01*
X238230000Y-121670000D02*
X230550000Y-121670000D01*
X238230000Y-124330000D02*
X230550000Y-124330000D01*
X238230000Y-121670000D02*
X238230000Y-124330000D01*
X239500000Y-121670000D02*
X240830000Y-121670000D01*
X240830000Y-121670000D02*
X240830000Y-123000000D01*
%TO.C,G1*%
X222170000Y-72420000D02*
X223500000Y-72420000D01*
X222170000Y-73750000D02*
X222170000Y-72420000D01*
X222170000Y-75020000D02*
X224830000Y-75020000D01*
X224830000Y-75020000D02*
X224830000Y-85240000D01*
X222170000Y-75020000D02*
X222170000Y-85240000D01*
X222170000Y-85240000D02*
X224830000Y-85240000D01*
%TO.C,G2*%
X232430000Y-72760000D02*
X229770000Y-72760000D01*
X232430000Y-82980000D02*
X232430000Y-72760000D01*
X229770000Y-82980000D02*
X229770000Y-72760000D01*
X232430000Y-82980000D02*
X229770000Y-82980000D01*
X232430000Y-84250000D02*
X232430000Y-85580000D01*
X232430000Y-85580000D02*
X231100000Y-85580000D01*
D13*
%TO.C,IC1*%
X223900000Y-103250000D02*
G75*
G03*
X223900000Y-103250000I-125000J0D01*
G01*
D14*
X225350000Y-116650000D02*
X225350000Y-103350000D01*
X238650000Y-116650000D02*
X225350000Y-116650000D01*
X238650000Y-103350000D02*
X238650000Y-116650000D01*
X225350000Y-103350000D02*
X238650000Y-103350000D01*
D15*
%TO.C,IC2*%
X199200000Y-137600000D02*
X199200000Y-137600000D01*
X199200000Y-137700000D02*
X199200000Y-137700000D01*
D14*
X204770000Y-133985000D02*
X204770000Y-133200000D01*
X198230000Y-133985000D02*
X204770000Y-133985000D01*
X198230000Y-133200000D02*
X198230000Y-133985000D01*
D15*
X199200000Y-137600000D02*
G75*
G02*
X199200000Y-137700000I0J-50000D01*
G01*
X199200000Y-137700000D02*
G75*
G02*
X199200000Y-137600000I0J50000D01*
G01*
D14*
%TO.C,IC3*%
X228500000Y-142125000D02*
X228500000Y-143475000D01*
X225550000Y-143825000D02*
X228450000Y-143825000D01*
X225550000Y-144175000D02*
X225550000Y-143825000D01*
X228450000Y-144175000D02*
X225550000Y-144175000D01*
X228450000Y-143825000D02*
X228450000Y-144175000D01*
D12*
%TO.C,IR1*%
X205750706Y-93779467D02*
G75*
G03*
X205750706Y-93779467I-2500000J0D01*
G01*
X200461312Y-92702478D02*
X200997884Y-95745534D01*
X206195201Y-93259804D02*
G75*
G02*
X200997855Y-95745367I-2944495J-519663D01*
G01*
X206195361Y-93260713D02*
G75*
G03*
X200461341Y-92702646I-2944655J-518754D01*
G01*
%TO.C,IR2*%
X214254466Y-82002116D02*
X217297522Y-82538688D01*
X218720533Y-79749294D02*
G75*
G03*
X218720533Y-79749294I-2500000J0D01*
G01*
X216740196Y-76804799D02*
G75*
G03*
X214254633Y-82002145I-519663J-2944495D01*
G01*
X216739287Y-76804639D02*
G75*
G02*
X217297354Y-82538659I-518754J-2944655D01*
G01*
%TO.C,IR3*%
X240279467Y-79749294D02*
G75*
G03*
X240279467Y-79749294I-2500000J0D01*
G01*
X236702478Y-82538688D02*
X239745534Y-82002116D01*
X237259804Y-76804799D02*
G75*
G02*
X239745367Y-82002145I519663J-2944495D01*
G01*
X237260713Y-76804639D02*
G75*
G03*
X236702646Y-82538659I518754J-2944655D01*
G01*
%TO.C,IR4*%
X253002116Y-95745534D02*
X253538688Y-92702478D01*
X253249294Y-93779467D02*
G75*
G03*
X253249294Y-93779467I-2500000J0D01*
G01*
X247804799Y-93259804D02*
G75*
G03*
X253002145Y-95745367I2944495J-519663D01*
G01*
X247804639Y-93260713D02*
G75*
G02*
X253538659Y-92702646I2944655J-518754D01*
G01*
%TO.C,L1*%
X195140000Y-157460000D02*
X198000000Y-157460000D01*
X195140000Y-155540000D02*
X195140000Y-157460000D01*
X198000000Y-155540000D02*
X195140000Y-155540000D01*
%TO.C,L2*%
X211000000Y-155540000D02*
X208140000Y-155540000D01*
X208140000Y-155540000D02*
X208140000Y-157460000D01*
X208140000Y-157460000D02*
X211000000Y-157460000D01*
%TO.C,L3*%
X242165000Y-157460000D02*
X245025000Y-157460000D01*
X242165000Y-155540000D02*
X242165000Y-157460000D01*
X245025000Y-155540000D02*
X242165000Y-155540000D01*
%TO.C,L4*%
X254500000Y-157460000D02*
X257360000Y-157460000D01*
X257360000Y-157460000D02*
X257360000Y-155540000D01*
X257360000Y-155540000D02*
X254500000Y-155540000D01*
%TO.C,M_L1*%
X238370000Y-136330000D02*
X238370000Y-133670000D01*
X235770000Y-136330000D02*
X238370000Y-136330000D01*
X235770000Y-133670000D02*
X238370000Y-133670000D01*
X235770000Y-136330000D02*
X235770000Y-133670000D01*
X234500000Y-136330000D02*
X233170000Y-136330000D01*
X233170000Y-136330000D02*
X233170000Y-135000000D01*
%TO.C,M_R1*%
X216170000Y-136330000D02*
X216170000Y-135000000D01*
X217500000Y-136330000D02*
X216170000Y-136330000D01*
X218770000Y-136330000D02*
X218770000Y-133670000D01*
X218770000Y-133670000D02*
X221370000Y-133670000D01*
X218770000Y-136330000D02*
X221370000Y-136330000D01*
X221370000Y-136330000D02*
X221370000Y-133670000D01*
%TO.C,MD1*%
X243764000Y-139004000D02*
X245094000Y-139004000D01*
X243764000Y-140334000D02*
X243764000Y-139004000D01*
X243764000Y-141604000D02*
X246424000Y-141604000D01*
X246424000Y-141604000D02*
X246424000Y-154364000D01*
X243764000Y-141604000D02*
X243764000Y-154364000D01*
X243764000Y-154364000D02*
X246424000Y-154364000D01*
%TO.C,MD2*%
X261664000Y-139004000D02*
X259004000Y-139004000D01*
X261664000Y-151764000D02*
X261664000Y-139004000D01*
X259004000Y-151764000D02*
X259004000Y-139004000D01*
X261664000Y-151764000D02*
X259004000Y-151764000D01*
X261664000Y-153034000D02*
X261664000Y-154364000D01*
X261664000Y-154364000D02*
X260334000Y-154364000D01*
%TO.C,R1*%
X220238748Y-87790000D02*
X220761252Y-87790000D01*
X220238748Y-89210000D02*
X220761252Y-89210000D01*
%TO.C,R2*%
X234261252Y-89210000D02*
X233738748Y-89210000D01*
X234261252Y-87790000D02*
X233738748Y-87790000D01*
%TO.C,R3*%
X216210000Y-115761252D02*
X216210000Y-115238748D01*
X214790000Y-115761252D02*
X214790000Y-115238748D01*
%TO.C,R4*%
X220074252Y-101981000D02*
X219551748Y-101981000D01*
X220074252Y-103401000D02*
X219551748Y-103401000D01*
%TO.C,R5*%
X215629252Y-101981000D02*
X215106748Y-101981000D01*
X215629252Y-103401000D02*
X215106748Y-103401000D01*
%TO.C,R6*%
X227238748Y-150790000D02*
X227761252Y-150790000D01*
X227238748Y-152210000D02*
X227761252Y-152210000D01*
%TO.C,R7*%
X202738748Y-152210000D02*
X203261252Y-152210000D01*
X202738748Y-150790000D02*
X203261252Y-150790000D01*
%TO.C,R8*%
X209738748Y-150790000D02*
X210261252Y-150790000D01*
X209738748Y-152210000D02*
X210261252Y-152210000D01*
%TO.C,R9*%
X232738748Y-152210000D02*
X233261252Y-152210000D01*
X232738748Y-150790000D02*
X233261252Y-150790000D01*
%TO.C,R11*%
X209043748Y-89610000D02*
X209566252Y-89610000D01*
X209043748Y-88190000D02*
X209566252Y-88190000D01*
%TO.C,R12*%
X209043748Y-84380000D02*
X209566252Y-84380000D01*
X209043748Y-85800000D02*
X209566252Y-85800000D01*
%TO.C,R13*%
X245371252Y-85800000D02*
X244848748Y-85800000D01*
X245371252Y-84380000D02*
X244848748Y-84380000D01*
%TO.C,R14*%
X245371252Y-88190000D02*
X244848748Y-88190000D01*
X245371252Y-89610000D02*
X244848748Y-89610000D01*
%TO.C,R15*%
X209288748Y-92000000D02*
X209811252Y-92000000D01*
X209288748Y-93420000D02*
X209811252Y-93420000D01*
%TO.C,R16*%
X209288748Y-95960000D02*
X209811252Y-95960000D01*
X209288748Y-94540000D02*
X209811252Y-94540000D01*
%TO.C,R17*%
X219203748Y-92000000D02*
X219726252Y-92000000D01*
X219203748Y-93420000D02*
X219726252Y-93420000D01*
%TO.C,R18*%
X219448748Y-95960000D02*
X219971252Y-95960000D01*
X219448748Y-94540000D02*
X219971252Y-94540000D01*
%TO.C,R19*%
X232148748Y-92000000D02*
X232671252Y-92000000D01*
X232148748Y-93420000D02*
X232671252Y-93420000D01*
%TO.C,R20*%
X231903748Y-95960000D02*
X232426252Y-95960000D01*
X231903748Y-94540000D02*
X232426252Y-94540000D01*
%TO.C,R21*%
X241038748Y-93420000D02*
X241561252Y-93420000D01*
X241038748Y-92000000D02*
X241561252Y-92000000D01*
%TO.C,R22*%
X240793748Y-94540000D02*
X241316252Y-94540000D01*
X240793748Y-95960000D02*
X241316252Y-95960000D01*
%TO.C,R23*%
X215106748Y-98933000D02*
X215629252Y-98933000D01*
X215106748Y-100353000D02*
X215629252Y-100353000D01*
%TO.C,R24*%
X224798748Y-96567000D02*
X225321252Y-96567000D01*
X224798748Y-95147000D02*
X225321252Y-95147000D01*
D14*
%TO.C,S1*%
X192931904Y-93364661D02*
X192931904Y-93364661D01*
X193030384Y-93347296D02*
X193030384Y-93347296D01*
X192931904Y-93364661D02*
X192931904Y-93364661D01*
X198909687Y-92310617D02*
X198909687Y-92310617D01*
X193591725Y-93248317D02*
X193591725Y-93248317D01*
X198909687Y-92310617D02*
G75*
G02*
X193591725Y-93248317I-2658981J-468850D01*
G01*
X193591725Y-93248317D02*
G75*
G02*
X198909687Y-92310617I2658981J468850D01*
G01*
X193030384Y-93347297D02*
G75*
G02*
X192931904Y-93364661I-49240J-8682D01*
G01*
X192931904Y-93364662D02*
G75*
G02*
X193030384Y-93347296I49240J8683D01*
G01*
X193030384Y-93347297D02*
G75*
G02*
X192931904Y-93364661I-49240J-8682D01*
G01*
%TO.C,S2*%
X214751683Y-75408275D02*
X214751683Y-75408275D01*
X215689383Y-70090313D02*
X215689383Y-70090313D01*
X214635339Y-76068096D02*
X214635339Y-76068096D01*
X214652704Y-75969616D02*
X214652704Y-75969616D01*
X214635339Y-76068096D02*
X214635339Y-76068096D01*
X214652703Y-75969616D02*
G75*
G02*
X214635339Y-76068096I-8682J-49240D01*
G01*
X214635338Y-76068096D02*
G75*
G02*
X214652704Y-75969616I8683J49240D01*
G01*
X214652703Y-75969616D02*
G75*
G02*
X214635339Y-76068096I-8682J-49240D01*
G01*
X214751683Y-75408275D02*
G75*
G02*
X215689383Y-70090313I468850J2658981D01*
G01*
X215689383Y-70090313D02*
G75*
G02*
X214751683Y-75408275I-468850J-2658981D01*
G01*
%TO.C,S3*%
X239364661Y-76068096D02*
X239364661Y-76068096D01*
X239347296Y-75969616D02*
X239347296Y-75969616D01*
X239364661Y-76068096D02*
X239364661Y-76068096D01*
X238310617Y-70090313D02*
X238310617Y-70090313D01*
X239248317Y-75408275D02*
X239248317Y-75408275D01*
X238310617Y-70090313D02*
G75*
G02*
X239248317Y-75408275I468850J-2658981D01*
G01*
X239248317Y-75408275D02*
G75*
G02*
X238310617Y-70090313I-468850J2658981D01*
G01*
X239347297Y-75969616D02*
G75*
G02*
X239364661Y-76068096I8682J-49240D01*
G01*
X239364662Y-76068096D02*
G75*
G02*
X239347296Y-75969616I-8683J49240D01*
G01*
X239347297Y-75969616D02*
G75*
G02*
X239364661Y-76068096I8682J-49240D01*
G01*
%TO.C,S4*%
X260408275Y-93248317D02*
X260408275Y-93248317D01*
X255090313Y-92310617D02*
X255090313Y-92310617D01*
X261068096Y-93364661D02*
X261068096Y-93364661D01*
X260969616Y-93347296D02*
X260969616Y-93347296D01*
X261068096Y-93364661D02*
X261068096Y-93364661D01*
X260969616Y-93347297D02*
G75*
G02*
X261068096Y-93364661I49240J-8682D01*
G01*
X261068096Y-93364662D02*
G75*
G02*
X260969616Y-93347296I-49240J8683D01*
G01*
X260969616Y-93347297D02*
G75*
G02*
X261068096Y-93364661I49240J-8682D01*
G01*
X260408275Y-93248317D02*
G75*
G02*
X255090313Y-92310617I-2658981J468850D01*
G01*
X255090313Y-92310617D02*
G75*
G02*
X260408275Y-93248317I2658981J-468850D01*
G01*
D12*
%TO.C,SW1*%
X256330000Y-133670000D02*
X256330000Y-135000000D01*
X255000000Y-133670000D02*
X256330000Y-133670000D01*
X253730000Y-133670000D02*
X253730000Y-136330000D01*
X253730000Y-136330000D02*
X248590000Y-136330000D01*
X253730000Y-133670000D02*
X248590000Y-133670000D01*
X248590000Y-133670000D02*
X248590000Y-136330000D01*
D14*
%TO.C,SW3*%
X224200000Y-156000000D02*
X224200000Y-156000000D01*
X224300000Y-156000000D02*
X224300000Y-156000000D01*
X224200000Y-156000000D02*
X224200000Y-156000000D01*
X225550000Y-157450000D02*
X226700000Y-157450000D01*
X225550000Y-157200000D02*
X225550000Y-157450000D01*
X229450000Y-157450000D02*
X228300000Y-157450000D01*
X229450000Y-157200000D02*
X229450000Y-157450000D01*
X229450000Y-154550000D02*
X229450000Y-154800000D01*
X228300000Y-154550000D02*
X229450000Y-154550000D01*
X225550000Y-154550000D02*
X226700000Y-154550000D01*
X225550000Y-154800000D02*
X225550000Y-154550000D01*
X224300000Y-156000000D02*
G75*
G02*
X224200000Y-156000000I-50000J0D01*
G01*
X224200000Y-156000000D02*
G75*
G02*
X224300000Y-156000000I50000J0D01*
G01*
X224300000Y-156000000D02*
G75*
G02*
X224200000Y-156000000I-50000J0D01*
G01*
D12*
%TO.C,SW4*%
X200330000Y-149170000D02*
X200330000Y-150500000D01*
X199000000Y-149170000D02*
X200330000Y-149170000D01*
X197730000Y-149170000D02*
X197730000Y-151830000D01*
X197730000Y-151830000D02*
X192590000Y-151830000D01*
X197730000Y-149170000D02*
X192590000Y-149170000D01*
X192590000Y-149170000D02*
X192590000Y-151830000D01*
D14*
%TO.C,TR1*%
X215010000Y-90400000D02*
X214010000Y-90400000D01*
X213660000Y-87450000D02*
X213660000Y-90350000D01*
X213060000Y-87450000D02*
X213660000Y-87450000D01*
X213060000Y-90350000D02*
X213060000Y-87450000D01*
X213660000Y-90350000D02*
X213060000Y-90350000D01*
%TO.C,TR2*%
X213660000Y-86540000D02*
X213060000Y-86540000D01*
X213060000Y-86540000D02*
X213060000Y-83640000D01*
X213060000Y-83640000D02*
X213660000Y-83640000D01*
X213660000Y-83640000D02*
X213660000Y-86540000D01*
X215010000Y-86590000D02*
X214010000Y-86590000D01*
%TO.C,TR3*%
X241000000Y-83640000D02*
X241600000Y-83640000D01*
X241600000Y-83640000D02*
X241600000Y-86540000D01*
X241600000Y-86540000D02*
X241000000Y-86540000D01*
X241000000Y-86540000D02*
X241000000Y-83640000D01*
X239650000Y-83590000D02*
X240650000Y-83590000D01*
%TO.C,TR4*%
X239650000Y-87400000D02*
X240650000Y-87400000D01*
X241000000Y-90350000D02*
X241000000Y-87450000D01*
X241600000Y-90350000D02*
X241000000Y-90350000D01*
X241600000Y-87450000D02*
X241600000Y-90350000D01*
X241000000Y-87450000D02*
X241600000Y-87450000D01*
D15*
%TO.C,X1*%
X218659000Y-107914000D02*
X218659000Y-109914000D01*
X220459000Y-107914000D02*
X220459000Y-109914000D01*
X219459000Y-105714000D02*
X219459000Y-105714000D01*
X219559000Y-105714000D02*
X219559000Y-105714000D01*
X219459000Y-105714000D02*
G75*
G02*
X219559000Y-105714000I50000J0D01*
G01*
X219559000Y-105714000D02*
G75*
G02*
X219459000Y-105714000I-50000J0D01*
G01*
D14*
%TO.C,X2*%
X219559000Y-113291000D02*
X219559000Y-113291000D01*
X219559000Y-113391000D02*
X219559000Y-113391000D01*
X219559000Y-113291000D02*
X219559000Y-113291000D01*
X219559000Y-113391000D02*
G75*
G02*
X219559000Y-113291000I0J50000D01*
G01*
X219559000Y-113291000D02*
G75*
G02*
X219559000Y-113391000I0J-50000D01*
G01*
X219559000Y-113391000D02*
G75*
G02*
X219559000Y-113291000I0J50000D01*
G01*
%TO.C,IC1*%
D16*
X230760238Y-110574523D02*
X230760238Y-109304523D01*
X232090714Y-110453571D02*
X232030238Y-110514047D01*
X231848809Y-110574523D01*
X231727857Y-110574523D01*
X231546428Y-110514047D01*
X231425476Y-110393095D01*
X231365000Y-110272142D01*
X231304523Y-110030238D01*
X231304523Y-109848809D01*
X231365000Y-109606904D01*
X231425476Y-109485952D01*
X231546428Y-109365000D01*
X231727857Y-109304523D01*
X231848809Y-109304523D01*
X232030238Y-109365000D01*
X232090714Y-109425476D01*
X233300238Y-110574523D02*
X232574523Y-110574523D01*
X232937380Y-110574523D02*
X232937380Y-109304523D01*
X232816428Y-109485952D01*
X232695476Y-109606904D01*
X232574523Y-109667380D01*
%TD*%
M02*
