M48
; DRILL file {KiCad (5.1.6)-1} date 04/30/22 17:29:04
; FORMAT={-:-/ absolute / metric / decimal}
; #@! TF.CreationDate,2022-04-30T17:29:04+09:00
; #@! TF.GenerationSoftware,Kicad,Pcbnew,(5.1.6)-1
; #@! TF.FileFunction,Plated,1,2,PTH
FMAT,2
METRIC
T1C0.400
T2C0.650
T3C0.900
T4C1.000
%
G90
G05
T1
X202.5Y-89.0
X206.5Y-89.0
X206.5Y-152.0
X207.0Y-91.5
X207.5Y-125.5
X209.5Y-94.0
X210.5Y-102.5
X212.0Y-91.5
X212.0Y-94.0
X212.0Y-97.5
X212.0Y-132.5
X212.398Y-117.398
X213.5Y-119.5
X214.492Y-95.992
X215.0Y-97.5
X215.0Y-121.5
X215.0Y-141.5
X215.5Y-91.0
X216.0Y-83.5
X216.0Y-104.232
X216.5Y-98.5
X217.0Y-113.0
X217.5Y-104.5
X218.0Y-151.0
X218.5Y-146.0
X219.0Y-103.775
X219.5Y-94.5
X219.5Y-97.0
X219.8Y-86.7
X221.275Y-108.5
X222.023Y-114.025
X222.04Y-101.781
X222.725Y-117.0
X222.753Y-113.343
X223.0Y-98.5
X223.0Y-101.5
X223.5Y-94.5
X225.0Y-91.5
X225.0Y-151.5
X225.5Y-74.5
X225.5Y-105.5
X225.6Y-114.5
X226.0Y-106.5
X226.0Y-107.5
X226.0Y-110.5
X226.5Y-104.0
X226.513Y-120.487
X227.0Y-100.5
X227.0Y-113.0
X227.5Y-126.0
X227.5Y-150.5
X227.513Y-115.013
X228.775Y-124.225
X229.0Y-104.0
X229.275Y-100.5
X229.432Y-94.567
X229.5Y-99.5
X229.5Y-121.5
X229.5Y-123.5
X230.0Y-151.0
X230.05Y-96.95
X231.0Y-133.0
X231.5Y-91.0
X231.5Y-104.5
X231.5Y-114.0
X232.5Y-100.5
X233.0Y-113.5
X233.987Y-100.487
X234.5Y-144.5
X235.0Y-100.5
X235.667Y-131.268
X235.725Y-97.094
X236.0Y-95.5
X236.325Y-88.098
X237.0Y-109.5
X237.0Y-130.5
X237.993Y-85.411
X238.299Y-82.675
X238.494Y-96.519
X238.5Y-144.5
X238.783Y-95.562
X239.0Y-130.5
X240.0Y-102.5
X241.0Y-83.0
X241.0Y-97.0
X241.0Y-110.5
X241.275Y-119.487
X241.737Y-122.237
X241.987Y-114.013
X242.0Y-98.5
X242.5Y-153.0
X243.0Y-122.0
X243.0Y-123.5
X243.15Y-112.625
X244.0Y-123.5
X244.248Y-112.697
X245.5Y-91.5
X246.0Y-136.5
X247.716Y-141.059
X249.275Y-152.0
X250.0Y-153.5
X252.0Y-140.0
T2
X238.559Y-71.499
X239.0Y-74.0
X215.0Y-74.0
X215.441Y-71.499
X256.499Y-92.559
X259.0Y-93.0
X195.0Y-93.0
X197.501Y-92.559
T3
X249.499Y-93.559
X252.0Y-94.0
X202.0Y-94.0
X204.501Y-93.559
X237.559Y-78.499
X238.0Y-81.0
X216.0Y-81.0
X216.441Y-78.499
T4
X234.5Y-135.0
X237.04Y-135.0
X260.334Y-140.334
X260.334Y-142.874
X260.334Y-145.414
X260.334Y-147.954
X260.334Y-150.494
X260.334Y-153.034
X245.094Y-140.334
X245.094Y-142.874
X245.094Y-145.414
X245.094Y-147.954
X245.094Y-150.494
X245.094Y-153.034
X231.88Y-123.0
X234.42Y-123.0
X236.96Y-123.0
X239.5Y-123.0
X198.0Y-143.96
X198.0Y-146.5
X217.5Y-135.0
X220.04Y-135.0
X225.0Y-88.5
X227.54Y-88.5
X230.08Y-88.5
X215.0Y-123.0
X217.54Y-123.0
X220.08Y-123.0
X222.62Y-123.0
X223.5Y-73.75
X223.5Y-76.29
X223.5Y-78.83
X223.5Y-81.37
X223.5Y-83.91
X193.92Y-150.5
X196.46Y-150.5
X199.0Y-150.5
X231.1Y-74.09
X231.1Y-76.63
X231.1Y-79.17
X231.1Y-81.71
X231.1Y-84.25
X249.92Y-135.0
X252.46Y-135.0
X255.0Y-135.0
T0
M30
