%TF.GenerationSoftware,KiCad,Pcbnew,(5.1.6)-1*%
%TF.CreationDate,2023-10-25T23:53:10+09:00*%
%TF.ProjectId,CMouse-3rd-MOD,434d6f75-7365-42d3-9372-642d4d4f442e,rev?*%
%TF.SameCoordinates,Original*%
%TF.FileFunction,Copper,L1,Top*%
%TF.FilePolarity,Positive*%
%FSLAX46Y46*%
G04 Gerber Fmt 4.6, Leading zero omitted, Abs format (unit mm)*
G04 Created by KiCad (PCBNEW (5.1.6)-1) date 2023-10-25 23:53:10*
%MOMM*%
%LPD*%
G01*
G04 APERTURE LIST*
%TA.AperFunction,ComponentPad*%
%ADD10C,0.100000*%
%TD*%
%TA.AperFunction,ComponentPad*%
%ADD11C,1.800000*%
%TD*%
%TA.AperFunction,ComponentPad*%
%ADD12R,1.700000X1.700000*%
%TD*%
%TA.AperFunction,ComponentPad*%
%ADD13O,1.700000X1.700000*%
%TD*%
%TA.AperFunction,ComponentPad*%
%ADD14C,1.192000*%
%TD*%
%TA.AperFunction,SMDPad,CuDef*%
%ADD15R,0.600000X1.000000*%
%TD*%
%TA.AperFunction,ViaPad*%
%ADD16C,0.400000*%
%TD*%
%TA.AperFunction,ViaPad*%
%ADD17C,0.800000*%
%TD*%
%TA.AperFunction,Conductor*%
%ADD18C,0.300000*%
%TD*%
%TA.AperFunction,Conductor*%
%ADD19C,1.000000*%
%TD*%
%TA.AperFunction,Conductor*%
%ADD20C,2.000000*%
%TD*%
G04 APERTURE END LIST*
%TA.AperFunction,ComponentPad*%
D10*
%TO.P,IR5,1*%
%TO.N,Net-(IR5-Pad1)*%
G36*
X109500000Y-117772792D02*
G01*
X108227208Y-116500000D01*
X109500000Y-115227208D01*
X110772792Y-116500000D01*
X109500000Y-117772792D01*
G37*
%TD.AperFunction*%
D11*
%TO.P,IR5,2*%
%TO.N,5v*%
X111296051Y-114703949D03*
%TD*%
%TO.P,IR6,2*%
%TO.N,5v*%
X117203949Y-114703949D03*
%TA.AperFunction,ComponentPad*%
D10*
%TO.P,IR6,1*%
%TO.N,Net-(IR6-Pad1)*%
G36*
X120272792Y-116500000D02*
G01*
X119000000Y-117772792D01*
X117727208Y-116500000D01*
X119000000Y-115227208D01*
X120272792Y-116500000D01*
G37*
%TD.AperFunction*%
%TD*%
D12*
%TO.P,J1,1*%
%TO.N,5v*%
X107000000Y-146000000D03*
D13*
%TO.P,J1,2*%
%TO.N,3.3v*%
X109540000Y-146000000D03*
%TO.P,J1,3*%
%TO.N,AN5*%
X112080000Y-146000000D03*
%TO.P,J1,4*%
%TO.N,AN6*%
X114620000Y-146000000D03*
%TO.P,J1,5*%
%TO.N,PD5*%
X117160000Y-146000000D03*
%TO.P,J1,6*%
%TO.N,PD6*%
X119700000Y-146000000D03*
%TO.P,J1,7*%
%TO.N,GND*%
X122240000Y-146000000D03*
%TD*%
%TO.P,R16,2*%
%TO.N,GND*%
%TA.AperFunction,SMDPad,CuDef*%
G36*
G01*
X112950000Y-141450001D02*
X112950000Y-140549999D01*
G75*
G02*
X113199999Y-140300000I249999J0D01*
G01*
X113850001Y-140300000D01*
G75*
G02*
X114100000Y-140549999I0J-249999D01*
G01*
X114100000Y-141450001D01*
G75*
G02*
X113850001Y-141700000I-249999J0D01*
G01*
X113199999Y-141700000D01*
G75*
G02*
X112950000Y-141450001I0J249999D01*
G01*
G37*
%TD.AperFunction*%
%TO.P,R16,1*%
%TO.N,AN5*%
%TA.AperFunction,SMDPad,CuDef*%
G36*
G01*
X110900000Y-141450001D02*
X110900000Y-140549999D01*
G75*
G02*
X111149999Y-140300000I249999J0D01*
G01*
X111800001Y-140300000D01*
G75*
G02*
X112050000Y-140549999I0J-249999D01*
G01*
X112050000Y-141450001D01*
G75*
G02*
X111800001Y-141700000I-249999J0D01*
G01*
X111149999Y-141700000D01*
G75*
G02*
X110900000Y-141450001I0J249999D01*
G01*
G37*
%TD.AperFunction*%
%TD*%
%TO.P,R17,1*%
%TO.N,AN6*%
%TA.AperFunction,SMDPad,CuDef*%
G36*
G01*
X118100000Y-140549999D02*
X118100000Y-141450001D01*
G75*
G02*
X117850001Y-141700000I-249999J0D01*
G01*
X117199999Y-141700000D01*
G75*
G02*
X116950000Y-141450001I0J249999D01*
G01*
X116950000Y-140549999D01*
G75*
G02*
X117199999Y-140300000I249999J0D01*
G01*
X117850001Y-140300000D01*
G75*
G02*
X118100000Y-140549999I0J-249999D01*
G01*
G37*
%TD.AperFunction*%
%TO.P,R17,2*%
%TO.N,GND*%
%TA.AperFunction,SMDPad,CuDef*%
G36*
G01*
X116050000Y-140549999D02*
X116050000Y-141450001D01*
G75*
G02*
X115800001Y-141700000I-249999J0D01*
G01*
X115149999Y-141700000D01*
G75*
G02*
X114900000Y-141450001I0J249999D01*
G01*
X114900000Y-140549999D01*
G75*
G02*
X115149999Y-140300000I249999J0D01*
G01*
X115800001Y-140300000D01*
G75*
G02*
X116050000Y-140549999I0J-249999D01*
G01*
G37*
%TD.AperFunction*%
%TD*%
D14*
%TO.P,S5,1*%
%TO.N,AN5*%
X111000000Y-108500000D03*
%TO.P,S5,2*%
%TO.N,3.3v*%
X112796051Y-106703949D03*
%TD*%
%TO.P,S6,2*%
%TO.N,3.3v*%
X116203949Y-106703949D03*
%TO.P,S6,1*%
%TO.N,AN6*%
X118000000Y-108500000D03*
%TD*%
D15*
%TO.P,TR5,1*%
%TO.N,PD5*%
X107050000Y-142150000D03*
%TO.P,TR5,2*%
%TO.N,GND*%
X108950000Y-142150000D03*
%TO.P,TR5,3*%
%TO.N,Net-(IR5-Pad1)*%
X108000000Y-139850000D03*
%TD*%
%TO.P,TR6,3*%
%TO.N,Net-(IR6-Pad1)*%
X121000000Y-139850000D03*
%TO.P,TR6,2*%
%TO.N,GND*%
X121950000Y-142150000D03*
%TO.P,TR6,1*%
%TO.N,PD6*%
X120050000Y-142150000D03*
%TD*%
D16*
%TO.N,*%
X117000000Y-151000000D03*
X116500000Y-151000000D03*
X116000000Y-151000000D03*
X115500000Y-151000000D03*
X115000000Y-151000000D03*
X114500000Y-151000000D03*
X114000000Y-151000000D03*
X113500000Y-151000000D03*
X113000000Y-151000000D03*
X112500000Y-151000000D03*
D17*
%TO.N,Net-(IR5-Pad1)*%
X108000000Y-139000000D03*
%TO.N,Net-(IR6-Pad1)*%
X120500000Y-138500000D03*
%TO.N,3.3v*%
X102649999Y-143850001D03*
%TO.N,AN5*%
X111500000Y-139000000D03*
%TO.N,AN6*%
X117000000Y-139000000D03*
%TO.N,PD5*%
X106500000Y-139500000D03*
%TO.N,GND*%
X127000000Y-143500000D03*
X124500000Y-136500000D03*
%TD*%
D18*
%TO.N,*%
X112500000Y-151000000D02*
X112500000Y-151000000D01*
X113000000Y-151000000D02*
X113000000Y-151000000D01*
X113500000Y-151000000D02*
X113500000Y-151000000D01*
X114000000Y-151000000D02*
X114000000Y-151000000D01*
X114500000Y-151000000D02*
X114500000Y-151000000D01*
X115000000Y-151000000D02*
X115000000Y-151000000D01*
X115500000Y-151000000D02*
X115500000Y-151000000D01*
X116000000Y-151000000D02*
X116000000Y-151000000D01*
X116500000Y-151000000D02*
X116500000Y-151000000D01*
X117000000Y-151000000D02*
X117000000Y-151000000D01*
X112500000Y-149500000D02*
X112500000Y-149000000D01*
X113000000Y-149500000D02*
X113500000Y-149000000D01*
X117000000Y-149500000D02*
X117000000Y-149000000D01*
X116500000Y-149500000D02*
X116000000Y-149000000D01*
X116000000Y-149000000D02*
X115500000Y-149000000D01*
X112500000Y-149000000D02*
X112000000Y-149000000D01*
X117000000Y-149000000D02*
X117500000Y-149000000D01*
X117000000Y-148875010D02*
X117000000Y-149000000D01*
X117500000Y-148875010D02*
X117000000Y-148875010D01*
X112500000Y-149000000D02*
X112500000Y-148875010D01*
X112500000Y-148875010D02*
X112000000Y-148875010D01*
X116000000Y-149000000D02*
X115875010Y-148875010D01*
X115875010Y-148875010D02*
X115500000Y-148875010D01*
X113500000Y-148875010D02*
X113500000Y-149000000D01*
X114000000Y-148875010D02*
X113500000Y-148875010D01*
X114000000Y-149000000D02*
X114000000Y-148875010D01*
X113500000Y-149000000D02*
X114000000Y-149000000D01*
X117000000Y-151000000D02*
X117000000Y-149500000D01*
X116500000Y-151000000D02*
X116500000Y-149500000D01*
X116000000Y-151000000D02*
X116000000Y-149500000D01*
X115500000Y-151000000D02*
X115500000Y-149500000D01*
X115000000Y-151000000D02*
X115000000Y-149500000D01*
X114500000Y-151000000D02*
X114500000Y-149500000D01*
X114000000Y-151000000D02*
X114000000Y-149500000D01*
X113500000Y-151000000D02*
X113500000Y-149500000D01*
X113000000Y-151000000D02*
X113000000Y-149500000D01*
X112500000Y-151000000D02*
X112500000Y-149500000D01*
D19*
%TO.N,Net-(IR5-Pad1)*%
X108000000Y-139000000D02*
X108000000Y-139850000D01*
D20*
%TO.N,5v*%
X111296051Y-114703949D02*
X117203949Y-114703949D01*
D19*
%TO.N,Net-(IR6-Pad1)*%
X120500000Y-138500000D02*
X121000000Y-139000000D01*
X121000000Y-139000000D02*
X121000000Y-139850000D01*
D20*
%TO.N,3.3v*%
X109540000Y-146000000D02*
X109540000Y-145040000D01*
X108350001Y-143850001D02*
X102649999Y-143850001D01*
X109540000Y-145040000D02*
X108350001Y-143850001D01*
D19*
%TO.N,AN5*%
X112080000Y-146000000D02*
X112080000Y-144080000D01*
X111475000Y-143475000D02*
X111475000Y-141000000D01*
X112080000Y-144080000D02*
X111475000Y-143475000D01*
X111500000Y-140975000D02*
X111475000Y-141000000D01*
X111500000Y-139000000D02*
X111500000Y-140975000D01*
%TO.N,AN6*%
X114620000Y-143880000D02*
X114713520Y-143880000D01*
X114620000Y-146000000D02*
X114620000Y-143880000D01*
X114713520Y-143880000D02*
X115093520Y-143500000D01*
X115093520Y-143500000D02*
X116500000Y-143500000D01*
X117525000Y-142475000D02*
X117525000Y-141000000D01*
X116500000Y-143500000D02*
X117525000Y-142475000D01*
X117000000Y-140475000D02*
X117525000Y-141000000D01*
X117000000Y-139000000D02*
X117000000Y-140475000D01*
%TO.N,PD5*%
X107049991Y-142149991D02*
X107050000Y-142150000D01*
X105500000Y-139500000D02*
X105000000Y-140000000D01*
X105000000Y-142000000D02*
X105149991Y-142149991D01*
X106500000Y-139500000D02*
X105500000Y-139500000D01*
X105000000Y-140000000D02*
X105000000Y-142000000D01*
X105149991Y-142149991D02*
X107049991Y-142149991D01*
%TO.N,PD6*%
X120050000Y-145650000D02*
X119700000Y-146000000D01*
X120050000Y-142150000D02*
X120050000Y-145650000D01*
D20*
%TO.N,GND*%
X122240000Y-146000000D02*
X122240000Y-144760000D01*
X122240000Y-144760000D02*
X122240000Y-144260000D01*
X122240000Y-144260000D02*
X123000000Y-143500000D01*
X123000000Y-143500000D02*
X127000000Y-143500000D01*
X114500000Y-137000000D02*
X115000000Y-136500000D01*
X114500000Y-141000000D02*
X114500000Y-137000000D01*
D19*
X114500000Y-141000000D02*
X115475000Y-141000000D01*
D20*
X124500000Y-136500000D02*
X115000000Y-136500000D01*
D19*
X113525000Y-141000000D02*
X114500000Y-141000000D01*
X121950000Y-142450000D02*
X123000000Y-143500000D01*
X121950000Y-142150000D02*
X121950000Y-142450000D01*
X109200010Y-137799990D02*
X110500000Y-136500000D01*
X108950000Y-140960002D02*
X109200010Y-140709992D01*
D20*
X110500000Y-136500000D02*
X105000000Y-136500000D01*
D19*
X109200010Y-140709992D02*
X109200010Y-137799990D01*
X108950000Y-142150000D02*
X108950000Y-140960002D01*
D20*
X115000000Y-136500000D02*
X110500000Y-136500000D01*
%TD*%
M02*
