%TF.GenerationSoftware,KiCad,Pcbnew,(5.1.6)-1*%
%TF.CreationDate,2023-10-25T23:53:10+09:00*%
%TF.ProjectId,CMouse-3rd-MOD,434d6f75-7365-42d3-9372-642d4d4f442e,rev?*%
%TF.SameCoordinates,Original*%
%TF.FileFunction,Soldermask,Bot*%
%TF.FilePolarity,Negative*%
%FSLAX46Y46*%
G04 Gerber Fmt 4.6, Leading zero omitted, Abs format (unit mm)*
G04 Created by KiCad (PCBNEW (5.1.6)-1) date 2023-10-25 23:53:10*
%MOMM*%
%LPD*%
G01*
G04 APERTURE LIST*
%ADD10C,0.300000*%
%ADD11C,0.100000*%
%ADD12C,1.900000*%
%ADD13R,1.800000X1.800000*%
%ADD14O,1.800000X1.800000*%
%ADD15C,1.292000*%
G04 APERTURE END LIST*
D10*
X117000000Y-151000000D02*
X117000000Y-149000000D01*
X116500000Y-151000000D02*
X116500000Y-149500000D01*
X116000000Y-151000000D02*
X116000000Y-149500000D01*
X115500000Y-151000000D02*
X115500000Y-149500000D01*
X115000000Y-151000000D02*
X115000000Y-149500000D01*
X114500000Y-151000000D02*
X114500000Y-149500000D01*
X114000000Y-151000000D02*
X114000000Y-149500000D01*
X113500000Y-151000000D02*
X113500000Y-149500000D01*
X113000000Y-151000000D02*
X113000000Y-149500000D01*
X112500000Y-151000000D02*
X112500000Y-149500000D01*
D11*
%TO.C,IR5*%
G36*
X109500000Y-117843503D02*
G01*
X108156497Y-116500000D01*
X109500000Y-115156497D01*
X110843503Y-116500000D01*
X109500000Y-117843503D01*
G37*
D12*
X111296051Y-114703949D03*
%TD*%
%TO.C,IR6*%
X117203949Y-114703949D03*
D11*
G36*
X120343503Y-116500000D02*
G01*
X119000000Y-117843503D01*
X117656497Y-116500000D01*
X119000000Y-115156497D01*
X120343503Y-116500000D01*
G37*
%TD*%
D13*
%TO.C,J1*%
X107000000Y-146000000D03*
D14*
X109540000Y-146000000D03*
X112080000Y-146000000D03*
X114620000Y-146000000D03*
X117160000Y-146000000D03*
X119700000Y-146000000D03*
X122240000Y-146000000D03*
%TD*%
D15*
%TO.C,S5*%
X111000000Y-108500000D03*
X112796051Y-106703949D03*
%TD*%
%TO.C,S6*%
X116203949Y-106703949D03*
X118000000Y-108500000D03*
%TD*%
M02*
