%TF.GenerationSoftware,KiCad,Pcbnew,(5.1.6)-1*%
%TF.CreationDate,2023-10-25T23:53:10+09:00*%
%TF.ProjectId,CMouse-3rd-MOD,434d6f75-7365-42d3-9372-642d4d4f442e,rev?*%
%TF.SameCoordinates,Original*%
%TF.FileFunction,Copper,L2,Bot*%
%TF.FilePolarity,Positive*%
%FSLAX46Y46*%
G04 Gerber Fmt 4.6, Leading zero omitted, Abs format (unit mm)*
G04 Created by KiCad (PCBNEW (5.1.6)-1) date 2023-10-25 23:53:10*
%MOMM*%
%LPD*%
G01*
G04 APERTURE LIST*
%TA.AperFunction,ComponentPad*%
%ADD10C,0.100000*%
%TD*%
%TA.AperFunction,ComponentPad*%
%ADD11C,1.800000*%
%TD*%
%TA.AperFunction,ComponentPad*%
%ADD12R,1.700000X1.700000*%
%TD*%
%TA.AperFunction,ComponentPad*%
%ADD13O,1.700000X1.700000*%
%TD*%
%TA.AperFunction,ComponentPad*%
%ADD14C,1.192000*%
%TD*%
%TA.AperFunction,ViaPad*%
%ADD15C,0.400000*%
%TD*%
%TA.AperFunction,ViaPad*%
%ADD16C,0.800000*%
%TD*%
%TA.AperFunction,Conductor*%
%ADD17C,0.300000*%
%TD*%
%TA.AperFunction,Conductor*%
%ADD18C,1.000000*%
%TD*%
%TA.AperFunction,Conductor*%
%ADD19C,2.000000*%
%TD*%
G04 APERTURE END LIST*
%TA.AperFunction,ComponentPad*%
D10*
%TO.P,IR5,1*%
%TO.N,Net-(IR5-Pad1)*%
G36*
X109500000Y-117772792D02*
G01*
X108227208Y-116500000D01*
X109500000Y-115227208D01*
X110772792Y-116500000D01*
X109500000Y-117772792D01*
G37*
%TD.AperFunction*%
D11*
%TO.P,IR5,2*%
%TO.N,5v*%
X111296051Y-114703949D03*
%TD*%
%TO.P,IR6,2*%
%TO.N,5v*%
X117203949Y-114703949D03*
%TA.AperFunction,ComponentPad*%
D10*
%TO.P,IR6,1*%
%TO.N,Net-(IR6-Pad1)*%
G36*
X120272792Y-116500000D02*
G01*
X119000000Y-117772792D01*
X117727208Y-116500000D01*
X119000000Y-115227208D01*
X120272792Y-116500000D01*
G37*
%TD.AperFunction*%
%TD*%
D12*
%TO.P,J1,1*%
%TO.N,5v*%
X107000000Y-146000000D03*
D13*
%TO.P,J1,2*%
%TO.N,3.3v*%
X109540000Y-146000000D03*
%TO.P,J1,3*%
%TO.N,AN5*%
X112080000Y-146000000D03*
%TO.P,J1,4*%
%TO.N,AN6*%
X114620000Y-146000000D03*
%TO.P,J1,5*%
%TO.N,PD5*%
X117160000Y-146000000D03*
%TO.P,J1,6*%
%TO.N,PD6*%
X119700000Y-146000000D03*
%TO.P,J1,7*%
%TO.N,GND*%
X122240000Y-146000000D03*
%TD*%
D14*
%TO.P,S5,1*%
%TO.N,AN5*%
X111000000Y-108500000D03*
%TO.P,S5,2*%
%TO.N,3.3v*%
X112796051Y-106703949D03*
%TD*%
%TO.P,S6,2*%
%TO.N,3.3v*%
X116203949Y-106703949D03*
%TO.P,S6,1*%
%TO.N,AN6*%
X118000000Y-108500000D03*
%TD*%
D15*
%TO.N,*%
X117000000Y-151000000D03*
X116500000Y-151000000D03*
X116000000Y-151000000D03*
X115500000Y-151000000D03*
X115000000Y-151000000D03*
X114500000Y-151000000D03*
X114000000Y-151000000D03*
X113500000Y-151000000D03*
X113000000Y-151000000D03*
X112500000Y-151000000D03*
D16*
%TO.N,Net-(IR5-Pad1)*%
X108000000Y-139000000D03*
%TO.N,Net-(IR6-Pad1)*%
X120500000Y-138500000D03*
%TO.N,3.3v*%
X102649999Y-143850001D03*
%TO.N,AN5*%
X111500000Y-139000000D03*
%TO.N,AN6*%
X117000000Y-139000000D03*
%TO.N,PD5*%
X106500000Y-139500000D03*
%TO.N,GND*%
X127000000Y-143500000D03*
X124500000Y-136500000D03*
%TD*%
D17*
%TO.N,*%
X112500000Y-149000000D02*
X112500000Y-150624990D01*
X112500000Y-151000000D02*
X112500000Y-149000000D01*
X113000000Y-151000000D02*
X113000000Y-149500000D01*
X113500000Y-151000000D02*
X113500000Y-149500000D01*
X114000000Y-151000000D02*
X114000000Y-149500000D01*
X114500000Y-151000000D02*
X114500000Y-149500000D01*
X115000000Y-149500000D02*
X115000000Y-151000000D01*
X115500000Y-149500000D02*
X115500000Y-151000000D01*
X116000000Y-149500000D02*
X116000000Y-151000000D01*
X116500000Y-151000000D02*
X116500000Y-149500000D01*
X117000000Y-151000000D02*
X117000000Y-149000000D01*
D18*
%TO.N,Net-(IR5-Pad1)*%
X109500000Y-116500000D02*
X109500000Y-137500000D01*
X109500000Y-137500000D02*
X108000000Y-139000000D01*
D19*
%TO.N,5v*%
X104799990Y-138795832D02*
X105000000Y-138595822D01*
X110396052Y-113803950D02*
X111296051Y-114703949D01*
X107196050Y-113803950D02*
X110396052Y-113803950D01*
X107000000Y-142904178D02*
X104799990Y-140704168D01*
X105000000Y-138595822D02*
X105000000Y-116000000D01*
X107000000Y-146000000D02*
X107000000Y-142904178D01*
X105000000Y-116000000D02*
X107196050Y-113803950D01*
X104799990Y-140704168D02*
X104799990Y-138795832D01*
D18*
%TO.N,Net-(IR6-Pad1)*%
X119000000Y-116500000D02*
X119000000Y-137000000D01*
X119000000Y-137000000D02*
X120500000Y-138500000D01*
D19*
%TO.N,3.3v*%
X112796051Y-106703949D02*
X116203949Y-106703949D01*
X102649999Y-143850001D02*
X101000000Y-142200002D01*
X101000000Y-142200002D02*
X101000000Y-112500000D01*
X106796051Y-106703949D02*
X112796051Y-106703949D01*
X101000000Y-112500000D02*
X106796051Y-106703949D01*
D18*
%TO.N,AN5*%
X111000000Y-108500000D02*
X111000000Y-111500000D01*
X111000000Y-111500000D02*
X113000000Y-113500000D01*
X113000000Y-113500000D02*
X113000000Y-120000000D01*
X113000000Y-120000000D02*
X113000000Y-137500000D01*
X113000000Y-137500000D02*
X111500000Y-139000000D01*
%TO.N,AN6*%
X118000000Y-108500000D02*
X118000000Y-110500000D01*
X118000000Y-110500000D02*
X115500000Y-113000000D01*
X115500000Y-113000000D02*
X115500000Y-120000000D01*
X115500000Y-120000000D02*
X115500000Y-137500000D01*
X115500000Y-137500000D02*
X117000000Y-139000000D01*
%TO.N,PD5*%
X111449999Y-144449999D02*
X106500000Y-139500000D01*
X117160000Y-146000000D02*
X115609999Y-144449999D01*
X115609999Y-144449999D02*
X111449999Y-144449999D01*
D19*
%TO.N,GND*%
X127000000Y-143500000D02*
X127000000Y-139000000D01*
X127000000Y-139000000D02*
X124500000Y-136500000D01*
%TD*%
M02*
