%TF.GenerationSoftware,KiCad,Pcbnew,(5.1.6)-1*%
%TF.CreationDate,2023-05-06T22:04:27+09:00*%
%TF.ProjectId,RX621,52583632-312e-46b6-9963-61645f706362,rev?*%
%TF.SameCoordinates,Original*%
%TF.FileFunction,Soldermask,Top*%
%TF.FilePolarity,Negative*%
%FSLAX46Y46*%
G04 Gerber Fmt 4.6, Leading zero omitted, Abs format (unit mm)*
G04 Created by KiCad (PCBNEW (5.1.6)-1) date 2023-05-06 22:04:27*
%MOMM*%
%LPD*%
G01*
G04 APERTURE LIST*
%ADD10O,1.800000X1.800000*%
%ADD11R,1.800000X1.800000*%
%ADD12R,1.575000X0.400000*%
%ADD13R,0.400000X1.575000*%
%ADD14R,2.600000X2.100000*%
%ADD15R,6.100000X6.100000*%
%ADD16R,1.450000X0.700000*%
%ADD17C,0.100000*%
%ADD18C,1.900000*%
%ADD19R,1.900000X1.900000*%
%ADD20C,1.292000*%
%ADD21C,0.850000*%
%ADD22R,1.150000X1.700000*%
%ADD23R,1.100000X0.700000*%
%ADD24R,2.300000X1.400000*%
%ADD25R,2.000000X0.500000*%
G04 APERTURE END LIST*
D10*
%TO.C,BAT1*%
X176460000Y-148000000D03*
D11*
X179000000Y-148000000D03*
%TD*%
%TO.C,C1*%
G36*
G01*
X198650000Y-155478262D02*
X198650000Y-154521738D01*
G75*
G02*
X198921738Y-154250000I271738J0D01*
G01*
X199628262Y-154250000D01*
G75*
G02*
X199900000Y-154521738I0J-271738D01*
G01*
X199900000Y-155478262D01*
G75*
G02*
X199628262Y-155750000I-271738J0D01*
G01*
X198921738Y-155750000D01*
G75*
G02*
X198650000Y-155478262I0J271738D01*
G01*
G37*
G36*
G01*
X196600000Y-155478262D02*
X196600000Y-154521738D01*
G75*
G02*
X196871738Y-154250000I271738J0D01*
G01*
X197578262Y-154250000D01*
G75*
G02*
X197850000Y-154521738I0J-271738D01*
G01*
X197850000Y-155478262D01*
G75*
G02*
X197578262Y-155750000I-271738J0D01*
G01*
X196871738Y-155750000D01*
G75*
G02*
X196600000Y-155478262I0J271738D01*
G01*
G37*
%TD*%
%TO.C,C2*%
G36*
G01*
X201850000Y-153021738D02*
X201850000Y-153978262D01*
G75*
G02*
X201578262Y-154250000I-271738J0D01*
G01*
X200871738Y-154250000D01*
G75*
G02*
X200600000Y-153978262I0J271738D01*
G01*
X200600000Y-153021738D01*
G75*
G02*
X200871738Y-152750000I271738J0D01*
G01*
X201578262Y-152750000D01*
G75*
G02*
X201850000Y-153021738I0J-271738D01*
G01*
G37*
G36*
G01*
X203900000Y-153021738D02*
X203900000Y-153978262D01*
G75*
G02*
X203628262Y-154250000I-271738J0D01*
G01*
X202921738Y-154250000D01*
G75*
G02*
X202650000Y-153978262I0J271738D01*
G01*
X202650000Y-153021738D01*
G75*
G02*
X202921738Y-152750000I271738J0D01*
G01*
X203628262Y-152750000D01*
G75*
G02*
X203900000Y-153021738I0J-271738D01*
G01*
G37*
%TD*%
%TO.C,C3*%
G36*
G01*
X193521738Y-135350000D02*
X194478262Y-135350000D01*
G75*
G02*
X194750000Y-135621738I0J-271738D01*
G01*
X194750000Y-136328262D01*
G75*
G02*
X194478262Y-136600000I-271738J0D01*
G01*
X193521738Y-136600000D01*
G75*
G02*
X193250000Y-136328262I0J271738D01*
G01*
X193250000Y-135621738D01*
G75*
G02*
X193521738Y-135350000I271738J0D01*
G01*
G37*
G36*
G01*
X193521738Y-137400000D02*
X194478262Y-137400000D01*
G75*
G02*
X194750000Y-137671738I0J-271738D01*
G01*
X194750000Y-138378262D01*
G75*
G02*
X194478262Y-138650000I-271738J0D01*
G01*
X193521738Y-138650000D01*
G75*
G02*
X193250000Y-138378262I0J271738D01*
G01*
X193250000Y-137671738D01*
G75*
G02*
X193521738Y-137400000I271738J0D01*
G01*
G37*
%TD*%
%TO.C,C4*%
G36*
G01*
X179375000Y-132478262D02*
X179375000Y-131521738D01*
G75*
G02*
X179646738Y-131250000I271738J0D01*
G01*
X180353262Y-131250000D01*
G75*
G02*
X180625000Y-131521738I0J-271738D01*
G01*
X180625000Y-132478262D01*
G75*
G02*
X180353262Y-132750000I-271738J0D01*
G01*
X179646738Y-132750000D01*
G75*
G02*
X179375000Y-132478262I0J271738D01*
G01*
G37*
G36*
G01*
X181425000Y-132478262D02*
X181425000Y-131521738D01*
G75*
G02*
X181696738Y-131250000I271738J0D01*
G01*
X182403262Y-131250000D01*
G75*
G02*
X182675000Y-131521738I0J-271738D01*
G01*
X182675000Y-132478262D01*
G75*
G02*
X182403262Y-132750000I-271738J0D01*
G01*
X181696738Y-132750000D01*
G75*
G02*
X181425000Y-132478262I0J271738D01*
G01*
G37*
%TD*%
%TO.C,C5*%
G36*
G01*
X185478262Y-135600000D02*
X184521738Y-135600000D01*
G75*
G02*
X184250000Y-135328262I0J271738D01*
G01*
X184250000Y-134621738D01*
G75*
G02*
X184521738Y-134350000I271738J0D01*
G01*
X185478262Y-134350000D01*
G75*
G02*
X185750000Y-134621738I0J-271738D01*
G01*
X185750000Y-135328262D01*
G75*
G02*
X185478262Y-135600000I-271738J0D01*
G01*
G37*
G36*
G01*
X185478262Y-137650000D02*
X184521738Y-137650000D01*
G75*
G02*
X184250000Y-137378262I0J271738D01*
G01*
X184250000Y-136671738D01*
G75*
G02*
X184521738Y-136400000I271738J0D01*
G01*
X185478262Y-136400000D01*
G75*
G02*
X185750000Y-136671738I0J-271738D01*
G01*
X185750000Y-137378262D01*
G75*
G02*
X185478262Y-137650000I-271738J0D01*
G01*
G37*
%TD*%
%TO.C,C6*%
G36*
G01*
X218521738Y-142350000D02*
X219478262Y-142350000D01*
G75*
G02*
X219750000Y-142621738I0J-271738D01*
G01*
X219750000Y-143328262D01*
G75*
G02*
X219478262Y-143600000I-271738J0D01*
G01*
X218521738Y-143600000D01*
G75*
G02*
X218250000Y-143328262I0J271738D01*
G01*
X218250000Y-142621738D01*
G75*
G02*
X218521738Y-142350000I271738J0D01*
G01*
G37*
G36*
G01*
X218521738Y-144400000D02*
X219478262Y-144400000D01*
G75*
G02*
X219750000Y-144671738I0J-271738D01*
G01*
X219750000Y-145378262D01*
G75*
G02*
X219478262Y-145650000I-271738J0D01*
G01*
X218521738Y-145650000D01*
G75*
G02*
X218250000Y-145378262I0J271738D01*
G01*
X218250000Y-144671738D01*
G75*
G02*
X218521738Y-144400000I271738J0D01*
G01*
G37*
%TD*%
%TO.C,C7*%
G36*
G01*
X186600000Y-141228262D02*
X186600000Y-140271738D01*
G75*
G02*
X186871738Y-140000000I271738J0D01*
G01*
X187578262Y-140000000D01*
G75*
G02*
X187850000Y-140271738I0J-271738D01*
G01*
X187850000Y-141228262D01*
G75*
G02*
X187578262Y-141500000I-271738J0D01*
G01*
X186871738Y-141500000D01*
G75*
G02*
X186600000Y-141228262I0J271738D01*
G01*
G37*
G36*
G01*
X188650000Y-141228262D02*
X188650000Y-140271738D01*
G75*
G02*
X188921738Y-140000000I271738J0D01*
G01*
X189628262Y-140000000D01*
G75*
G02*
X189900000Y-140271738I0J-271738D01*
G01*
X189900000Y-141228262D01*
G75*
G02*
X189628262Y-141500000I-271738J0D01*
G01*
X188921738Y-141500000D01*
G75*
G02*
X188650000Y-141228262I0J271738D01*
G01*
G37*
%TD*%
%TO.C,C8*%
G36*
G01*
X220771738Y-144400000D02*
X221728262Y-144400000D01*
G75*
G02*
X222000000Y-144671738I0J-271738D01*
G01*
X222000000Y-145378262D01*
G75*
G02*
X221728262Y-145650000I-271738J0D01*
G01*
X220771738Y-145650000D01*
G75*
G02*
X220500000Y-145378262I0J271738D01*
G01*
X220500000Y-144671738D01*
G75*
G02*
X220771738Y-144400000I271738J0D01*
G01*
G37*
G36*
G01*
X220771738Y-142350000D02*
X221728262Y-142350000D01*
G75*
G02*
X222000000Y-142621738I0J-271738D01*
G01*
X222000000Y-143328262D01*
G75*
G02*
X221728262Y-143600000I-271738J0D01*
G01*
X220771738Y-143600000D01*
G75*
G02*
X220500000Y-143328262I0J271738D01*
G01*
X220500000Y-142621738D01*
G75*
G02*
X220771738Y-142350000I271738J0D01*
G01*
G37*
%TD*%
%TO.C,C9*%
G36*
G01*
X185521738Y-146400000D02*
X186478262Y-146400000D01*
G75*
G02*
X186750000Y-146671738I0J-271738D01*
G01*
X186750000Y-147378262D01*
G75*
G02*
X186478262Y-147650000I-271738J0D01*
G01*
X185521738Y-147650000D01*
G75*
G02*
X185250000Y-147378262I0J271738D01*
G01*
X185250000Y-146671738D01*
G75*
G02*
X185521738Y-146400000I271738J0D01*
G01*
G37*
G36*
G01*
X185521738Y-144350000D02*
X186478262Y-144350000D01*
G75*
G02*
X186750000Y-144621738I0J-271738D01*
G01*
X186750000Y-145328262D01*
G75*
G02*
X186478262Y-145600000I-271738J0D01*
G01*
X185521738Y-145600000D01*
G75*
G02*
X185250000Y-145328262I0J271738D01*
G01*
X185250000Y-144621738D01*
G75*
G02*
X185521738Y-144350000I271738J0D01*
G01*
G37*
%TD*%
%TO.C,C10*%
G36*
G01*
X187521738Y-144350000D02*
X188478262Y-144350000D01*
G75*
G02*
X188750000Y-144621738I0J-271738D01*
G01*
X188750000Y-145328262D01*
G75*
G02*
X188478262Y-145600000I-271738J0D01*
G01*
X187521738Y-145600000D01*
G75*
G02*
X187250000Y-145328262I0J271738D01*
G01*
X187250000Y-144621738D01*
G75*
G02*
X187521738Y-144350000I271738J0D01*
G01*
G37*
G36*
G01*
X187521738Y-146400000D02*
X188478262Y-146400000D01*
G75*
G02*
X188750000Y-146671738I0J-271738D01*
G01*
X188750000Y-147378262D01*
G75*
G02*
X188478262Y-147650000I-271738J0D01*
G01*
X187521738Y-147650000D01*
G75*
G02*
X187250000Y-147378262I0J271738D01*
G01*
X187250000Y-146671738D01*
G75*
G02*
X187521738Y-146400000I271738J0D01*
G01*
G37*
%TD*%
%TO.C,C11*%
G36*
G01*
X184521738Y-139350000D02*
X185478262Y-139350000D01*
G75*
G02*
X185750000Y-139621738I0J-271738D01*
G01*
X185750000Y-140328262D01*
G75*
G02*
X185478262Y-140600000I-271738J0D01*
G01*
X184521738Y-140600000D01*
G75*
G02*
X184250000Y-140328262I0J271738D01*
G01*
X184250000Y-139621738D01*
G75*
G02*
X184521738Y-139350000I271738J0D01*
G01*
G37*
G36*
G01*
X184521738Y-141400000D02*
X185478262Y-141400000D01*
G75*
G02*
X185750000Y-141671738I0J-271738D01*
G01*
X185750000Y-142378262D01*
G75*
G02*
X185478262Y-142650000I-271738J0D01*
G01*
X184521738Y-142650000D01*
G75*
G02*
X184250000Y-142378262I0J271738D01*
G01*
X184250000Y-141671738D01*
G75*
G02*
X184521738Y-141400000I271738J0D01*
G01*
G37*
%TD*%
%TO.C,C12*%
G36*
G01*
X175400000Y-137478262D02*
X175400000Y-136521738D01*
G75*
G02*
X175671738Y-136250000I271738J0D01*
G01*
X176378262Y-136250000D01*
G75*
G02*
X176650000Y-136521738I0J-271738D01*
G01*
X176650000Y-137478262D01*
G75*
G02*
X176378262Y-137750000I-271738J0D01*
G01*
X175671738Y-137750000D01*
G75*
G02*
X175400000Y-137478262I0J271738D01*
G01*
G37*
G36*
G01*
X173350000Y-137478262D02*
X173350000Y-136521738D01*
G75*
G02*
X173621738Y-136250000I271738J0D01*
G01*
X174328262Y-136250000D01*
G75*
G02*
X174600000Y-136521738I0J-271738D01*
G01*
X174600000Y-137478262D01*
G75*
G02*
X174328262Y-137750000I-271738J0D01*
G01*
X173621738Y-137750000D01*
G75*
G02*
X173350000Y-137478262I0J271738D01*
G01*
G37*
%TD*%
%TO.C,C13*%
G36*
G01*
X173350000Y-135478262D02*
X173350000Y-134521738D01*
G75*
G02*
X173621738Y-134250000I271738J0D01*
G01*
X174328262Y-134250000D01*
G75*
G02*
X174600000Y-134521738I0J-271738D01*
G01*
X174600000Y-135478262D01*
G75*
G02*
X174328262Y-135750000I-271738J0D01*
G01*
X173621738Y-135750000D01*
G75*
G02*
X173350000Y-135478262I0J271738D01*
G01*
G37*
G36*
G01*
X175400000Y-135478262D02*
X175400000Y-134521738D01*
G75*
G02*
X175671738Y-134250000I271738J0D01*
G01*
X176378262Y-134250000D01*
G75*
G02*
X176650000Y-134521738I0J-271738D01*
G01*
X176650000Y-135478262D01*
G75*
G02*
X176378262Y-135750000I-271738J0D01*
G01*
X175671738Y-135750000D01*
G75*
G02*
X175400000Y-135478262I0J271738D01*
G01*
G37*
%TD*%
%TO.C,CN1*%
X222000000Y-88000000D03*
D10*
X219460000Y-88000000D03*
X216920000Y-88000000D03*
%TD*%
%TO.C,ENC_L1*%
X204500000Y-112880000D03*
X204500000Y-115420000D03*
X204500000Y-117960000D03*
D11*
X204500000Y-120500000D03*
%TD*%
%TO.C,ENC_R1*%
X207500000Y-120540000D03*
D10*
X207500000Y-118000000D03*
X207500000Y-115460000D03*
X207500000Y-112920000D03*
%TD*%
%TO.C,G1*%
X202250000Y-98260000D03*
X202250000Y-95720000D03*
X202250000Y-93180000D03*
X202250000Y-90640000D03*
D11*
X202250000Y-88100000D03*
%TD*%
%TO.C,G2*%
X209750000Y-98250000D03*
D10*
X209750000Y-95710000D03*
X209750000Y-93170000D03*
X209750000Y-90630000D03*
X209750000Y-88090000D03*
%TD*%
D12*
%TO.C,IC1*%
X200512000Y-137000000D03*
X200512000Y-137500000D03*
X200512000Y-138000000D03*
X200512000Y-138500000D03*
X200512000Y-139000000D03*
X200512000Y-139500000D03*
X200512000Y-140000000D03*
X200512000Y-140500000D03*
X200512000Y-141000000D03*
X200512000Y-141500000D03*
X200512000Y-142000000D03*
X200512000Y-142500000D03*
X200512000Y-143000000D03*
X200512000Y-143500000D03*
X200512000Y-144000000D03*
X200512000Y-144500000D03*
X200512000Y-145000000D03*
X200512000Y-145500000D03*
X200512000Y-146000000D03*
X200512000Y-146500000D03*
X200512000Y-147000000D03*
X200512000Y-147500000D03*
X200512000Y-148000000D03*
X200512000Y-148500000D03*
X200512000Y-149000000D03*
D13*
X202250000Y-150738000D03*
X202750000Y-150738000D03*
X203250000Y-150738000D03*
X203750000Y-150738000D03*
X204250000Y-150738000D03*
X204750000Y-150738000D03*
X205250000Y-150738000D03*
X205750000Y-150738000D03*
X206250000Y-150738000D03*
X206750000Y-150738000D03*
X207250000Y-150738000D03*
X207750000Y-150738000D03*
X208250000Y-150738000D03*
X208750000Y-150738000D03*
X209250000Y-150738000D03*
X209750000Y-150738000D03*
X210250000Y-150738000D03*
X210750000Y-150738000D03*
X211250000Y-150738000D03*
X211750000Y-150738000D03*
X212250000Y-150738000D03*
X212750000Y-150738000D03*
X213250000Y-150738000D03*
X213750000Y-150738000D03*
X214250000Y-150738000D03*
D12*
X215988000Y-149000000D03*
X215988000Y-148500000D03*
X215988000Y-148000000D03*
X215988000Y-147500000D03*
X215988000Y-147000000D03*
X215988000Y-146500000D03*
X215988000Y-146000000D03*
X215988000Y-145500000D03*
X215988000Y-145000000D03*
X215988000Y-144500000D03*
X215988000Y-144000000D03*
X215988000Y-143500000D03*
X215988000Y-143000000D03*
X215988000Y-142500000D03*
X215988000Y-142000000D03*
X215988000Y-141500000D03*
X215988000Y-141000000D03*
X215988000Y-140500000D03*
X215988000Y-140000000D03*
X215988000Y-139500000D03*
X215988000Y-139000000D03*
X215988000Y-138500000D03*
X215988000Y-138000000D03*
X215988000Y-137500000D03*
X215988000Y-137000000D03*
D13*
X214250000Y-135262000D03*
X213750000Y-135262000D03*
X213250000Y-135262000D03*
X212750000Y-135262000D03*
X212250000Y-135262000D03*
X211750000Y-135262000D03*
X211250000Y-135262000D03*
X210750000Y-135262000D03*
X210250000Y-135262000D03*
X209750000Y-135262000D03*
X209250000Y-135262000D03*
X208750000Y-135262000D03*
X208250000Y-135262000D03*
X207750000Y-135262000D03*
X207250000Y-135262000D03*
X206750000Y-135262000D03*
X206250000Y-135262000D03*
X205750000Y-135262000D03*
X205250000Y-135262000D03*
X204750000Y-135262000D03*
X204250000Y-135262000D03*
X203750000Y-135262000D03*
X203250000Y-135262000D03*
X202750000Y-135262000D03*
X202250000Y-135262000D03*
%TD*%
D14*
%TO.C,IC2*%
X181055000Y-144300000D03*
D15*
X174805000Y-142000000D03*
D14*
X181055000Y-139700000D03*
%TD*%
D16*
%TO.C,IC3*%
X179800000Y-134050000D03*
X179800000Y-135000000D03*
X179800000Y-135950000D03*
X182200000Y-135950000D03*
X182200000Y-134050000D03*
%TD*%
D17*
%TO.C,IR0*%
G36*
X185270602Y-100100533D02*
G01*
X183399467Y-99770602D01*
X183729398Y-97899467D01*
X185600533Y-98229398D01*
X185270602Y-100100533D01*
G37*
D18*
X184941066Y-96498588D03*
%TD*%
D17*
%TO.C,IR1*%
G36*
X175828249Y-91163508D02*
G01*
X175336492Y-89328249D01*
X177171751Y-88836492D01*
X177663508Y-90671751D01*
X175828249Y-91163508D01*
G37*
D18*
X178953452Y-89342600D03*
%TD*%
%TO.C,IR2*%
X207290000Y-82000000D03*
D19*
X204750000Y-82000000D03*
%TD*%
D17*
%TO.C,IR3*%
G36*
X236663508Y-89328249D02*
G01*
X236171751Y-91163508D01*
X234336492Y-90671751D01*
X234828249Y-88836492D01*
X236663508Y-89328249D01*
G37*
D18*
X233046548Y-89342600D03*
%TD*%
%TO.C,IR4*%
X227058934Y-96498588D03*
D17*
G36*
X228600533Y-99770602D02*
G01*
X226729398Y-100100533D01*
X226399467Y-98229398D01*
X228270602Y-97899467D01*
X228600533Y-99770602D01*
G37*
%TD*%
%TO.C,L1*%
G36*
G01*
X230350000Y-157478262D02*
X230350000Y-156521738D01*
G75*
G02*
X230621738Y-156250000I271738J0D01*
G01*
X231328262Y-156250000D01*
G75*
G02*
X231600000Y-156521738I0J-271738D01*
G01*
X231600000Y-157478262D01*
G75*
G02*
X231328262Y-157750000I-271738J0D01*
G01*
X230621738Y-157750000D01*
G75*
G02*
X230350000Y-157478262I0J271738D01*
G01*
G37*
G36*
G01*
X232400000Y-157478262D02*
X232400000Y-156521738D01*
G75*
G02*
X232671738Y-156250000I271738J0D01*
G01*
X233378262Y-156250000D01*
G75*
G02*
X233650000Y-156521738I0J-271738D01*
G01*
X233650000Y-157478262D01*
G75*
G02*
X233378262Y-157750000I-271738J0D01*
G01*
X232671738Y-157750000D01*
G75*
G02*
X232400000Y-157478262I0J271738D01*
G01*
G37*
%TD*%
%TO.C,L2*%
G36*
G01*
X216400000Y-157478262D02*
X216400000Y-156521738D01*
G75*
G02*
X216671738Y-156250000I271738J0D01*
G01*
X217378262Y-156250000D01*
G75*
G02*
X217650000Y-156521738I0J-271738D01*
G01*
X217650000Y-157478262D01*
G75*
G02*
X217378262Y-157750000I-271738J0D01*
G01*
X216671738Y-157750000D01*
G75*
G02*
X216400000Y-157478262I0J271738D01*
G01*
G37*
G36*
G01*
X214350000Y-157478262D02*
X214350000Y-156521738D01*
G75*
G02*
X214621738Y-156250000I271738J0D01*
G01*
X215328262Y-156250000D01*
G75*
G02*
X215600000Y-156521738I0J-271738D01*
G01*
X215600000Y-157478262D01*
G75*
G02*
X215328262Y-157750000I-271738J0D01*
G01*
X214621738Y-157750000D01*
G75*
G02*
X214350000Y-157478262I0J271738D01*
G01*
G37*
%TD*%
%TO.C,L3*%
G36*
G01*
X192350000Y-157478262D02*
X192350000Y-156521738D01*
G75*
G02*
X192621738Y-156250000I271738J0D01*
G01*
X193328262Y-156250000D01*
G75*
G02*
X193600000Y-156521738I0J-271738D01*
G01*
X193600000Y-157478262D01*
G75*
G02*
X193328262Y-157750000I-271738J0D01*
G01*
X192621738Y-157750000D01*
G75*
G02*
X192350000Y-157478262I0J271738D01*
G01*
G37*
G36*
G01*
X194400000Y-157478262D02*
X194400000Y-156521738D01*
G75*
G02*
X194671738Y-156250000I271738J0D01*
G01*
X195378262Y-156250000D01*
G75*
G02*
X195650000Y-156521738I0J-271738D01*
G01*
X195650000Y-157478262D01*
G75*
G02*
X195378262Y-157750000I-271738J0D01*
G01*
X194671738Y-157750000D01*
G75*
G02*
X194400000Y-157478262I0J271738D01*
G01*
G37*
%TD*%
%TO.C,L4*%
G36*
G01*
X179400000Y-157478262D02*
X179400000Y-156521738D01*
G75*
G02*
X179671738Y-156250000I271738J0D01*
G01*
X180378262Y-156250000D01*
G75*
G02*
X180650000Y-156521738I0J-271738D01*
G01*
X180650000Y-157478262D01*
G75*
G02*
X180378262Y-157750000I-271738J0D01*
G01*
X179671738Y-157750000D01*
G75*
G02*
X179400000Y-157478262I0J271738D01*
G01*
G37*
G36*
G01*
X177350000Y-157478262D02*
X177350000Y-156521738D01*
G75*
G02*
X177621738Y-156250000I271738J0D01*
G01*
X178328262Y-156250000D01*
G75*
G02*
X178600000Y-156521738I0J-271738D01*
G01*
X178600000Y-157478262D01*
G75*
G02*
X178328262Y-157750000I-271738J0D01*
G01*
X177621738Y-157750000D01*
G75*
G02*
X177350000Y-157478262I0J271738D01*
G01*
G37*
%TD*%
D10*
%TO.C,MD1*%
X227050000Y-139000000D03*
X229590000Y-139000000D03*
X232130000Y-139000000D03*
X234670000Y-139000000D03*
X237210000Y-139000000D03*
D11*
X239750000Y-139000000D03*
%TD*%
%TO.C,MD2*%
X227000000Y-154500000D03*
D10*
X229540000Y-154500000D03*
X232080000Y-154500000D03*
X234620000Y-154500000D03*
X237160000Y-154500000D03*
X239700000Y-154500000D03*
%TD*%
%TO.C,R1*%
G36*
G01*
X221650000Y-92978262D02*
X221650000Y-92021738D01*
G75*
G02*
X221921738Y-91750000I271738J0D01*
G01*
X222628262Y-91750000D01*
G75*
G02*
X222900000Y-92021738I0J-271738D01*
G01*
X222900000Y-92978262D01*
G75*
G02*
X222628262Y-93250000I-271738J0D01*
G01*
X221921738Y-93250000D01*
G75*
G02*
X221650000Y-92978262I0J271738D01*
G01*
G37*
G36*
G01*
X219600000Y-92978262D02*
X219600000Y-92021738D01*
G75*
G02*
X219871738Y-91750000I271738J0D01*
G01*
X220578262Y-91750000D01*
G75*
G02*
X220850000Y-92021738I0J-271738D01*
G01*
X220850000Y-92978262D01*
G75*
G02*
X220578262Y-93250000I-271738J0D01*
G01*
X219871738Y-93250000D01*
G75*
G02*
X219600000Y-92978262I0J271738D01*
G01*
G37*
%TD*%
%TO.C,R2*%
G36*
G01*
X217100000Y-92021738D02*
X217100000Y-92978262D01*
G75*
G02*
X216828262Y-93250000I-271738J0D01*
G01*
X216121738Y-93250000D01*
G75*
G02*
X215850000Y-92978262I0J271738D01*
G01*
X215850000Y-92021738D01*
G75*
G02*
X216121738Y-91750000I271738J0D01*
G01*
X216828262Y-91750000D01*
G75*
G02*
X217100000Y-92021738I0J-271738D01*
G01*
G37*
G36*
G01*
X219150000Y-92021738D02*
X219150000Y-92978262D01*
G75*
G02*
X218878262Y-93250000I-271738J0D01*
G01*
X218171738Y-93250000D01*
G75*
G02*
X217900000Y-92978262I0J271738D01*
G01*
X217900000Y-92021738D01*
G75*
G02*
X218171738Y-91750000I271738J0D01*
G01*
X218878262Y-91750000D01*
G75*
G02*
X219150000Y-92021738I0J-271738D01*
G01*
G37*
%TD*%
%TO.C,R3*%
G36*
G01*
X196478262Y-138650000D02*
X195521738Y-138650000D01*
G75*
G02*
X195250000Y-138378262I0J271738D01*
G01*
X195250000Y-137671738D01*
G75*
G02*
X195521738Y-137400000I271738J0D01*
G01*
X196478262Y-137400000D01*
G75*
G02*
X196750000Y-137671738I0J-271738D01*
G01*
X196750000Y-138378262D01*
G75*
G02*
X196478262Y-138650000I-271738J0D01*
G01*
G37*
G36*
G01*
X196478262Y-136600000D02*
X195521738Y-136600000D01*
G75*
G02*
X195250000Y-136328262I0J271738D01*
G01*
X195250000Y-135621738D01*
G75*
G02*
X195521738Y-135350000I271738J0D01*
G01*
X196478262Y-135350000D01*
G75*
G02*
X196750000Y-135621738I0J-271738D01*
G01*
X196750000Y-136328262D01*
G75*
G02*
X196478262Y-136600000I-271738J0D01*
G01*
G37*
%TD*%
%TO.C,R4*%
G36*
G01*
X194521738Y-139350000D02*
X195478262Y-139350000D01*
G75*
G02*
X195750000Y-139621738I0J-271738D01*
G01*
X195750000Y-140328262D01*
G75*
G02*
X195478262Y-140600000I-271738J0D01*
G01*
X194521738Y-140600000D01*
G75*
G02*
X194250000Y-140328262I0J271738D01*
G01*
X194250000Y-139621738D01*
G75*
G02*
X194521738Y-139350000I271738J0D01*
G01*
G37*
G36*
G01*
X194521738Y-141400000D02*
X195478262Y-141400000D01*
G75*
G02*
X195750000Y-141671738I0J-271738D01*
G01*
X195750000Y-142378262D01*
G75*
G02*
X195478262Y-142650000I-271738J0D01*
G01*
X194521738Y-142650000D01*
G75*
G02*
X194250000Y-142378262I0J271738D01*
G01*
X194250000Y-141671738D01*
G75*
G02*
X194521738Y-141400000I271738J0D01*
G01*
G37*
%TD*%
%TO.C,R5*%
G36*
G01*
X195400000Y-92978262D02*
X195400000Y-92021738D01*
G75*
G02*
X195671738Y-91750000I271738J0D01*
G01*
X196378262Y-91750000D01*
G75*
G02*
X196650000Y-92021738I0J-271738D01*
G01*
X196650000Y-92978262D01*
G75*
G02*
X196378262Y-93250000I-271738J0D01*
G01*
X195671738Y-93250000D01*
G75*
G02*
X195400000Y-92978262I0J271738D01*
G01*
G37*
G36*
G01*
X193350000Y-92978262D02*
X193350000Y-92021738D01*
G75*
G02*
X193621738Y-91750000I271738J0D01*
G01*
X194328262Y-91750000D01*
G75*
G02*
X194600000Y-92021738I0J-271738D01*
G01*
X194600000Y-92978262D01*
G75*
G02*
X194328262Y-93250000I-271738J0D01*
G01*
X193621738Y-93250000D01*
G75*
G02*
X193350000Y-92978262I0J271738D01*
G01*
G37*
%TD*%
%TO.C,R6*%
G36*
G01*
X204350000Y-153978262D02*
X204350000Y-153021738D01*
G75*
G02*
X204621738Y-152750000I271738J0D01*
G01*
X205328262Y-152750000D01*
G75*
G02*
X205600000Y-153021738I0J-271738D01*
G01*
X205600000Y-153978262D01*
G75*
G02*
X205328262Y-154250000I-271738J0D01*
G01*
X204621738Y-154250000D01*
G75*
G02*
X204350000Y-153978262I0J271738D01*
G01*
G37*
G36*
G01*
X206400000Y-153978262D02*
X206400000Y-153021738D01*
G75*
G02*
X206671738Y-152750000I271738J0D01*
G01*
X207378262Y-152750000D01*
G75*
G02*
X207650000Y-153021738I0J-271738D01*
G01*
X207650000Y-153978262D01*
G75*
G02*
X207378262Y-154250000I-271738J0D01*
G01*
X206671738Y-154250000D01*
G75*
G02*
X206400000Y-153978262I0J271738D01*
G01*
G37*
%TD*%
%TO.C,R7*%
G36*
G01*
X218350000Y-152978262D02*
X218350000Y-152021738D01*
G75*
G02*
X218621738Y-151750000I271738J0D01*
G01*
X219328262Y-151750000D01*
G75*
G02*
X219600000Y-152021738I0J-271738D01*
G01*
X219600000Y-152978262D01*
G75*
G02*
X219328262Y-153250000I-271738J0D01*
G01*
X218621738Y-153250000D01*
G75*
G02*
X218350000Y-152978262I0J271738D01*
G01*
G37*
G36*
G01*
X220400000Y-152978262D02*
X220400000Y-152021738D01*
G75*
G02*
X220671738Y-151750000I271738J0D01*
G01*
X221378262Y-151750000D01*
G75*
G02*
X221650000Y-152021738I0J-271738D01*
G01*
X221650000Y-152978262D01*
G75*
G02*
X221378262Y-153250000I-271738J0D01*
G01*
X220671738Y-153250000D01*
G75*
G02*
X220400000Y-152978262I0J271738D01*
G01*
G37*
%TD*%
%TO.C,R8*%
G36*
G01*
X220400000Y-154978262D02*
X220400000Y-154021738D01*
G75*
G02*
X220671738Y-153750000I271738J0D01*
G01*
X221378262Y-153750000D01*
G75*
G02*
X221650000Y-154021738I0J-271738D01*
G01*
X221650000Y-154978262D01*
G75*
G02*
X221378262Y-155250000I-271738J0D01*
G01*
X220671738Y-155250000D01*
G75*
G02*
X220400000Y-154978262I0J271738D01*
G01*
G37*
G36*
G01*
X218350000Y-154978262D02*
X218350000Y-154021738D01*
G75*
G02*
X218621738Y-153750000I271738J0D01*
G01*
X219328262Y-153750000D01*
G75*
G02*
X219600000Y-154021738I0J-271738D01*
G01*
X219600000Y-154978262D01*
G75*
G02*
X219328262Y-155250000I-271738J0D01*
G01*
X218621738Y-155250000D01*
G75*
G02*
X218350000Y-154978262I0J271738D01*
G01*
G37*
%TD*%
%TO.C,R9*%
G36*
G01*
X185350000Y-153478262D02*
X185350000Y-152521738D01*
G75*
G02*
X185621738Y-152250000I271738J0D01*
G01*
X186328262Y-152250000D01*
G75*
G02*
X186600000Y-152521738I0J-271738D01*
G01*
X186600000Y-153478262D01*
G75*
G02*
X186328262Y-153750000I-271738J0D01*
G01*
X185621738Y-153750000D01*
G75*
G02*
X185350000Y-153478262I0J271738D01*
G01*
G37*
G36*
G01*
X187400000Y-153478262D02*
X187400000Y-152521738D01*
G75*
G02*
X187671738Y-152250000I271738J0D01*
G01*
X188378262Y-152250000D01*
G75*
G02*
X188650000Y-152521738I0J-271738D01*
G01*
X188650000Y-153478262D01*
G75*
G02*
X188378262Y-153750000I-271738J0D01*
G01*
X187671738Y-153750000D01*
G75*
G02*
X187400000Y-153478262I0J271738D01*
G01*
G37*
%TD*%
%TO.C,R10*%
G36*
G01*
X187400000Y-150478262D02*
X187400000Y-149521738D01*
G75*
G02*
X187671738Y-149250000I271738J0D01*
G01*
X188378262Y-149250000D01*
G75*
G02*
X188650000Y-149521738I0J-271738D01*
G01*
X188650000Y-150478262D01*
G75*
G02*
X188378262Y-150750000I-271738J0D01*
G01*
X187671738Y-150750000D01*
G75*
G02*
X187400000Y-150478262I0J271738D01*
G01*
G37*
G36*
G01*
X185350000Y-150478262D02*
X185350000Y-149521738D01*
G75*
G02*
X185621738Y-149250000I271738J0D01*
G01*
X186328262Y-149250000D01*
G75*
G02*
X186600000Y-149521738I0J-271738D01*
G01*
X186600000Y-150478262D01*
G75*
G02*
X186328262Y-150750000I-271738J0D01*
G01*
X185621738Y-150750000D01*
G75*
G02*
X185350000Y-150478262I0J271738D01*
G01*
G37*
%TD*%
%TO.C,R11*%
G36*
G01*
X174478262Y-105650000D02*
X173521738Y-105650000D01*
G75*
G02*
X173250000Y-105378262I0J271738D01*
G01*
X173250000Y-104671738D01*
G75*
G02*
X173521738Y-104400000I271738J0D01*
G01*
X174478262Y-104400000D01*
G75*
G02*
X174750000Y-104671738I0J-271738D01*
G01*
X174750000Y-105378262D01*
G75*
G02*
X174478262Y-105650000I-271738J0D01*
G01*
G37*
G36*
G01*
X174478262Y-103600000D02*
X173521738Y-103600000D01*
G75*
G02*
X173250000Y-103328262I0J271738D01*
G01*
X173250000Y-102621738D01*
G75*
G02*
X173521738Y-102350000I271738J0D01*
G01*
X174478262Y-102350000D01*
G75*
G02*
X174750000Y-102621738I0J-271738D01*
G01*
X174750000Y-103328262D01*
G75*
G02*
X174478262Y-103600000I-271738J0D01*
G01*
G37*
%TD*%
%TO.C,R12*%
G36*
G01*
X184400000Y-85478262D02*
X184400000Y-84521738D01*
G75*
G02*
X184671738Y-84250000I271738J0D01*
G01*
X185378262Y-84250000D01*
G75*
G02*
X185650000Y-84521738I0J-271738D01*
G01*
X185650000Y-85478262D01*
G75*
G02*
X185378262Y-85750000I-271738J0D01*
G01*
X184671738Y-85750000D01*
G75*
G02*
X184400000Y-85478262I0J271738D01*
G01*
G37*
G36*
G01*
X182350000Y-85478262D02*
X182350000Y-84521738D01*
G75*
G02*
X182621738Y-84250000I271738J0D01*
G01*
X183328262Y-84250000D01*
G75*
G02*
X183600000Y-84521738I0J-271738D01*
G01*
X183600000Y-85478262D01*
G75*
G02*
X183328262Y-85750000I-271738J0D01*
G01*
X182621738Y-85750000D01*
G75*
G02*
X182350000Y-85478262I0J271738D01*
G01*
G37*
%TD*%
%TO.C,R13*%
G36*
G01*
X212350000Y-81478262D02*
X212350000Y-80521738D01*
G75*
G02*
X212621738Y-80250000I271738J0D01*
G01*
X213328262Y-80250000D01*
G75*
G02*
X213600000Y-80521738I0J-271738D01*
G01*
X213600000Y-81478262D01*
G75*
G02*
X213328262Y-81750000I-271738J0D01*
G01*
X212621738Y-81750000D01*
G75*
G02*
X212350000Y-81478262I0J271738D01*
G01*
G37*
G36*
G01*
X214400000Y-81478262D02*
X214400000Y-80521738D01*
G75*
G02*
X214671738Y-80250000I271738J0D01*
G01*
X215378262Y-80250000D01*
G75*
G02*
X215650000Y-80521738I0J-271738D01*
G01*
X215650000Y-81478262D01*
G75*
G02*
X215378262Y-81750000I-271738J0D01*
G01*
X214671738Y-81750000D01*
G75*
G02*
X214400000Y-81478262I0J271738D01*
G01*
G37*
%TD*%
%TO.C,R14*%
G36*
G01*
X229650000Y-84521738D02*
X229650000Y-85478262D01*
G75*
G02*
X229378262Y-85750000I-271738J0D01*
G01*
X228671738Y-85750000D01*
G75*
G02*
X228400000Y-85478262I0J271738D01*
G01*
X228400000Y-84521738D01*
G75*
G02*
X228671738Y-84250000I271738J0D01*
G01*
X229378262Y-84250000D01*
G75*
G02*
X229650000Y-84521738I0J-271738D01*
G01*
G37*
G36*
G01*
X227600000Y-84521738D02*
X227600000Y-85478262D01*
G75*
G02*
X227328262Y-85750000I-271738J0D01*
G01*
X226621738Y-85750000D01*
G75*
G02*
X226350000Y-85478262I0J271738D01*
G01*
X226350000Y-84521738D01*
G75*
G02*
X226621738Y-84250000I271738J0D01*
G01*
X227328262Y-84250000D01*
G75*
G02*
X227600000Y-84521738I0J-271738D01*
G01*
G37*
%TD*%
%TO.C,R15*%
G36*
G01*
X237546738Y-104400000D02*
X238503262Y-104400000D01*
G75*
G02*
X238775000Y-104671738I0J-271738D01*
G01*
X238775000Y-105378262D01*
G75*
G02*
X238503262Y-105650000I-271738J0D01*
G01*
X237546738Y-105650000D01*
G75*
G02*
X237275000Y-105378262I0J271738D01*
G01*
X237275000Y-104671738D01*
G75*
G02*
X237546738Y-104400000I271738J0D01*
G01*
G37*
G36*
G01*
X237546738Y-102350000D02*
X238503262Y-102350000D01*
G75*
G02*
X238775000Y-102621738I0J-271738D01*
G01*
X238775000Y-103328262D01*
G75*
G02*
X238503262Y-103600000I-271738J0D01*
G01*
X237546738Y-103600000D01*
G75*
G02*
X237275000Y-103328262I0J271738D01*
G01*
X237275000Y-102621738D01*
G75*
G02*
X237546738Y-102350000I271738J0D01*
G01*
G37*
%TD*%
D20*
%TO.C,S0*%
X179500000Y-98000000D03*
X179941066Y-95498588D03*
%TD*%
%TO.C,S1*%
X177453452Y-84842600D03*
X175000000Y-85500000D03*
%TD*%
%TO.C,S2*%
X204750000Y-77000000D03*
X207290000Y-77000000D03*
%TD*%
%TO.C,S3*%
X234546548Y-84842600D03*
X237000000Y-85500000D03*
%TD*%
%TO.C,S4*%
X232500000Y-98000000D03*
X232058934Y-95498588D03*
%TD*%
D11*
%TO.C,SW1*%
X195000000Y-88000000D03*
D10*
X192460000Y-88000000D03*
X189920000Y-88000000D03*
%TD*%
D21*
%TO.C,SW3*%
X206000000Y-157400000D03*
X206000000Y-155600000D03*
D22*
X208225000Y-156500000D03*
X203775000Y-156500000D03*
%TD*%
D10*
%TO.C,SW4*%
X173920000Y-153000000D03*
X176460000Y-153000000D03*
D11*
X179000000Y-153000000D03*
%TD*%
D23*
%TO.C,TR0*%
X179150000Y-104950000D03*
X179150000Y-103050000D03*
X176850000Y-104000000D03*
%TD*%
%TO.C,TR1*%
X182850000Y-88000000D03*
X185150000Y-87050000D03*
X185150000Y-88950000D03*
%TD*%
%TO.C,TR2*%
X195850000Y-80050000D03*
X195850000Y-81950000D03*
X198150000Y-81000000D03*
%TD*%
%TO.C,TR3*%
X229150000Y-88000000D03*
X226850000Y-88950000D03*
X226850000Y-87050000D03*
%TD*%
%TO.C,TR4*%
X231850000Y-103050000D03*
X231850000Y-104950000D03*
X234150000Y-104000000D03*
%TD*%
D24*
%TO.C,X1*%
X192000000Y-143900000D03*
X192000000Y-148100000D03*
%TD*%
D25*
%TO.C,X2*%
X192000000Y-150800000D03*
X192000000Y-152000000D03*
X192000000Y-153200000D03*
%TD*%
M02*
