M48
; DRILL file {KiCad (5.1.6)-1} date 05/06/23 22:04:50
; FORMAT={-:-/ absolute / metric / decimal}
; #@! TF.CreationDate,2023-05-06T22:04:50+09:00
; #@! TF.GenerationSoftware,Kicad,Pcbnew,(5.1.6)-1
; #@! TF.FileFunction,Plated,1,2,PTH
FMAT,2
METRIC
T1C0.400
T2C0.650
T3C0.900
T4C1.000
%
G90
G05
T1
X172.0Y-104.25
X172.25Y-100.0
X177.0Y-129.75
X179.0Y-145.5
X180.25Y-80.5
X180.5Y-84.0
X181.75Y-130.5
X182.033Y-136.538
X183.664Y-138.885
X185.75Y-102.5
X186.5Y-93.5
X186.5Y-155.0
X189.625Y-138.5
X190.5Y-106.25
X190.75Y-93.75
X191.5Y-140.5
X191.75Y-128.75
X191.825Y-138.0
X192.0Y-132.0
X192.5Y-77.0
X193.0Y-96.0
X193.75Y-78.75
X195.0Y-91.0
X195.25Y-134.5
X195.25Y-153.75
X195.75Y-72.25
X196.938Y-140.932
X197.25Y-85.0
X197.5Y-111.5
X197.668Y-138.945
X197.75Y-116.5
X198.275Y-150.487
X198.275Y-151.5
X198.442Y-142.163
X198.5Y-136.5
X198.744Y-139.476
X198.75Y-134.5
X200.5Y-84.75
X201.25Y-80.5
X201.5Y-118.25
X201.75Y-142.5
X202.225Y-116.75
X202.25Y-129.5
X202.25Y-131.25
X202.5Y-138.0
X203.022Y-148.203
X203.75Y-123.75
X203.75Y-136.75
X203.996Y-149.408
X204.5Y-129.75
X204.75Y-138.0
X205.0Y-145.25
X205.979Y-149.275
X207.0Y-131.75
X208.0Y-132.75
X209.25Y-133.25
X210.25Y-132.5
X210.5Y-81.0
X210.5Y-127.75
X210.75Y-116.75
X210.75Y-140.0
X211.736Y-145.971
X212.0Y-129.5
X212.691Y-145.674
X213.25Y-121.75
X213.392Y-144.96
X213.5Y-100.0
X214.0Y-113.25
X214.0Y-138.25
X214.0Y-140.5
X214.081Y-144.236
X214.25Y-143.0
X215.5Y-132.0
X215.75Y-150.0
X216.0Y-113.5
X216.0Y-133.5
X217.0Y-151.425
X217.1Y-135.25
X217.1Y-136.299
X217.6Y-141.847
X217.612Y-107.862
X217.737Y-146.987
X218.0Y-118.0
X218.5Y-109.5
X218.532Y-135.757
X218.581Y-133.331
X218.597Y-141.781
X219.0Y-139.75
X219.237Y-141.013
X219.75Y-113.5
X220.5Y-111.0
X220.5Y-150.25
X220.75Y-95.5
X221.225Y-120.5
X222.0Y-147.0
X222.25Y-116.0
X223.0Y-151.25
X225.0Y-150.5
X227.25Y-103.0
X228.5Y-91.0
X228.91Y-146.275
X229.0Y-83.25
X231.75Y-83.25
X235.5Y-148.5
X236.5Y-151.0
T2
X179.5Y-98.0
X179.941Y-95.499
X232.059Y-95.499
X232.5Y-98.0
X175.0Y-85.5
X177.453Y-84.843
X204.75Y-77.0
X207.29Y-77.0
X234.547Y-84.843
X237.0Y-85.5
T3
X227.059Y-96.499
X227.5Y-99.0
X176.5Y-90.0
X178.953Y-89.343
X233.047Y-89.343
X235.5Y-90.0
X204.75Y-82.0
X207.29Y-82.0
X184.5Y-99.0
X184.941Y-96.499
T4
X202.25Y-88.1
X202.25Y-90.64
X202.25Y-93.18
X202.25Y-95.72
X202.25Y-98.26
X207.5Y-112.92
X207.5Y-115.46
X207.5Y-118.0
X207.5Y-120.54
X209.75Y-88.09
X209.75Y-90.63
X209.75Y-93.17
X209.75Y-95.71
X209.75Y-98.25
X173.92Y-153.0
X176.46Y-153.0
X179.0Y-153.0
X204.5Y-112.88
X204.5Y-115.42
X204.5Y-117.96
X204.5Y-120.5
X227.05Y-139.0
X229.59Y-139.0
X232.13Y-139.0
X234.67Y-139.0
X237.21Y-139.0
X239.75Y-139.0
X216.92Y-88.0
X219.46Y-88.0
X222.0Y-88.0
X176.46Y-148.0
X179.0Y-148.0
X227.0Y-154.5
X229.54Y-154.5
X232.08Y-154.5
X234.62Y-154.5
X237.16Y-154.5
X239.7Y-154.5
X189.92Y-88.0
X192.46Y-88.0
X195.0Y-88.0
T0
M30
