%TF.GenerationSoftware,KiCad,Pcbnew,(5.1.6)-1*%
%TF.CreationDate,2023-05-06T22:04:27+09:00*%
%TF.ProjectId,RX621,52583632-312e-46b6-9963-61645f706362,rev?*%
%TF.SameCoordinates,Original*%
%TF.FileFunction,Legend,Top*%
%TF.FilePolarity,Positive*%
%FSLAX46Y46*%
G04 Gerber Fmt 4.6, Leading zero omitted, Abs format (unit mm)*
G04 Created by KiCad (PCBNEW (5.1.6)-1) date 2023-05-06 22:04:27*
%MOMM*%
%LPD*%
G01*
G04 APERTURE LIST*
%ADD10C,2.000000*%
%ADD11C,0.800000*%
%ADD12C,0.120000*%
%ADD13C,0.250000*%
%ADD14C,0.200000*%
%ADD15C,0.100000*%
%ADD16C,0.254000*%
G04 APERTURE END LIST*
D10*
X216000000Y-70500000D02*
X239000000Y-77500000D01*
X196000000Y-70500000D02*
X173000000Y-77500000D01*
X213000000Y-73500000D02*
X199500000Y-73500000D01*
X216000000Y-70500000D02*
X213000000Y-73500000D01*
X196000000Y-70500000D02*
X199500000Y-73500000D01*
X239000000Y-107000000D02*
X239000000Y-77500000D01*
X173000000Y-107000000D02*
X173000000Y-77500000D01*
X239000000Y-156500000D02*
X225500000Y-156500000D01*
X173000000Y-156500000D02*
X186500000Y-156500000D01*
X239000000Y-127000000D02*
X239000000Y-156500000D01*
X173000000Y-127000000D02*
X173000000Y-156500000D01*
X211500000Y-156500000D02*
X200500000Y-156500000D01*
X213500000Y-154500000D02*
X211500000Y-156500000D01*
X223500000Y-154500000D02*
X213500000Y-154500000D01*
X198500000Y-154500000D02*
X200500000Y-156500000D01*
X188500000Y-154500000D02*
X198500000Y-154500000D01*
X186500000Y-156500000D02*
X188500000Y-154500000D01*
X225500000Y-156500000D02*
X223500000Y-154500000D01*
D11*
X236000000Y-133000000D02*
X236000000Y-135000000D01*
X233000000Y-135500000D02*
X235000000Y-135500000D01*
X233000000Y-129000000D02*
X235000000Y-129000000D01*
X236000000Y-129500000D02*
X236000000Y-131500000D01*
X233000000Y-132000000D02*
X235000000Y-132000000D01*
X231000000Y-133000000D02*
X231000000Y-135000000D01*
X228000000Y-135500000D02*
X230000000Y-135500000D01*
X227000000Y-133000000D02*
X227000000Y-135000000D01*
X227000000Y-129500000D02*
X227000000Y-131500000D01*
X231000000Y-129500000D02*
X231000000Y-131500000D01*
X228000000Y-129000000D02*
X230000000Y-129000000D01*
D12*
%TO.C,BAT1*%
X175130000Y-146670000D02*
X175130000Y-149330000D01*
X177730000Y-146670000D02*
X175130000Y-146670000D01*
X177730000Y-149330000D02*
X175130000Y-149330000D01*
X177730000Y-146670000D02*
X177730000Y-149330000D01*
X179000000Y-146670000D02*
X180330000Y-146670000D01*
X180330000Y-146670000D02*
X180330000Y-148000000D01*
%TO.C,C1*%
X197988748Y-154290000D02*
X198511252Y-154290000D01*
X197988748Y-155710000D02*
X198511252Y-155710000D01*
%TO.C,C2*%
X202511252Y-154210000D02*
X201988748Y-154210000D01*
X202511252Y-152790000D02*
X201988748Y-152790000D01*
%TO.C,C3*%
X193290000Y-136738748D02*
X193290000Y-137261252D01*
X194710000Y-136738748D02*
X194710000Y-137261252D01*
%TO.C,C4*%
X180763748Y-132710000D02*
X181286252Y-132710000D01*
X180763748Y-131290000D02*
X181286252Y-131290000D01*
%TO.C,C5*%
X184290000Y-136261252D02*
X184290000Y-135738748D01*
X185710000Y-136261252D02*
X185710000Y-135738748D01*
%TO.C,C6*%
X218290000Y-143738748D02*
X218290000Y-144261252D01*
X219710000Y-143738748D02*
X219710000Y-144261252D01*
%TO.C,C7*%
X187988748Y-141460000D02*
X188511252Y-141460000D01*
X187988748Y-140040000D02*
X188511252Y-140040000D01*
%TO.C,C8*%
X221960000Y-143738748D02*
X221960000Y-144261252D01*
X220540000Y-143738748D02*
X220540000Y-144261252D01*
%TO.C,C9*%
X186710000Y-145738748D02*
X186710000Y-146261252D01*
X185290000Y-145738748D02*
X185290000Y-146261252D01*
%TO.C,C10*%
X187290000Y-145738748D02*
X187290000Y-146261252D01*
X188710000Y-145738748D02*
X188710000Y-146261252D01*
%TO.C,C11*%
X184290000Y-140738748D02*
X184290000Y-141261252D01*
X185710000Y-140738748D02*
X185710000Y-141261252D01*
%TO.C,C12*%
X174738748Y-136290000D02*
X175261252Y-136290000D01*
X174738748Y-137710000D02*
X175261252Y-137710000D01*
%TO.C,C13*%
X174738748Y-135710000D02*
X175261252Y-135710000D01*
X174738748Y-134290000D02*
X175261252Y-134290000D01*
%TO.C,CN1*%
X223330000Y-86670000D02*
X223330000Y-88000000D01*
X222000000Y-86670000D02*
X223330000Y-86670000D01*
X220730000Y-86670000D02*
X220730000Y-89330000D01*
X220730000Y-89330000D02*
X215590000Y-89330000D01*
X220730000Y-86670000D02*
X215590000Y-86670000D01*
X215590000Y-86670000D02*
X215590000Y-89330000D01*
%TO.C,ENC_L1*%
X205830000Y-111550000D02*
X203170000Y-111550000D01*
X205830000Y-119230000D02*
X205830000Y-111550000D01*
X203170000Y-119230000D02*
X203170000Y-111550000D01*
X205830000Y-119230000D02*
X203170000Y-119230000D01*
X205830000Y-120500000D02*
X205830000Y-121830000D01*
X205830000Y-121830000D02*
X204500000Y-121830000D01*
%TO.C,ENC_R1*%
X208830000Y-121870000D02*
X207500000Y-121870000D01*
X208830000Y-120540000D02*
X208830000Y-121870000D01*
X208830000Y-119270000D02*
X206170000Y-119270000D01*
X206170000Y-119270000D02*
X206170000Y-111590000D01*
X208830000Y-119270000D02*
X208830000Y-111590000D01*
X208830000Y-111590000D02*
X206170000Y-111590000D01*
%TO.C,G1*%
X200920000Y-99590000D02*
X203580000Y-99590000D01*
X200920000Y-89370000D02*
X200920000Y-99590000D01*
X203580000Y-89370000D02*
X203580000Y-99590000D01*
X200920000Y-89370000D02*
X203580000Y-89370000D01*
X200920000Y-88100000D02*
X200920000Y-86770000D01*
X200920000Y-86770000D02*
X202250000Y-86770000D01*
%TO.C,G2*%
X211080000Y-99580000D02*
X209750000Y-99580000D01*
X211080000Y-98250000D02*
X211080000Y-99580000D01*
X211080000Y-96980000D02*
X208420000Y-96980000D01*
X208420000Y-96980000D02*
X208420000Y-86760000D01*
X211080000Y-96980000D02*
X211080000Y-86760000D01*
X211080000Y-86760000D02*
X208420000Y-86760000D01*
D13*
%TO.C,IC1*%
X200150000Y-136250000D02*
G75*
G03*
X200150000Y-136250000I-125000J0D01*
G01*
D14*
X201600000Y-149650000D02*
X201600000Y-136350000D01*
X214900000Y-149650000D02*
X201600000Y-149650000D01*
X214900000Y-136350000D02*
X214900000Y-149650000D01*
X201600000Y-136350000D02*
X214900000Y-136350000D01*
D15*
%TO.C,IC2*%
X182600000Y-144300000D02*
X182600000Y-144300000D01*
X182700000Y-144300000D02*
X182700000Y-144300000D01*
D14*
X178985000Y-138730000D02*
X178200000Y-138730000D01*
X178985000Y-145270000D02*
X178985000Y-138730000D01*
X178200000Y-145270000D02*
X178985000Y-145270000D01*
D15*
X182600000Y-144300000D02*
G75*
G02*
X182700000Y-144300000I50000J0D01*
G01*
X182700000Y-144300000D02*
G75*
G02*
X182600000Y-144300000I-50000J0D01*
G01*
D14*
%TO.C,IC3*%
X179125000Y-133500000D02*
X180475000Y-133500000D01*
X180825000Y-136450000D02*
X180825000Y-133550000D01*
X181175000Y-136450000D02*
X180825000Y-136450000D01*
X181175000Y-133550000D02*
X181175000Y-136450000D01*
X180825000Y-133550000D02*
X181175000Y-133550000D01*
D12*
%TO.C,L1*%
X230140000Y-157960000D02*
X233000000Y-157960000D01*
X230140000Y-156040000D02*
X230140000Y-157960000D01*
X233000000Y-156040000D02*
X230140000Y-156040000D01*
%TO.C,L2*%
X217000000Y-156040000D02*
X214140000Y-156040000D01*
X214140000Y-156040000D02*
X214140000Y-157960000D01*
X214140000Y-157960000D02*
X217000000Y-157960000D01*
%TO.C,L3*%
X192140000Y-157960000D02*
X195000000Y-157960000D01*
X192140000Y-156040000D02*
X192140000Y-157960000D01*
X195000000Y-156040000D02*
X192140000Y-156040000D01*
%TO.C,L4*%
X180000000Y-156040000D02*
X177140000Y-156040000D01*
X177140000Y-156040000D02*
X177140000Y-157960000D01*
X177140000Y-157960000D02*
X180000000Y-157960000D01*
%TO.C,MD1*%
X225720000Y-137670000D02*
X225720000Y-140330000D01*
X238480000Y-137670000D02*
X225720000Y-137670000D01*
X238480000Y-140330000D02*
X225720000Y-140330000D01*
X238480000Y-137670000D02*
X238480000Y-140330000D01*
X239750000Y-137670000D02*
X241080000Y-137670000D01*
X241080000Y-137670000D02*
X241080000Y-139000000D01*
%TO.C,MD2*%
X225670000Y-155830000D02*
X225670000Y-154500000D01*
X227000000Y-155830000D02*
X225670000Y-155830000D01*
X228270000Y-155830000D02*
X228270000Y-153170000D01*
X228270000Y-153170000D02*
X241030000Y-153170000D01*
X228270000Y-155830000D02*
X241030000Y-155830000D01*
X241030000Y-155830000D02*
X241030000Y-153170000D01*
%TO.C,R1*%
X220988748Y-91790000D02*
X221511252Y-91790000D01*
X220988748Y-93210000D02*
X221511252Y-93210000D01*
%TO.C,R2*%
X217761252Y-93210000D02*
X217238748Y-93210000D01*
X217761252Y-91790000D02*
X217238748Y-91790000D01*
%TO.C,R3*%
X196710000Y-137261252D02*
X196710000Y-136738748D01*
X195290000Y-137261252D02*
X195290000Y-136738748D01*
%TO.C,R4*%
X194290000Y-140738748D02*
X194290000Y-141261252D01*
X195710000Y-140738748D02*
X195710000Y-141261252D01*
%TO.C,R5*%
X194738748Y-91790000D02*
X195261252Y-91790000D01*
X194738748Y-93210000D02*
X195261252Y-93210000D01*
%TO.C,R6*%
X205738748Y-154210000D02*
X206261252Y-154210000D01*
X205738748Y-152790000D02*
X206261252Y-152790000D01*
%TO.C,R7*%
X219738748Y-153210000D02*
X220261252Y-153210000D01*
X219738748Y-151790000D02*
X220261252Y-151790000D01*
%TO.C,R8*%
X219738748Y-153790000D02*
X220261252Y-153790000D01*
X219738748Y-155210000D02*
X220261252Y-155210000D01*
%TO.C,R9*%
X186738748Y-153710000D02*
X187261252Y-153710000D01*
X186738748Y-152290000D02*
X187261252Y-152290000D01*
%TO.C,R10*%
X186738748Y-149290000D02*
X187261252Y-149290000D01*
X186738748Y-150710000D02*
X187261252Y-150710000D01*
%TO.C,R11*%
X174710000Y-104261252D02*
X174710000Y-103738748D01*
X173290000Y-104261252D02*
X173290000Y-103738748D01*
%TO.C,R12*%
X183738748Y-84290000D02*
X184261252Y-84290000D01*
X183738748Y-85710000D02*
X184261252Y-85710000D01*
%TO.C,R13*%
X213738748Y-81710000D02*
X214261252Y-81710000D01*
X213738748Y-80290000D02*
X214261252Y-80290000D01*
%TO.C,R14*%
X228261252Y-84290000D02*
X227738748Y-84290000D01*
X228261252Y-85710000D02*
X227738748Y-85710000D01*
%TO.C,R15*%
X238735000Y-103738748D02*
X238735000Y-104261252D01*
X237315000Y-103738748D02*
X237315000Y-104261252D01*
%TO.C,SW1*%
X196330000Y-86670000D02*
X196330000Y-88000000D01*
X195000000Y-86670000D02*
X196330000Y-86670000D01*
X193730000Y-86670000D02*
X193730000Y-89330000D01*
X193730000Y-89330000D02*
X188590000Y-89330000D01*
X193730000Y-86670000D02*
X188590000Y-86670000D01*
X188590000Y-86670000D02*
X188590000Y-89330000D01*
D14*
%TO.C,SW3*%
X204050000Y-155300000D02*
X204050000Y-155050000D01*
X204050000Y-155050000D02*
X205200000Y-155050000D01*
X206800000Y-155050000D02*
X207950000Y-155050000D01*
X207950000Y-155050000D02*
X207950000Y-155300000D01*
X207950000Y-157700000D02*
X207950000Y-157950000D01*
X207950000Y-157950000D02*
X206800000Y-157950000D01*
X204050000Y-157700000D02*
X204050000Y-157950000D01*
X204050000Y-157950000D02*
X205200000Y-157950000D01*
X202700000Y-156500000D02*
X202700000Y-156500000D01*
X202800000Y-156500000D02*
X202800000Y-156500000D01*
X202700000Y-156500000D02*
X202700000Y-156500000D01*
X202800000Y-156500000D02*
G75*
G02*
X202700000Y-156500000I-50000J0D01*
G01*
X202700000Y-156500000D02*
G75*
G02*
X202800000Y-156500000I50000J0D01*
G01*
X202800000Y-156500000D02*
G75*
G02*
X202700000Y-156500000I-50000J0D01*
G01*
D12*
%TO.C,SW4*%
X172590000Y-151670000D02*
X172590000Y-154330000D01*
X177730000Y-151670000D02*
X172590000Y-151670000D01*
X177730000Y-154330000D02*
X172590000Y-154330000D01*
X177730000Y-151670000D02*
X177730000Y-154330000D01*
X179000000Y-151670000D02*
X180330000Y-151670000D01*
X180330000Y-151670000D02*
X180330000Y-153000000D01*
D14*
%TO.C,TR0*%
X179650000Y-105500000D02*
X178650000Y-105500000D01*
X178300000Y-102550000D02*
X178300000Y-105450000D01*
X177700000Y-102550000D02*
X178300000Y-102550000D01*
X177700000Y-105450000D02*
X177700000Y-102550000D01*
X178300000Y-105450000D02*
X177700000Y-105450000D01*
%TO.C,TR1*%
X184300000Y-89450000D02*
X183700000Y-89450000D01*
X183700000Y-89450000D02*
X183700000Y-86550000D01*
X183700000Y-86550000D02*
X184300000Y-86550000D01*
X184300000Y-86550000D02*
X184300000Y-89450000D01*
X185650000Y-89500000D02*
X184650000Y-89500000D01*
%TO.C,TR2*%
X195350000Y-79500000D02*
X196350000Y-79500000D01*
X196700000Y-82450000D02*
X196700000Y-79550000D01*
X197300000Y-82450000D02*
X196700000Y-82450000D01*
X197300000Y-79550000D02*
X197300000Y-82450000D01*
X196700000Y-79550000D02*
X197300000Y-79550000D01*
%TO.C,TR3*%
X227700000Y-86550000D02*
X228300000Y-86550000D01*
X228300000Y-86550000D02*
X228300000Y-89450000D01*
X228300000Y-89450000D02*
X227700000Y-89450000D01*
X227700000Y-89450000D02*
X227700000Y-86550000D01*
X226350000Y-86500000D02*
X227350000Y-86500000D01*
%TO.C,TR4*%
X231350000Y-102500000D02*
X232350000Y-102500000D01*
X232700000Y-105450000D02*
X232700000Y-102550000D01*
X233300000Y-105450000D02*
X232700000Y-105450000D01*
X233300000Y-102550000D02*
X233300000Y-105450000D01*
X232700000Y-102550000D02*
X233300000Y-102550000D01*
D15*
%TO.C,X1*%
X191100000Y-145000000D02*
X191100000Y-147000000D01*
X192900000Y-145000000D02*
X192900000Y-147000000D01*
X191900000Y-142800000D02*
X191900000Y-142800000D01*
X192000000Y-142800000D02*
X192000000Y-142800000D01*
X191900000Y-142800000D02*
G75*
G02*
X192000000Y-142800000I50000J0D01*
G01*
X192000000Y-142800000D02*
G75*
G02*
X191900000Y-142800000I-50000J0D01*
G01*
D14*
%TO.C,X2*%
X192000000Y-149900000D02*
X192000000Y-149900000D01*
X192000000Y-150000000D02*
X192000000Y-150000000D01*
X192000000Y-149900000D02*
X192000000Y-149900000D01*
X192000000Y-150000000D02*
G75*
G02*
X192000000Y-149900000I0J50000D01*
G01*
X192000000Y-149900000D02*
G75*
G02*
X192000000Y-150000000I0J-50000D01*
G01*
X192000000Y-150000000D02*
G75*
G02*
X192000000Y-149900000I0J50000D01*
G01*
%TO.C,IC1*%
D16*
X207010238Y-143574523D02*
X207010238Y-142304523D01*
X208340714Y-143453571D02*
X208280238Y-143514047D01*
X208098809Y-143574523D01*
X207977857Y-143574523D01*
X207796428Y-143514047D01*
X207675476Y-143393095D01*
X207615000Y-143272142D01*
X207554523Y-143030238D01*
X207554523Y-142848809D01*
X207615000Y-142606904D01*
X207675476Y-142485952D01*
X207796428Y-142365000D01*
X207977857Y-142304523D01*
X208098809Y-142304523D01*
X208280238Y-142365000D01*
X208340714Y-142425476D01*
X209550238Y-143574523D02*
X208824523Y-143574523D01*
X209187380Y-143574523D02*
X209187380Y-142304523D01*
X209066428Y-142485952D01*
X208945476Y-142606904D01*
X208824523Y-142667380D01*
%TD*%
M02*
