%TF.GenerationSoftware,KiCad,Pcbnew,(5.1.6)-1*%
%TF.CreationDate,2023-05-06T22:04:27+09:00*%
%TF.ProjectId,RX621,52583632-312e-46b6-9963-61645f706362,rev?*%
%TF.SameCoordinates,Original*%
%TF.FileFunction,Paste,Top*%
%TF.FilePolarity,Positive*%
%FSLAX46Y46*%
G04 Gerber Fmt 4.6, Leading zero omitted, Abs format (unit mm)*
G04 Created by KiCad (PCBNEW (5.1.6)-1) date 2023-05-06 22:04:27*
%MOMM*%
%LPD*%
G01*
G04 APERTURE LIST*
%ADD10R,1.475000X0.300000*%
%ADD11R,0.300000X1.475000*%
%ADD12R,2.500000X2.000000*%
%ADD13R,6.000000X6.000000*%
%ADD14R,1.350000X0.600000*%
%ADD15R,1.050000X1.600000*%
%ADD16R,1.000000X0.600000*%
%ADD17R,2.200000X1.300000*%
%ADD18R,1.900000X0.400000*%
G04 APERTURE END LIST*
%TO.C,C1*%
G36*
G01*
X198700000Y-155450001D02*
X198700000Y-154549999D01*
G75*
G02*
X198949999Y-154300000I249999J0D01*
G01*
X199600001Y-154300000D01*
G75*
G02*
X199850000Y-154549999I0J-249999D01*
G01*
X199850000Y-155450001D01*
G75*
G02*
X199600001Y-155700000I-249999J0D01*
G01*
X198949999Y-155700000D01*
G75*
G02*
X198700000Y-155450001I0J249999D01*
G01*
G37*
G36*
G01*
X196650000Y-155450001D02*
X196650000Y-154549999D01*
G75*
G02*
X196899999Y-154300000I249999J0D01*
G01*
X197550001Y-154300000D01*
G75*
G02*
X197800000Y-154549999I0J-249999D01*
G01*
X197800000Y-155450001D01*
G75*
G02*
X197550001Y-155700000I-249999J0D01*
G01*
X196899999Y-155700000D01*
G75*
G02*
X196650000Y-155450001I0J249999D01*
G01*
G37*
%TD*%
%TO.C,C2*%
G36*
G01*
X201800000Y-153049999D02*
X201800000Y-153950001D01*
G75*
G02*
X201550001Y-154200000I-249999J0D01*
G01*
X200899999Y-154200000D01*
G75*
G02*
X200650000Y-153950001I0J249999D01*
G01*
X200650000Y-153049999D01*
G75*
G02*
X200899999Y-152800000I249999J0D01*
G01*
X201550001Y-152800000D01*
G75*
G02*
X201800000Y-153049999I0J-249999D01*
G01*
G37*
G36*
G01*
X203850000Y-153049999D02*
X203850000Y-153950001D01*
G75*
G02*
X203600001Y-154200000I-249999J0D01*
G01*
X202949999Y-154200000D01*
G75*
G02*
X202700000Y-153950001I0J249999D01*
G01*
X202700000Y-153049999D01*
G75*
G02*
X202949999Y-152800000I249999J0D01*
G01*
X203600001Y-152800000D01*
G75*
G02*
X203850000Y-153049999I0J-249999D01*
G01*
G37*
%TD*%
%TO.C,C3*%
G36*
G01*
X193549999Y-135400000D02*
X194450001Y-135400000D01*
G75*
G02*
X194700000Y-135649999I0J-249999D01*
G01*
X194700000Y-136300001D01*
G75*
G02*
X194450001Y-136550000I-249999J0D01*
G01*
X193549999Y-136550000D01*
G75*
G02*
X193300000Y-136300001I0J249999D01*
G01*
X193300000Y-135649999D01*
G75*
G02*
X193549999Y-135400000I249999J0D01*
G01*
G37*
G36*
G01*
X193549999Y-137450000D02*
X194450001Y-137450000D01*
G75*
G02*
X194700000Y-137699999I0J-249999D01*
G01*
X194700000Y-138350001D01*
G75*
G02*
X194450001Y-138600000I-249999J0D01*
G01*
X193549999Y-138600000D01*
G75*
G02*
X193300000Y-138350001I0J249999D01*
G01*
X193300000Y-137699999D01*
G75*
G02*
X193549999Y-137450000I249999J0D01*
G01*
G37*
%TD*%
%TO.C,C4*%
G36*
G01*
X179425000Y-132450001D02*
X179425000Y-131549999D01*
G75*
G02*
X179674999Y-131300000I249999J0D01*
G01*
X180325001Y-131300000D01*
G75*
G02*
X180575000Y-131549999I0J-249999D01*
G01*
X180575000Y-132450001D01*
G75*
G02*
X180325001Y-132700000I-249999J0D01*
G01*
X179674999Y-132700000D01*
G75*
G02*
X179425000Y-132450001I0J249999D01*
G01*
G37*
G36*
G01*
X181475000Y-132450001D02*
X181475000Y-131549999D01*
G75*
G02*
X181724999Y-131300000I249999J0D01*
G01*
X182375001Y-131300000D01*
G75*
G02*
X182625000Y-131549999I0J-249999D01*
G01*
X182625000Y-132450001D01*
G75*
G02*
X182375001Y-132700000I-249999J0D01*
G01*
X181724999Y-132700000D01*
G75*
G02*
X181475000Y-132450001I0J249999D01*
G01*
G37*
%TD*%
%TO.C,C5*%
G36*
G01*
X185450001Y-135550000D02*
X184549999Y-135550000D01*
G75*
G02*
X184300000Y-135300001I0J249999D01*
G01*
X184300000Y-134649999D01*
G75*
G02*
X184549999Y-134400000I249999J0D01*
G01*
X185450001Y-134400000D01*
G75*
G02*
X185700000Y-134649999I0J-249999D01*
G01*
X185700000Y-135300001D01*
G75*
G02*
X185450001Y-135550000I-249999J0D01*
G01*
G37*
G36*
G01*
X185450001Y-137600000D02*
X184549999Y-137600000D01*
G75*
G02*
X184300000Y-137350001I0J249999D01*
G01*
X184300000Y-136699999D01*
G75*
G02*
X184549999Y-136450000I249999J0D01*
G01*
X185450001Y-136450000D01*
G75*
G02*
X185700000Y-136699999I0J-249999D01*
G01*
X185700000Y-137350001D01*
G75*
G02*
X185450001Y-137600000I-249999J0D01*
G01*
G37*
%TD*%
%TO.C,C6*%
G36*
G01*
X218549999Y-142400000D02*
X219450001Y-142400000D01*
G75*
G02*
X219700000Y-142649999I0J-249999D01*
G01*
X219700000Y-143300001D01*
G75*
G02*
X219450001Y-143550000I-249999J0D01*
G01*
X218549999Y-143550000D01*
G75*
G02*
X218300000Y-143300001I0J249999D01*
G01*
X218300000Y-142649999D01*
G75*
G02*
X218549999Y-142400000I249999J0D01*
G01*
G37*
G36*
G01*
X218549999Y-144450000D02*
X219450001Y-144450000D01*
G75*
G02*
X219700000Y-144699999I0J-249999D01*
G01*
X219700000Y-145350001D01*
G75*
G02*
X219450001Y-145600000I-249999J0D01*
G01*
X218549999Y-145600000D01*
G75*
G02*
X218300000Y-145350001I0J249999D01*
G01*
X218300000Y-144699999D01*
G75*
G02*
X218549999Y-144450000I249999J0D01*
G01*
G37*
%TD*%
%TO.C,C7*%
G36*
G01*
X186650000Y-141200001D02*
X186650000Y-140299999D01*
G75*
G02*
X186899999Y-140050000I249999J0D01*
G01*
X187550001Y-140050000D01*
G75*
G02*
X187800000Y-140299999I0J-249999D01*
G01*
X187800000Y-141200001D01*
G75*
G02*
X187550001Y-141450000I-249999J0D01*
G01*
X186899999Y-141450000D01*
G75*
G02*
X186650000Y-141200001I0J249999D01*
G01*
G37*
G36*
G01*
X188700000Y-141200001D02*
X188700000Y-140299999D01*
G75*
G02*
X188949999Y-140050000I249999J0D01*
G01*
X189600001Y-140050000D01*
G75*
G02*
X189850000Y-140299999I0J-249999D01*
G01*
X189850000Y-141200001D01*
G75*
G02*
X189600001Y-141450000I-249999J0D01*
G01*
X188949999Y-141450000D01*
G75*
G02*
X188700000Y-141200001I0J249999D01*
G01*
G37*
%TD*%
%TO.C,C8*%
G36*
G01*
X220799999Y-144450000D02*
X221700001Y-144450000D01*
G75*
G02*
X221950000Y-144699999I0J-249999D01*
G01*
X221950000Y-145350001D01*
G75*
G02*
X221700001Y-145600000I-249999J0D01*
G01*
X220799999Y-145600000D01*
G75*
G02*
X220550000Y-145350001I0J249999D01*
G01*
X220550000Y-144699999D01*
G75*
G02*
X220799999Y-144450000I249999J0D01*
G01*
G37*
G36*
G01*
X220799999Y-142400000D02*
X221700001Y-142400000D01*
G75*
G02*
X221950000Y-142649999I0J-249999D01*
G01*
X221950000Y-143300001D01*
G75*
G02*
X221700001Y-143550000I-249999J0D01*
G01*
X220799999Y-143550000D01*
G75*
G02*
X220550000Y-143300001I0J249999D01*
G01*
X220550000Y-142649999D01*
G75*
G02*
X220799999Y-142400000I249999J0D01*
G01*
G37*
%TD*%
%TO.C,C9*%
G36*
G01*
X185549999Y-146450000D02*
X186450001Y-146450000D01*
G75*
G02*
X186700000Y-146699999I0J-249999D01*
G01*
X186700000Y-147350001D01*
G75*
G02*
X186450001Y-147600000I-249999J0D01*
G01*
X185549999Y-147600000D01*
G75*
G02*
X185300000Y-147350001I0J249999D01*
G01*
X185300000Y-146699999D01*
G75*
G02*
X185549999Y-146450000I249999J0D01*
G01*
G37*
G36*
G01*
X185549999Y-144400000D02*
X186450001Y-144400000D01*
G75*
G02*
X186700000Y-144649999I0J-249999D01*
G01*
X186700000Y-145300001D01*
G75*
G02*
X186450001Y-145550000I-249999J0D01*
G01*
X185549999Y-145550000D01*
G75*
G02*
X185300000Y-145300001I0J249999D01*
G01*
X185300000Y-144649999D01*
G75*
G02*
X185549999Y-144400000I249999J0D01*
G01*
G37*
%TD*%
%TO.C,C10*%
G36*
G01*
X187549999Y-144400000D02*
X188450001Y-144400000D01*
G75*
G02*
X188700000Y-144649999I0J-249999D01*
G01*
X188700000Y-145300001D01*
G75*
G02*
X188450001Y-145550000I-249999J0D01*
G01*
X187549999Y-145550000D01*
G75*
G02*
X187300000Y-145300001I0J249999D01*
G01*
X187300000Y-144649999D01*
G75*
G02*
X187549999Y-144400000I249999J0D01*
G01*
G37*
G36*
G01*
X187549999Y-146450000D02*
X188450001Y-146450000D01*
G75*
G02*
X188700000Y-146699999I0J-249999D01*
G01*
X188700000Y-147350001D01*
G75*
G02*
X188450001Y-147600000I-249999J0D01*
G01*
X187549999Y-147600000D01*
G75*
G02*
X187300000Y-147350001I0J249999D01*
G01*
X187300000Y-146699999D01*
G75*
G02*
X187549999Y-146450000I249999J0D01*
G01*
G37*
%TD*%
%TO.C,C11*%
G36*
G01*
X184549999Y-139400000D02*
X185450001Y-139400000D01*
G75*
G02*
X185700000Y-139649999I0J-249999D01*
G01*
X185700000Y-140300001D01*
G75*
G02*
X185450001Y-140550000I-249999J0D01*
G01*
X184549999Y-140550000D01*
G75*
G02*
X184300000Y-140300001I0J249999D01*
G01*
X184300000Y-139649999D01*
G75*
G02*
X184549999Y-139400000I249999J0D01*
G01*
G37*
G36*
G01*
X184549999Y-141450000D02*
X185450001Y-141450000D01*
G75*
G02*
X185700000Y-141699999I0J-249999D01*
G01*
X185700000Y-142350001D01*
G75*
G02*
X185450001Y-142600000I-249999J0D01*
G01*
X184549999Y-142600000D01*
G75*
G02*
X184300000Y-142350001I0J249999D01*
G01*
X184300000Y-141699999D01*
G75*
G02*
X184549999Y-141450000I249999J0D01*
G01*
G37*
%TD*%
%TO.C,C12*%
G36*
G01*
X175450000Y-137450001D02*
X175450000Y-136549999D01*
G75*
G02*
X175699999Y-136300000I249999J0D01*
G01*
X176350001Y-136300000D01*
G75*
G02*
X176600000Y-136549999I0J-249999D01*
G01*
X176600000Y-137450001D01*
G75*
G02*
X176350001Y-137700000I-249999J0D01*
G01*
X175699999Y-137700000D01*
G75*
G02*
X175450000Y-137450001I0J249999D01*
G01*
G37*
G36*
G01*
X173400000Y-137450001D02*
X173400000Y-136549999D01*
G75*
G02*
X173649999Y-136300000I249999J0D01*
G01*
X174300001Y-136300000D01*
G75*
G02*
X174550000Y-136549999I0J-249999D01*
G01*
X174550000Y-137450001D01*
G75*
G02*
X174300001Y-137700000I-249999J0D01*
G01*
X173649999Y-137700000D01*
G75*
G02*
X173400000Y-137450001I0J249999D01*
G01*
G37*
%TD*%
%TO.C,C13*%
G36*
G01*
X173400000Y-135450001D02*
X173400000Y-134549999D01*
G75*
G02*
X173649999Y-134300000I249999J0D01*
G01*
X174300001Y-134300000D01*
G75*
G02*
X174550000Y-134549999I0J-249999D01*
G01*
X174550000Y-135450001D01*
G75*
G02*
X174300001Y-135700000I-249999J0D01*
G01*
X173649999Y-135700000D01*
G75*
G02*
X173400000Y-135450001I0J249999D01*
G01*
G37*
G36*
G01*
X175450000Y-135450001D02*
X175450000Y-134549999D01*
G75*
G02*
X175699999Y-134300000I249999J0D01*
G01*
X176350001Y-134300000D01*
G75*
G02*
X176600000Y-134549999I0J-249999D01*
G01*
X176600000Y-135450001D01*
G75*
G02*
X176350001Y-135700000I-249999J0D01*
G01*
X175699999Y-135700000D01*
G75*
G02*
X175450000Y-135450001I0J249999D01*
G01*
G37*
%TD*%
D10*
%TO.C,IC1*%
X200512000Y-137000000D03*
X200512000Y-137500000D03*
X200512000Y-138000000D03*
X200512000Y-138500000D03*
X200512000Y-139000000D03*
X200512000Y-139500000D03*
X200512000Y-140000000D03*
X200512000Y-140500000D03*
X200512000Y-141000000D03*
X200512000Y-141500000D03*
X200512000Y-142000000D03*
X200512000Y-142500000D03*
X200512000Y-143000000D03*
X200512000Y-143500000D03*
X200512000Y-144000000D03*
X200512000Y-144500000D03*
X200512000Y-145000000D03*
X200512000Y-145500000D03*
X200512000Y-146000000D03*
X200512000Y-146500000D03*
X200512000Y-147000000D03*
X200512000Y-147500000D03*
X200512000Y-148000000D03*
X200512000Y-148500000D03*
X200512000Y-149000000D03*
D11*
X202250000Y-150738000D03*
X202750000Y-150738000D03*
X203250000Y-150738000D03*
X203750000Y-150738000D03*
X204250000Y-150738000D03*
X204750000Y-150738000D03*
X205250000Y-150738000D03*
X205750000Y-150738000D03*
X206250000Y-150738000D03*
X206750000Y-150738000D03*
X207250000Y-150738000D03*
X207750000Y-150738000D03*
X208250000Y-150738000D03*
X208750000Y-150738000D03*
X209250000Y-150738000D03*
X209750000Y-150738000D03*
X210250000Y-150738000D03*
X210750000Y-150738000D03*
X211250000Y-150738000D03*
X211750000Y-150738000D03*
X212250000Y-150738000D03*
X212750000Y-150738000D03*
X213250000Y-150738000D03*
X213750000Y-150738000D03*
X214250000Y-150738000D03*
D10*
X215988000Y-149000000D03*
X215988000Y-148500000D03*
X215988000Y-148000000D03*
X215988000Y-147500000D03*
X215988000Y-147000000D03*
X215988000Y-146500000D03*
X215988000Y-146000000D03*
X215988000Y-145500000D03*
X215988000Y-145000000D03*
X215988000Y-144500000D03*
X215988000Y-144000000D03*
X215988000Y-143500000D03*
X215988000Y-143000000D03*
X215988000Y-142500000D03*
X215988000Y-142000000D03*
X215988000Y-141500000D03*
X215988000Y-141000000D03*
X215988000Y-140500000D03*
X215988000Y-140000000D03*
X215988000Y-139500000D03*
X215988000Y-139000000D03*
X215988000Y-138500000D03*
X215988000Y-138000000D03*
X215988000Y-137500000D03*
X215988000Y-137000000D03*
D11*
X214250000Y-135262000D03*
X213750000Y-135262000D03*
X213250000Y-135262000D03*
X212750000Y-135262000D03*
X212250000Y-135262000D03*
X211750000Y-135262000D03*
X211250000Y-135262000D03*
X210750000Y-135262000D03*
X210250000Y-135262000D03*
X209750000Y-135262000D03*
X209250000Y-135262000D03*
X208750000Y-135262000D03*
X208250000Y-135262000D03*
X207750000Y-135262000D03*
X207250000Y-135262000D03*
X206750000Y-135262000D03*
X206250000Y-135262000D03*
X205750000Y-135262000D03*
X205250000Y-135262000D03*
X204750000Y-135262000D03*
X204250000Y-135262000D03*
X203750000Y-135262000D03*
X203250000Y-135262000D03*
X202750000Y-135262000D03*
X202250000Y-135262000D03*
%TD*%
D12*
%TO.C,IC2*%
X181055000Y-144300000D03*
D13*
X174805000Y-142000000D03*
D12*
X181055000Y-139700000D03*
%TD*%
D14*
%TO.C,IC3*%
X179800000Y-134050000D03*
X179800000Y-135000000D03*
X179800000Y-135950000D03*
X182200000Y-135950000D03*
X182200000Y-134050000D03*
%TD*%
%TO.C,L1*%
G36*
G01*
X230400000Y-157450001D02*
X230400000Y-156549999D01*
G75*
G02*
X230649999Y-156300000I249999J0D01*
G01*
X231300001Y-156300000D01*
G75*
G02*
X231550000Y-156549999I0J-249999D01*
G01*
X231550000Y-157450001D01*
G75*
G02*
X231300001Y-157700000I-249999J0D01*
G01*
X230649999Y-157700000D01*
G75*
G02*
X230400000Y-157450001I0J249999D01*
G01*
G37*
G36*
G01*
X232450000Y-157450001D02*
X232450000Y-156549999D01*
G75*
G02*
X232699999Y-156300000I249999J0D01*
G01*
X233350001Y-156300000D01*
G75*
G02*
X233600000Y-156549999I0J-249999D01*
G01*
X233600000Y-157450001D01*
G75*
G02*
X233350001Y-157700000I-249999J0D01*
G01*
X232699999Y-157700000D01*
G75*
G02*
X232450000Y-157450001I0J249999D01*
G01*
G37*
%TD*%
%TO.C,L2*%
G36*
G01*
X216450000Y-157450001D02*
X216450000Y-156549999D01*
G75*
G02*
X216699999Y-156300000I249999J0D01*
G01*
X217350001Y-156300000D01*
G75*
G02*
X217600000Y-156549999I0J-249999D01*
G01*
X217600000Y-157450001D01*
G75*
G02*
X217350001Y-157700000I-249999J0D01*
G01*
X216699999Y-157700000D01*
G75*
G02*
X216450000Y-157450001I0J249999D01*
G01*
G37*
G36*
G01*
X214400000Y-157450001D02*
X214400000Y-156549999D01*
G75*
G02*
X214649999Y-156300000I249999J0D01*
G01*
X215300001Y-156300000D01*
G75*
G02*
X215550000Y-156549999I0J-249999D01*
G01*
X215550000Y-157450001D01*
G75*
G02*
X215300001Y-157700000I-249999J0D01*
G01*
X214649999Y-157700000D01*
G75*
G02*
X214400000Y-157450001I0J249999D01*
G01*
G37*
%TD*%
%TO.C,L3*%
G36*
G01*
X192400000Y-157450001D02*
X192400000Y-156549999D01*
G75*
G02*
X192649999Y-156300000I249999J0D01*
G01*
X193300001Y-156300000D01*
G75*
G02*
X193550000Y-156549999I0J-249999D01*
G01*
X193550000Y-157450001D01*
G75*
G02*
X193300001Y-157700000I-249999J0D01*
G01*
X192649999Y-157700000D01*
G75*
G02*
X192400000Y-157450001I0J249999D01*
G01*
G37*
G36*
G01*
X194450000Y-157450001D02*
X194450000Y-156549999D01*
G75*
G02*
X194699999Y-156300000I249999J0D01*
G01*
X195350001Y-156300000D01*
G75*
G02*
X195600000Y-156549999I0J-249999D01*
G01*
X195600000Y-157450001D01*
G75*
G02*
X195350001Y-157700000I-249999J0D01*
G01*
X194699999Y-157700000D01*
G75*
G02*
X194450000Y-157450001I0J249999D01*
G01*
G37*
%TD*%
%TO.C,L4*%
G36*
G01*
X179450000Y-157450001D02*
X179450000Y-156549999D01*
G75*
G02*
X179699999Y-156300000I249999J0D01*
G01*
X180350001Y-156300000D01*
G75*
G02*
X180600000Y-156549999I0J-249999D01*
G01*
X180600000Y-157450001D01*
G75*
G02*
X180350001Y-157700000I-249999J0D01*
G01*
X179699999Y-157700000D01*
G75*
G02*
X179450000Y-157450001I0J249999D01*
G01*
G37*
G36*
G01*
X177400000Y-157450001D02*
X177400000Y-156549999D01*
G75*
G02*
X177649999Y-156300000I249999J0D01*
G01*
X178300001Y-156300000D01*
G75*
G02*
X178550000Y-156549999I0J-249999D01*
G01*
X178550000Y-157450001D01*
G75*
G02*
X178300001Y-157700000I-249999J0D01*
G01*
X177649999Y-157700000D01*
G75*
G02*
X177400000Y-157450001I0J249999D01*
G01*
G37*
%TD*%
%TO.C,R1*%
G36*
G01*
X221700000Y-92950001D02*
X221700000Y-92049999D01*
G75*
G02*
X221949999Y-91800000I249999J0D01*
G01*
X222600001Y-91800000D01*
G75*
G02*
X222850000Y-92049999I0J-249999D01*
G01*
X222850000Y-92950001D01*
G75*
G02*
X222600001Y-93200000I-249999J0D01*
G01*
X221949999Y-93200000D01*
G75*
G02*
X221700000Y-92950001I0J249999D01*
G01*
G37*
G36*
G01*
X219650000Y-92950001D02*
X219650000Y-92049999D01*
G75*
G02*
X219899999Y-91800000I249999J0D01*
G01*
X220550001Y-91800000D01*
G75*
G02*
X220800000Y-92049999I0J-249999D01*
G01*
X220800000Y-92950001D01*
G75*
G02*
X220550001Y-93200000I-249999J0D01*
G01*
X219899999Y-93200000D01*
G75*
G02*
X219650000Y-92950001I0J249999D01*
G01*
G37*
%TD*%
%TO.C,R2*%
G36*
G01*
X217050000Y-92049999D02*
X217050000Y-92950001D01*
G75*
G02*
X216800001Y-93200000I-249999J0D01*
G01*
X216149999Y-93200000D01*
G75*
G02*
X215900000Y-92950001I0J249999D01*
G01*
X215900000Y-92049999D01*
G75*
G02*
X216149999Y-91800000I249999J0D01*
G01*
X216800001Y-91800000D01*
G75*
G02*
X217050000Y-92049999I0J-249999D01*
G01*
G37*
G36*
G01*
X219100000Y-92049999D02*
X219100000Y-92950001D01*
G75*
G02*
X218850001Y-93200000I-249999J0D01*
G01*
X218199999Y-93200000D01*
G75*
G02*
X217950000Y-92950001I0J249999D01*
G01*
X217950000Y-92049999D01*
G75*
G02*
X218199999Y-91800000I249999J0D01*
G01*
X218850001Y-91800000D01*
G75*
G02*
X219100000Y-92049999I0J-249999D01*
G01*
G37*
%TD*%
%TO.C,R3*%
G36*
G01*
X196450001Y-138600000D02*
X195549999Y-138600000D01*
G75*
G02*
X195300000Y-138350001I0J249999D01*
G01*
X195300000Y-137699999D01*
G75*
G02*
X195549999Y-137450000I249999J0D01*
G01*
X196450001Y-137450000D01*
G75*
G02*
X196700000Y-137699999I0J-249999D01*
G01*
X196700000Y-138350001D01*
G75*
G02*
X196450001Y-138600000I-249999J0D01*
G01*
G37*
G36*
G01*
X196450001Y-136550000D02*
X195549999Y-136550000D01*
G75*
G02*
X195300000Y-136300001I0J249999D01*
G01*
X195300000Y-135649999D01*
G75*
G02*
X195549999Y-135400000I249999J0D01*
G01*
X196450001Y-135400000D01*
G75*
G02*
X196700000Y-135649999I0J-249999D01*
G01*
X196700000Y-136300001D01*
G75*
G02*
X196450001Y-136550000I-249999J0D01*
G01*
G37*
%TD*%
%TO.C,R4*%
G36*
G01*
X194549999Y-139400000D02*
X195450001Y-139400000D01*
G75*
G02*
X195700000Y-139649999I0J-249999D01*
G01*
X195700000Y-140300001D01*
G75*
G02*
X195450001Y-140550000I-249999J0D01*
G01*
X194549999Y-140550000D01*
G75*
G02*
X194300000Y-140300001I0J249999D01*
G01*
X194300000Y-139649999D01*
G75*
G02*
X194549999Y-139400000I249999J0D01*
G01*
G37*
G36*
G01*
X194549999Y-141450000D02*
X195450001Y-141450000D01*
G75*
G02*
X195700000Y-141699999I0J-249999D01*
G01*
X195700000Y-142350001D01*
G75*
G02*
X195450001Y-142600000I-249999J0D01*
G01*
X194549999Y-142600000D01*
G75*
G02*
X194300000Y-142350001I0J249999D01*
G01*
X194300000Y-141699999D01*
G75*
G02*
X194549999Y-141450000I249999J0D01*
G01*
G37*
%TD*%
%TO.C,R5*%
G36*
G01*
X195450000Y-92950001D02*
X195450000Y-92049999D01*
G75*
G02*
X195699999Y-91800000I249999J0D01*
G01*
X196350001Y-91800000D01*
G75*
G02*
X196600000Y-92049999I0J-249999D01*
G01*
X196600000Y-92950001D01*
G75*
G02*
X196350001Y-93200000I-249999J0D01*
G01*
X195699999Y-93200000D01*
G75*
G02*
X195450000Y-92950001I0J249999D01*
G01*
G37*
G36*
G01*
X193400000Y-92950001D02*
X193400000Y-92049999D01*
G75*
G02*
X193649999Y-91800000I249999J0D01*
G01*
X194300001Y-91800000D01*
G75*
G02*
X194550000Y-92049999I0J-249999D01*
G01*
X194550000Y-92950001D01*
G75*
G02*
X194300001Y-93200000I-249999J0D01*
G01*
X193649999Y-93200000D01*
G75*
G02*
X193400000Y-92950001I0J249999D01*
G01*
G37*
%TD*%
%TO.C,R6*%
G36*
G01*
X204400000Y-153950001D02*
X204400000Y-153049999D01*
G75*
G02*
X204649999Y-152800000I249999J0D01*
G01*
X205300001Y-152800000D01*
G75*
G02*
X205550000Y-153049999I0J-249999D01*
G01*
X205550000Y-153950001D01*
G75*
G02*
X205300001Y-154200000I-249999J0D01*
G01*
X204649999Y-154200000D01*
G75*
G02*
X204400000Y-153950001I0J249999D01*
G01*
G37*
G36*
G01*
X206450000Y-153950001D02*
X206450000Y-153049999D01*
G75*
G02*
X206699999Y-152800000I249999J0D01*
G01*
X207350001Y-152800000D01*
G75*
G02*
X207600000Y-153049999I0J-249999D01*
G01*
X207600000Y-153950001D01*
G75*
G02*
X207350001Y-154200000I-249999J0D01*
G01*
X206699999Y-154200000D01*
G75*
G02*
X206450000Y-153950001I0J249999D01*
G01*
G37*
%TD*%
%TO.C,R7*%
G36*
G01*
X218400000Y-152950001D02*
X218400000Y-152049999D01*
G75*
G02*
X218649999Y-151800000I249999J0D01*
G01*
X219300001Y-151800000D01*
G75*
G02*
X219550000Y-152049999I0J-249999D01*
G01*
X219550000Y-152950001D01*
G75*
G02*
X219300001Y-153200000I-249999J0D01*
G01*
X218649999Y-153200000D01*
G75*
G02*
X218400000Y-152950001I0J249999D01*
G01*
G37*
G36*
G01*
X220450000Y-152950001D02*
X220450000Y-152049999D01*
G75*
G02*
X220699999Y-151800000I249999J0D01*
G01*
X221350001Y-151800000D01*
G75*
G02*
X221600000Y-152049999I0J-249999D01*
G01*
X221600000Y-152950001D01*
G75*
G02*
X221350001Y-153200000I-249999J0D01*
G01*
X220699999Y-153200000D01*
G75*
G02*
X220450000Y-152950001I0J249999D01*
G01*
G37*
%TD*%
%TO.C,R8*%
G36*
G01*
X220450000Y-154950001D02*
X220450000Y-154049999D01*
G75*
G02*
X220699999Y-153800000I249999J0D01*
G01*
X221350001Y-153800000D01*
G75*
G02*
X221600000Y-154049999I0J-249999D01*
G01*
X221600000Y-154950001D01*
G75*
G02*
X221350001Y-155200000I-249999J0D01*
G01*
X220699999Y-155200000D01*
G75*
G02*
X220450000Y-154950001I0J249999D01*
G01*
G37*
G36*
G01*
X218400000Y-154950001D02*
X218400000Y-154049999D01*
G75*
G02*
X218649999Y-153800000I249999J0D01*
G01*
X219300001Y-153800000D01*
G75*
G02*
X219550000Y-154049999I0J-249999D01*
G01*
X219550000Y-154950001D01*
G75*
G02*
X219300001Y-155200000I-249999J0D01*
G01*
X218649999Y-155200000D01*
G75*
G02*
X218400000Y-154950001I0J249999D01*
G01*
G37*
%TD*%
%TO.C,R9*%
G36*
G01*
X185400000Y-153450001D02*
X185400000Y-152549999D01*
G75*
G02*
X185649999Y-152300000I249999J0D01*
G01*
X186300001Y-152300000D01*
G75*
G02*
X186550000Y-152549999I0J-249999D01*
G01*
X186550000Y-153450001D01*
G75*
G02*
X186300001Y-153700000I-249999J0D01*
G01*
X185649999Y-153700000D01*
G75*
G02*
X185400000Y-153450001I0J249999D01*
G01*
G37*
G36*
G01*
X187450000Y-153450001D02*
X187450000Y-152549999D01*
G75*
G02*
X187699999Y-152300000I249999J0D01*
G01*
X188350001Y-152300000D01*
G75*
G02*
X188600000Y-152549999I0J-249999D01*
G01*
X188600000Y-153450001D01*
G75*
G02*
X188350001Y-153700000I-249999J0D01*
G01*
X187699999Y-153700000D01*
G75*
G02*
X187450000Y-153450001I0J249999D01*
G01*
G37*
%TD*%
%TO.C,R10*%
G36*
G01*
X187450000Y-150450001D02*
X187450000Y-149549999D01*
G75*
G02*
X187699999Y-149300000I249999J0D01*
G01*
X188350001Y-149300000D01*
G75*
G02*
X188600000Y-149549999I0J-249999D01*
G01*
X188600000Y-150450001D01*
G75*
G02*
X188350001Y-150700000I-249999J0D01*
G01*
X187699999Y-150700000D01*
G75*
G02*
X187450000Y-150450001I0J249999D01*
G01*
G37*
G36*
G01*
X185400000Y-150450001D02*
X185400000Y-149549999D01*
G75*
G02*
X185649999Y-149300000I249999J0D01*
G01*
X186300001Y-149300000D01*
G75*
G02*
X186550000Y-149549999I0J-249999D01*
G01*
X186550000Y-150450001D01*
G75*
G02*
X186300001Y-150700000I-249999J0D01*
G01*
X185649999Y-150700000D01*
G75*
G02*
X185400000Y-150450001I0J249999D01*
G01*
G37*
%TD*%
%TO.C,R11*%
G36*
G01*
X174450001Y-105600000D02*
X173549999Y-105600000D01*
G75*
G02*
X173300000Y-105350001I0J249999D01*
G01*
X173300000Y-104699999D01*
G75*
G02*
X173549999Y-104450000I249999J0D01*
G01*
X174450001Y-104450000D01*
G75*
G02*
X174700000Y-104699999I0J-249999D01*
G01*
X174700000Y-105350001D01*
G75*
G02*
X174450001Y-105600000I-249999J0D01*
G01*
G37*
G36*
G01*
X174450001Y-103550000D02*
X173549999Y-103550000D01*
G75*
G02*
X173300000Y-103300001I0J249999D01*
G01*
X173300000Y-102649999D01*
G75*
G02*
X173549999Y-102400000I249999J0D01*
G01*
X174450001Y-102400000D01*
G75*
G02*
X174700000Y-102649999I0J-249999D01*
G01*
X174700000Y-103300001D01*
G75*
G02*
X174450001Y-103550000I-249999J0D01*
G01*
G37*
%TD*%
%TO.C,R12*%
G36*
G01*
X184450000Y-85450001D02*
X184450000Y-84549999D01*
G75*
G02*
X184699999Y-84300000I249999J0D01*
G01*
X185350001Y-84300000D01*
G75*
G02*
X185600000Y-84549999I0J-249999D01*
G01*
X185600000Y-85450001D01*
G75*
G02*
X185350001Y-85700000I-249999J0D01*
G01*
X184699999Y-85700000D01*
G75*
G02*
X184450000Y-85450001I0J249999D01*
G01*
G37*
G36*
G01*
X182400000Y-85450001D02*
X182400000Y-84549999D01*
G75*
G02*
X182649999Y-84300000I249999J0D01*
G01*
X183300001Y-84300000D01*
G75*
G02*
X183550000Y-84549999I0J-249999D01*
G01*
X183550000Y-85450001D01*
G75*
G02*
X183300001Y-85700000I-249999J0D01*
G01*
X182649999Y-85700000D01*
G75*
G02*
X182400000Y-85450001I0J249999D01*
G01*
G37*
%TD*%
%TO.C,R13*%
G36*
G01*
X212400000Y-81450001D02*
X212400000Y-80549999D01*
G75*
G02*
X212649999Y-80300000I249999J0D01*
G01*
X213300001Y-80300000D01*
G75*
G02*
X213550000Y-80549999I0J-249999D01*
G01*
X213550000Y-81450001D01*
G75*
G02*
X213300001Y-81700000I-249999J0D01*
G01*
X212649999Y-81700000D01*
G75*
G02*
X212400000Y-81450001I0J249999D01*
G01*
G37*
G36*
G01*
X214450000Y-81450001D02*
X214450000Y-80549999D01*
G75*
G02*
X214699999Y-80300000I249999J0D01*
G01*
X215350001Y-80300000D01*
G75*
G02*
X215600000Y-80549999I0J-249999D01*
G01*
X215600000Y-81450001D01*
G75*
G02*
X215350001Y-81700000I-249999J0D01*
G01*
X214699999Y-81700000D01*
G75*
G02*
X214450000Y-81450001I0J249999D01*
G01*
G37*
%TD*%
%TO.C,R14*%
G36*
G01*
X229600000Y-84549999D02*
X229600000Y-85450001D01*
G75*
G02*
X229350001Y-85700000I-249999J0D01*
G01*
X228699999Y-85700000D01*
G75*
G02*
X228450000Y-85450001I0J249999D01*
G01*
X228450000Y-84549999D01*
G75*
G02*
X228699999Y-84300000I249999J0D01*
G01*
X229350001Y-84300000D01*
G75*
G02*
X229600000Y-84549999I0J-249999D01*
G01*
G37*
G36*
G01*
X227550000Y-84549999D02*
X227550000Y-85450001D01*
G75*
G02*
X227300001Y-85700000I-249999J0D01*
G01*
X226649999Y-85700000D01*
G75*
G02*
X226400000Y-85450001I0J249999D01*
G01*
X226400000Y-84549999D01*
G75*
G02*
X226649999Y-84300000I249999J0D01*
G01*
X227300001Y-84300000D01*
G75*
G02*
X227550000Y-84549999I0J-249999D01*
G01*
G37*
%TD*%
%TO.C,R15*%
G36*
G01*
X237574999Y-104450000D02*
X238475001Y-104450000D01*
G75*
G02*
X238725000Y-104699999I0J-249999D01*
G01*
X238725000Y-105350001D01*
G75*
G02*
X238475001Y-105600000I-249999J0D01*
G01*
X237574999Y-105600000D01*
G75*
G02*
X237325000Y-105350001I0J249999D01*
G01*
X237325000Y-104699999D01*
G75*
G02*
X237574999Y-104450000I249999J0D01*
G01*
G37*
G36*
G01*
X237574999Y-102400000D02*
X238475001Y-102400000D01*
G75*
G02*
X238725000Y-102649999I0J-249999D01*
G01*
X238725000Y-103300001D01*
G75*
G02*
X238475001Y-103550000I-249999J0D01*
G01*
X237574999Y-103550000D01*
G75*
G02*
X237325000Y-103300001I0J249999D01*
G01*
X237325000Y-102649999D01*
G75*
G02*
X237574999Y-102400000I249999J0D01*
G01*
G37*
%TD*%
D15*
%TO.C,SW3*%
X208225000Y-156500000D03*
X203775000Y-156500000D03*
%TD*%
D16*
%TO.C,TR0*%
X179150000Y-104950000D03*
X179150000Y-103050000D03*
X176850000Y-104000000D03*
%TD*%
%TO.C,TR1*%
X182850000Y-88000000D03*
X185150000Y-87050000D03*
X185150000Y-88950000D03*
%TD*%
%TO.C,TR2*%
X195850000Y-80050000D03*
X195850000Y-81950000D03*
X198150000Y-81000000D03*
%TD*%
%TO.C,TR3*%
X229150000Y-88000000D03*
X226850000Y-88950000D03*
X226850000Y-87050000D03*
%TD*%
%TO.C,TR4*%
X231850000Y-103050000D03*
X231850000Y-104950000D03*
X234150000Y-104000000D03*
%TD*%
D17*
%TO.C,X1*%
X192000000Y-143900000D03*
X192000000Y-148100000D03*
%TD*%
D18*
%TO.C,X2*%
X192000000Y-150800000D03*
X192000000Y-152000000D03*
X192000000Y-153200000D03*
%TD*%
M02*
