%TF.GenerationSoftware,KiCad,Pcbnew,(5.1.6)-1*%
%TF.CreationDate,2023-05-06T22:04:27+09:00*%
%TF.ProjectId,RX621,52583632-312e-46b6-9963-61645f706362,rev?*%
%TF.SameCoordinates,Original*%
%TF.FileFunction,Profile,NP*%
%FSLAX46Y46*%
G04 Gerber Fmt 4.6, Leading zero omitted, Abs format (unit mm)*
G04 Created by KiCad (PCBNEW (5.1.6)-1) date 2023-05-06 22:04:27*
%MOMM*%
%LPD*%
G01*
G04 APERTURE LIST*
%TA.AperFunction,Profile*%
%ADD10C,0.050000*%
%TD*%
G04 APERTURE END LIST*
D10*
X220300000Y-79000000D02*
G75*
G02*
X223700000Y-79000000I1700000J0D01*
G01*
X223700000Y-82000000D02*
G75*
G02*
X220300000Y-82000000I-1700000J0D01*
G01*
X223700000Y-82000000D02*
X223700000Y-79000000D01*
X188300000Y-79000000D02*
G75*
G02*
X191700000Y-79000000I1700000J0D01*
G01*
X191700000Y-82000000D02*
G75*
G02*
X188300000Y-82000000I-1700000J0D01*
G01*
X188300000Y-79000000D02*
X188300000Y-82000000D01*
X191700000Y-79000000D02*
X191700000Y-82000000D01*
X220300000Y-79000000D02*
X220300000Y-82000000D01*
X186000000Y-127000000D02*
X186000000Y-117000000D01*
X186000000Y-117000000D02*
X186000000Y-107000000D01*
X201000000Y-67000000D02*
X171000000Y-76000000D01*
X241000000Y-76000000D02*
X211000000Y-67000000D01*
X241000000Y-76000000D02*
X241000000Y-84000000D01*
X171000000Y-84000000D02*
X171000000Y-76000000D01*
X241000000Y-127000000D02*
X241000000Y-158000000D01*
X241000000Y-107000000D02*
X241000000Y-84000000D01*
X226000000Y-127000000D02*
X241000000Y-127000000D01*
X226000000Y-126000000D02*
X226000000Y-127000000D01*
X226000000Y-107000000D02*
X241000000Y-107000000D01*
X226000000Y-108000000D02*
X226000000Y-107000000D01*
X171000000Y-107000000D02*
X171000000Y-84000000D01*
X171000000Y-158000000D02*
X171000000Y-127000000D01*
X186000000Y-127000000D02*
X171000000Y-127000000D01*
X171000000Y-107000000D02*
X186000000Y-107000000D01*
X224500000Y-136000000D02*
G75*
G03*
X224500000Y-136000000I-1500000J0D01*
G01*
X190500000Y-136000000D02*
G75*
G03*
X190500000Y-136000000I-1500000J0D01*
G01*
X190500000Y-98000000D02*
G75*
G03*
X190500000Y-98000000I-1500000J0D01*
G01*
X224500000Y-98000000D02*
G75*
G03*
X224500000Y-98000000I-1500000J0D01*
G01*
X206000000Y-67000000D02*
X211000000Y-67000000D01*
X206000000Y-67000000D02*
X201000000Y-67000000D01*
X226000000Y-126000000D02*
X226000000Y-108000000D01*
X171000000Y-158000000D02*
X241000000Y-158000000D01*
M02*
